{
	"asset":{
		"copyright":"Eibriel",
		"generator":"Khronos glTF Blender I/O v4.3.47",
		"version":"2.0"
	},
	"scene":0,
	"scenes":[
		{
			"name":"Scene",
			"nodes":[
				0,
				1
			]
		}
	],
	"nodes":[
		{
			"mesh":0,
			"name":"ConcretePillar_A"
		},
		{
			"mesh":1,
			"name":"ConcretePillar_B"
		}
	],
	"materials":[
		{
			"doubleSided":true,
			"name":"Concrete_Pillar_ujjleixga_Raw",
			"normalTexture":{
				"index":0
			},
			"pbrMetallicRoughness":{
				"baseColorTexture":{
					"index":1
				},
				"metallicFactor":0,
				"metallicRoughnessTexture":{
					"index":2
				}
			}
		}
	],
	"meshes":[
		{
			"name":"ujjleixga_LOD0_TIER0_000_MatID_1_0",
			"primitives":[
				{
					"attributes":{
						"POSITION":0,
						"NORMAL":1,
						"TEXCOORD_0":2
					},
					"indices":3,
					"material":0
				}
			]
		},
		{
			"name":"ujjleixga_LOD0_TIER0_000_MatID_1_0.001",
			"primitives":[
				{
					"attributes":{
						"POSITION":4,
						"NORMAL":5,
						"TEXCOORD_0":6
					},
					"indices":7,
					"material":0
				}
			]
		}
	],
	"textures":[
		{
			"sampler":0,
			"source":0
		},
		{
			"sampler":0,
			"source":1
		},
		{
			"sampler":0,
			"source":2
		}
	],
	"images":[
		{
			"mimeType":"image/jpeg",
			"name":"ConcretePillar_A_Normal",
			"uri":"office_textures/ConcretePillar_A_Normal.jpg"
		},
		{
			"mimeType":"image/jpeg",
			"name":"ConcretePillar_A_Base",
			"uri":"office_textures/ConcretePillar_A_Base.jpg"
		},
		{
			"mimeType":"image/png",
			"name":"ConcretePillar_A_MR",
			"uri":"office_textures/ConcretePillar_A_MR.png"
		}
	],
	"accessors":[
		{
			"bufferView":0,
			"componentType":5126,
			"count":994,
			"max":[
				0.19299115240573883,
				0.34491750597953796,
				0.20663313567638397
			],
			"min":[
				-0.19862085580825806,
				-0.006615305785089731,
				-0.20224565267562866
			],
			"type":"VEC3"
		},
		{
			"bufferView":1,
			"componentType":5126,
			"count":994,
			"type":"VEC3"
		},
		{
			"bufferView":2,
			"componentType":5126,
			"count":994,
			"type":"VEC2"
		},
		{
			"bufferView":3,
			"componentType":5123,
			"count":5178,
			"type":"SCALAR"
		},
		{
			"bufferView":4,
			"componentType":5126,
			"count":1515,
			"max":[
				0.20154744386672974,
				0.3459533751010895,
				0.19979630410671234
			],
			"min":[
				-0.20231656730175018,
				-0.001392279053106904,
				-0.20518100261688232
			],
			"type":"VEC3"
		},
		{
			"bufferView":5,
			"componentType":5126,
			"count":1515,
			"type":"VEC3"
		},
		{
			"bufferView":6,
			"componentType":5126,
			"count":1515,
			"type":"VEC2"
		},
		{
			"bufferView":7,
			"componentType":5123,
			"count":8097,
			"type":"SCALAR"
		}
	],
	"bufferViews":[
		{
			"buffer":0,
			"byteLength":11928,
			"byteOffset":0,
			"target":34962
		},
		{
			"buffer":0,
			"byteLength":11928,
			"byteOffset":11928,
			"target":34962
		},
		{
			"buffer":0,
			"byteLength":7952,
			"byteOffset":23856,
			"target":34962
		},
		{
			"buffer":0,
			"byteLength":10356,
			"byteOffset":31808,
			"target":34963
		},
		{
			"buffer":0,
			"byteLength":18180,
			"byteOffset":42164,
			"target":34962
		},
		{
			"buffer":0,
			"byteLength":18180,
			"byteOffset":60344,
			"target":34962
		},
		{
			"buffer":0,
			"byteLength":12120,
			"byteOffset":78524,
			"target":34962
		},
		{
			"buffer":0,
			"byteLength":16194,
			"byteOffset":90644,
			"target":34963
		}
	],
	"samplers":[
		{
			"magFilter":9729,
			"minFilter":9987
		}
	],
	"buffers":[
		{
			"byteLength":106840,
			"uri":"robot_base.bin"
		}
	]
}
