{
	"asset":{
		"copyright":"Eibriel",
		"generator":"Khronos glTF Blender I/O v4.3.47",
		"version":"2.0"
	},
	"extensionsUsed":[
		"KHR_materials_unlit"
	],
	"scene":0,
	"scenes":[
		{
			"name":"Scene",
			"nodes":[
				0,
				1,
				2,
				3,
				4,
				5
			]
		}
	],
	"nodes":[
		{
			"mesh":0,
			"name":"ParedEscalera.001"
		},
		{
			"mesh":1,
			"name":"Stairs",
			"scale":[
				0.9724109768867493,
				0.9724109768867493,
				0.9724109768867493
			]
		},
		{
			"mesh":2,
			"name":"LineaA_stairs",
			"rotation":[
				0.4999999403953552,
				0.4999998211860657,
				0.5000000596046448,
				0.5000001788139343
			],
			"scale":[
				0.8201334476470947,
				1,
				1
			]
		},
		{
			"mesh":3,
			"name":"LineaB_stairs",
			"rotation":[
				0.4999999403953552,
				0.4999998211860657,
				0.5000000596046448,
				0.5000001788139343
			],
			"scale":[
				0.8201334476470947,
				1,
				1
			]
		},
		{
			"mesh":4,
			"name":"LineaC_stairs",
			"rotation":[
				0.4999999403953552,
				0.4999998211860657,
				0.5000000596046448,
				0.5000001788139343
			],
			"scale":[
				0.8201334476470947,
				1,
				1
			]
		},
		{
			"mesh":5,
			"name":"Chain",
			"rotation":[
				0.5118559002876282,
				0.4878562092781067,
				-0.48785609006881714,
				0.5118559002876282
			],
			"scale":[
				0.021225465461611748,
				0.021225465461611748,
				0.0212254635989666
			],
			"translation":[
				-1.434309959411621,
				0.5191600918769836,
				26.686857223510742
			]
		}
	],
	"materials":[
		{
			"doubleSided":true,
			"extensions":{
				"KHR_materials_unlit":{}
			},
			"name":"StairWall",
			"pbrMetallicRoughness":{
				"baseColorTexture":{
					"index":0
				},
				"metallicFactor":0,
				"roughnessFactor":0.9
			}
		},
		{
			"doubleSided":true,
			"extensions":{
				"KHR_materials_unlit":{}
			},
			"name":"Wall_exterior",
			"pbrMetallicRoughness":{
				"baseColorTexture":{
					"index":1
				},
				"metallicFactor":0,
				"roughnessFactor":0.9
			}
		},
		{
			"doubleSided":true,
			"extensions":{
				"KHR_materials_unlit":{}
			},
			"name":"Stair",
			"pbrMetallicRoughness":{
				"baseColorTexture":{
					"index":2
				},
				"metallicFactor":0,
				"roughnessFactor":0.9
			}
		},
		{
			"doubleSided":true,
			"extensions":{
				"KHR_materials_unlit":{}
			},
			"name":"LineaA_stairs",
			"pbrMetallicRoughness":{
				"baseColorTexture":{
					"index":3
				},
				"metallicFactor":0,
				"roughnessFactor":0.9
			}
		},
		{
			"doubleSided":true,
			"extensions":{
				"KHR_materials_unlit":{}
			},
			"name":"LineaB_stairs",
			"pbrMetallicRoughness":{
				"baseColorTexture":{
					"index":4
				},
				"metallicFactor":0,
				"roughnessFactor":0.9
			}
		},
		{
			"doubleSided":true,
			"extensions":{
				"KHR_materials_unlit":{}
			},
			"name":"LineaC_stairs",
			"pbrMetallicRoughness":{
				"baseColorTexture":{
					"index":5
				},
				"metallicFactor":0,
				"roughnessFactor":0.9
			}
		},
		{
			"doubleSided":true,
			"extensions":{
				"KHR_materials_unlit":{}
			},
			"name":"Chain",
			"pbrMetallicRoughness":{
				"baseColorTexture":{
					"index":6
				},
				"metallicFactor":0,
				"roughnessFactor":0.9
			}
		}
	],
	"meshes":[
		{
			"name":"StairBackWall",
			"primitives":[
				{
					"attributes":{
						"POSITION":0,
						"NORMAL":1,
						"TEXCOORD_0":2
					},
					"indices":3,
					"material":0
				},
				{
					"attributes":{
						"POSITION":4,
						"NORMAL":5,
						"TEXCOORD_0":6
					},
					"indices":7,
					"material":1
				}
			]
		},
		{
			"name":"ComplexStair",
			"primitives":[
				{
					"attributes":{
						"POSITION":8,
						"NORMAL":9,
						"TEXCOORD_0":10,
						"COLOR_0":11,
						"COLOR_1":12
					},
					"indices":13,
					"material":2
				}
			]
		},
		{
			"name":"OfficeWalls.004",
			"primitives":[
				{
					"attributes":{
						"POSITION":14,
						"NORMAL":15,
						"TEXCOORD_0":16
					},
					"indices":17,
					"material":3
				}
			]
		},
		{
			"name":"OfficeWalls.005",
			"primitives":[
				{
					"attributes":{
						"POSITION":18,
						"NORMAL":19,
						"TEXCOORD_0":20
					},
					"indices":17,
					"material":4
				}
			]
		},
		{
			"name":"OfficeWalls.006",
			"primitives":[
				{
					"attributes":{
						"POSITION":21,
						"NORMAL":22,
						"TEXCOORD_0":23
					},
					"indices":17,
					"material":5
				}
			]
		},
		{
			"name":"Torus.008_TT_checker_512x512_UV_GRID_0",
			"primitives":[
				{
					"attributes":{
						"POSITION":24,
						"NORMAL":25,
						"TEXCOORD_0":26
					},
					"indices":27,
					"material":6
				}
			]
		}
	],
	"textures":[
		{
			"sampler":0,
			"source":0
		},
		{
			"sampler":0,
			"source":1
		},
		{
			"sampler":0,
			"source":0
		},
		{
			"sampler":0,
			"source":0
		},
		{
			"sampler":0,
			"source":0
		},
		{
			"sampler":0,
			"source":0
		},
		{
			"sampler":0,
			"source":0
		}
	],
	"images":[
		{
			"mimeType":"image/png",
			"name":"Stairs_Bake",
			"uri":"office_textures/Stairs_Bake.png"
		},
		{
			"mimeType":"image/png",
			"name":"WallsFloorRoof_Bake",
			"uri":"office_textures/WallsFloorRoof_Bake.png"
		}
	],
	"accessors":[
		{
			"bufferView":0,
			"componentType":5126,
			"count":196,
			"max":[
				1.3585119247436523,
				4.099999904632568,
				31.07524871826172
			],
			"min":[
				-8.206977844238281,
				-4.547473508864641e-13,
				25.855283737182617
			],
			"type":"VEC3"
		},
		{
			"bufferView":1,
			"componentType":5126,
			"count":196,
			"type":"VEC3"
		},
		{
			"bufferView":2,
			"componentType":5126,
			"count":196,
			"type":"VEC2"
		},
		{
			"bufferView":3,
			"componentType":5123,
			"count":510,
			"type":"SCALAR"
		},
		{
			"bufferView":4,
			"componentType":5126,
			"count":16,
			"max":[
				8.500039100646973,
				4.09999942779541,
				25.33115577697754
			],
			"min":[
				-8.49996280670166,
				-8.280006680294605e-10,
				25.331151962280273
			],
			"type":"VEC3"
		},
		{
			"bufferView":5,
			"componentType":5126,
			"count":16,
			"type":"VEC3"
		},
		{
			"bufferView":6,
			"componentType":5126,
			"count":16,
			"type":"VEC2"
		},
		{
			"bufferView":7,
			"componentType":5123,
			"count":42,
			"type":"SCALAR"
		},
		{
			"bufferView":8,
			"componentType":5126,
			"count":197550,
			"max":[
				1.003431797027588,
				5.23201847076416,
				31.698617935180664
			],
			"min":[
				-7.945466041564941,
				-0.7358188629150391,
				25.818618774414062
			],
			"type":"VEC3"
		},
		{
			"bufferView":9,
			"componentType":5126,
			"count":197550,
			"type":"VEC3"
		},
		{
			"bufferView":10,
			"componentType":5126,
			"count":197550,
			"type":"VEC2"
		},
		{
			"bufferView":11,
			"componentType":5121,
			"count":197550,
			"normalized":true,
			"type":"VEC4"
		},
		{
			"bufferView":12,
			"componentType":5123,
			"count":197550,
			"normalized":true,
			"type":"VEC4"
		},
		{
			"bufferView":13,
			"componentType":5125,
			"count":308940,
			"type":"SCALAR"
		},
		{
			"bufferView":14,
			"componentType":5126,
			"count":12,
			"max":[
				4.3561530113220215,
				30.578998565673828,
				0.9807520508766174
			],
			"min":[
				-0.5857148766517639,
				25.3343448638916,
				-7.670838356018066
			],
			"type":"VEC3"
		},
		{
			"bufferView":15,
			"componentType":5126,
			"count":12,
			"type":"VEC3"
		},
		{
			"bufferView":16,
			"componentType":5126,
			"count":12,
			"type":"VEC2"
		},
		{
			"bufferView":17,
			"componentType":5123,
			"count":24,
			"type":"SCALAR"
		},
		{
			"bufferView":18,
			"componentType":5126,
			"count":12,
			"max":[
				4.8082594871521,
				30.578998565673828,
				0.9807520508766174
			],
			"min":[
				-0.13360801339149475,
				25.3343448638916,
				-7.670838356018066
			],
			"type":"VEC3"
		},
		{
			"bufferView":19,
			"componentType":5126,
			"count":12,
			"type":"VEC3"
		},
		{
			"bufferView":20,
			"componentType":5126,
			"count":12,
			"type":"VEC2"
		},
		{
			"bufferView":21,
			"componentType":5126,
			"count":12,
			"max":[
				5.24877405166626,
				30.578998565673828,
				0.9807518124580383
			],
			"min":[
				0.30690619349479675,
				25.3343448638916,
				-7.670838356018066
			],
			"type":"VEC3"
		},
		{
			"bufferView":22,
			"componentType":5126,
			"count":12,
			"type":"VEC3"
		},
		{
			"bufferView":23,
			"componentType":5126,
			"count":12,
			"type":"VEC2"
		},
		{
			"bufferView":24,
			"componentType":5126,
			"count":26880,
			"max":[
				51.33683395385742,
				0.9987592697143555,
				17.16645622253418
			],
			"min":[
				-50.89748001098633,
				-0.9984750747680664,
				-21.119369506835938
			],
			"type":"VEC3"
		},
		{
			"bufferView":25,
			"componentType":5126,
			"count":26880,
			"type":"VEC3"
		},
		{
			"bufferView":26,
			"componentType":5126,
			"count":26880,
			"type":"VEC2"
		},
		{
			"bufferView":27,
			"componentType":5123,
			"count":40320,
			"type":"SCALAR"
		}
	],
	"bufferViews":[
		{
			"buffer":0,
			"byteLength":2352,
			"byteOffset":0,
			"target":34962
		},
		{
			"buffer":0,
			"byteLength":2352,
			"byteOffset":2352,
			"target":34962
		},
		{
			"buffer":0,
			"byteLength":1568,
			"byteOffset":4704,
			"target":34962
		},
		{
			"buffer":0,
			"byteLength":1020,
			"byteOffset":6272,
			"target":34963
		},
		{
			"buffer":0,
			"byteLength":192,
			"byteOffset":7292,
			"target":34962
		},
		{
			"buffer":0,
			"byteLength":192,
			"byteOffset":7484,
			"target":34962
		},
		{
			"buffer":0,
			"byteLength":128,
			"byteOffset":7676,
			"target":34962
		},
		{
			"buffer":0,
			"byteLength":84,
			"byteOffset":7804,
			"target":34963
		},
		{
			"buffer":0,
			"byteLength":2370600,
			"byteOffset":7888,
			"target":34962
		},
		{
			"buffer":0,
			"byteLength":2370600,
			"byteOffset":2378488,
			"target":34962
		},
		{
			"buffer":0,
			"byteLength":1580400,
			"byteOffset":4749088,
			"target":34962
		},
		{
			"buffer":0,
			"byteLength":790200,
			"byteOffset":6329488,
			"target":34962
		},
		{
			"buffer":0,
			"byteLength":1580400,
			"byteOffset":7119688,
			"target":34962
		},
		{
			"buffer":0,
			"byteLength":1235760,
			"byteOffset":8700088,
			"target":34963
		},
		{
			"buffer":0,
			"byteLength":144,
			"byteOffset":9935848,
			"target":34962
		},
		{
			"buffer":0,
			"byteLength":144,
			"byteOffset":9935992,
			"target":34962
		},
		{
			"buffer":0,
			"byteLength":96,
			"byteOffset":9936136,
			"target":34962
		},
		{
			"buffer":0,
			"byteLength":48,
			"byteOffset":9936232,
			"target":34963
		},
		{
			"buffer":0,
			"byteLength":144,
			"byteOffset":9936280,
			"target":34962
		},
		{
			"buffer":0,
			"byteLength":144,
			"byteOffset":9936424,
			"target":34962
		},
		{
			"buffer":0,
			"byteLength":96,
			"byteOffset":9936568,
			"target":34962
		},
		{
			"buffer":0,
			"byteLength":144,
			"byteOffset":9936664,
			"target":34962
		},
		{
			"buffer":0,
			"byteLength":144,
			"byteOffset":9936808,
			"target":34962
		},
		{
			"buffer":0,
			"byteLength":96,
			"byteOffset":9936952,
			"target":34962
		},
		{
			"buffer":0,
			"byteLength":322560,
			"byteOffset":9937048,
			"target":34962
		},
		{
			"buffer":0,
			"byteLength":322560,
			"byteOffset":10259608,
			"target":34962
		},
		{
			"buffer":0,
			"byteLength":215040,
			"byteOffset":10582168,
			"target":34962
		},
		{
			"buffer":0,
			"byteLength":80640,
			"byteOffset":10797208,
			"target":34963
		}
	],
	"samplers":[
		{
			"magFilter":9729,
			"minFilter":9987
		}
	],
	"buffers":[
		{
			"byteLength":10877848,
			"uri":"stairs.bin"
		}
	]
}
