{
	"asset":{
		"copyright":"Eibriel",
		"generator":"Khronos glTF Blender I/O v4.3.47",
		"version":"2.0"
	},
	"scene":0,
	"scenes":[
		{
			"name":"BalloonCongrats",
			"nodes":[
				0,
				1,
				2,
				3,
				4,
				5,
				6,
				7
			]
		}
	],
	"nodes":[
		{
			"mesh":0,
			"name":"Object_5.004",
			"translation":[
				-2.482167959213257,
				0.5082950592041016,
				0.11280721426010132
			]
		},
		{
			"mesh":1,
			"name":"Object_3.005",
			"translation":[
				-6.243216514587402,
				0.7704607248306274,
				0.03242095559835434
			]
		},
		{
			"mesh":2,
			"name":"Object_2.003",
			"scale":[
				1.2072159051895142,
				1.2072160243988037,
				1.2072160243988037
			],
			"translation":[
				-0.03277623653411865,
				-3.7928402423858643,
				0.07647206634283066
			]
		},
		{
			"mesh":3,
			"name":"Object_3.002",
			"translation":[
				0.3205876350402832,
				1.0654104948043823,
				0.051634419709444046
			]
		},
		{
			"mesh":4,
			"name":"Object_4.002",
			"translation":[
				3.4784066677093506,
				0.7371871471405029,
				-0.07337415963411331
			]
		},
		{
			"mesh":5,
			"name":"Object_2.002",
			"translation":[
				6.848548889160156,
				0.6796997785568237,
				-0.09213804453611374
			]
		},
		{
			"mesh":6,
			"name":"Object_2.006",
			"scale":[
				1.228776454925537,
				1.2287765741348267,
				1.2287765741348267
			],
			"translation":[
				3.8635454177856445,
				-3.396749973297119,
				-0.11187109351158142
			]
		},
		{
			"mesh":7,
			"name":"Object_2.007",
			"scale":[
				1.299316167831421,
				1.2993162870407104,
				1.2993162870407104
			],
			"translation":[
				-3.9962801933288574,
				-3.8647236824035645,
				0.010042209178209305
			]
		}
	],
	"materials":[
		{
			"doubleSided":true,
			"name":"anisotropic1SG",
			"pbrMetallicRoughness":{
				"baseColorFactor":[
					0.4286220967769623,
					0.3122146427631378,
					0.17126919329166412,
					1
				],
				"roughnessFactor":0.19073933362960815
			}
		}
	],
	"meshes":[
		{
			"name":"Object_3.006",
			"primitives":[
				{
					"attributes":{
						"POSITION":0,
						"NORMAL":1,
						"TEXCOORD_0":2
					},
					"indices":3,
					"material":0
				}
			]
		},
		{
			"name":"Object_1.011",
			"primitives":[
				{
					"attributes":{
						"POSITION":4,
						"NORMAL":5,
						"TEXCOORD_0":6
					},
					"indices":7,
					"material":0
				}
			]
		},
		{
			"name":"Object_0.014",
			"primitives":[
				{
					"attributes":{
						"POSITION":8,
						"NORMAL":9,
						"TEXCOORD_0":10
					},
					"indices":11,
					"material":0
				}
			]
		},
		{
			"name":"Object_1.005",
			"primitives":[
				{
					"attributes":{
						"POSITION":12,
						"NORMAL":13,
						"TEXCOORD_0":14
					},
					"indices":15,
					"material":0
				}
			]
		},
		{
			"name":"Object_2.004",
			"primitives":[
				{
					"attributes":{
						"POSITION":16,
						"NORMAL":17,
						"TEXCOORD_0":18
					},
					"indices":19,
					"material":0
				}
			]
		},
		{
			"name":"Object_0.008",
			"primitives":[
				{
					"attributes":{
						"POSITION":20,
						"NORMAL":21,
						"TEXCOORD_0":22
					},
					"indices":23,
					"material":0
				}
			]
		},
		{
			"name":"Object_0.011",
			"primitives":[
				{
					"attributes":{
						"POSITION":24,
						"NORMAL":25,
						"TEXCOORD_0":26
					},
					"indices":27,
					"material":0
				}
			]
		},
		{
			"name":"Object_0.016",
			"primitives":[
				{
					"attributes":{
						"POSITION":28,
						"NORMAL":29,
						"TEXCOORD_0":30
					},
					"indices":31,
					"material":0
				}
			]
		}
	],
	"accessors":[
		{
			"bufferView":0,
			"componentType":5126,
			"count":760,
			"max":[
				1.8862395286560059,
				1.9277935028076172,
				0.32475411891937256
			],
			"min":[
				-1.8435277938842773,
				-1.4111394882202148,
				-0.28686052560806274
			],
			"type":"VEC3"
		},
		{
			"bufferView":1,
			"componentType":5126,
			"count":760,
			"type":"VEC3"
		},
		{
			"bufferView":2,
			"componentType":5126,
			"count":760,
			"type":"VEC2"
		},
		{
			"bufferView":3,
			"componentType":5123,
			"count":3705,
			"type":"SCALAR"
		},
		{
			"bufferView":4,
			"componentType":5126,
			"count":2602,
			"max":[
				2.392782688140869,
				1.4306116104125977,
				0.437820166349411
			],
			"min":[
				-2.444376230239868,
				-1.6280882358551025,
				-0.4266972541809082
			],
			"type":"VEC3"
		},
		{
			"bufferView":5,
			"componentType":5126,
			"count":2602,
			"type":"VEC3"
		},
		{
			"bufferView":6,
			"componentType":5126,
			"count":2602,
			"type":"VEC2"
		},
		{
			"bufferView":7,
			"componentType":5123,
			"count":12798,
			"type":"SCALAR"
		},
		{
			"bufferView":8,
			"componentType":5126,
			"count":754,
			"max":[
				1.3153969049453735,
				1.4776215553283691,
				0.29111799597740173
			],
			"min":[
				-1.3790611028671265,
				-1.7503142356872559,
				-0.14339078962802887
			],
			"type":"VEC3"
		},
		{
			"bufferView":9,
			"componentType":5126,
			"count":754,
			"type":"VEC3"
		},
		{
			"bufferView":10,
			"componentType":5126,
			"count":754,
			"type":"VEC2"
		},
		{
			"bufferView":11,
			"componentType":5123,
			"count":3609,
			"type":"SCALAR"
		},
		{
			"bufferView":12,
			"componentType":5126,
			"count":655,
			"max":[
				1.4323184490203857,
				1.1489663124084473,
				0.2829550802707672
			],
			"min":[
				-1.4094934463500977,
				-1.9285475015640259,
				-0.15719909965991974
			],
			"type":"VEC3"
		},
		{
			"bufferView":13,
			"componentType":5126,
			"count":655,
			"type":"VEC3"
		},
		{
			"bufferView":14,
			"componentType":5126,
			"count":655,
			"type":"VEC2"
		},
		{
			"bufferView":15,
			"componentType":5123,
			"count":3270,
			"type":"SCALAR"
		},
		{
			"bufferView":16,
			"componentType":5126,
			"count":1561,
			"max":[
				1.5752198696136475,
				1.4831132888793945,
				0.3904099762439728
			],
			"min":[
				-1.5456620454788208,
				-1.6335840225219727,
				-0.4560074210166931
			],
			"type":"VEC3"
		},
		{
			"bufferView":17,
			"componentType":5126,
			"count":1561,
			"type":"VEC3"
		},
		{
			"bufferView":18,
			"componentType":5126,
			"count":1561,
			"type":"VEC2"
		},
		{
			"bufferView":19,
			"componentType":5123,
			"count":7605,
			"type":"SCALAR"
		},
		{
			"bufferView":20,
			"componentType":5126,
			"count":2521,
			"max":[
				1.3401830196380615,
				1.5890531539916992,
				0.4595007598400116
			],
			"min":[
				-1.3348617553710938,
				-1.5872163772583008,
				-0.4638161063194275
			],
			"type":"VEC3"
		},
		{
			"bufferView":21,
			"componentType":5126,
			"count":2521,
			"type":"VEC3"
		},
		{
			"bufferView":22,
			"componentType":5126,
			"count":2521,
			"type":"VEC2"
		},
		{
			"bufferView":23,
			"componentType":5123,
			"count":12810,
			"type":"SCALAR"
		},
		{
			"bufferView":24,
			"componentType":5126,
			"count":637,
			"max":[
				1.3961756229400635,
				1.1332268714904785,
				0.14612208306789398
			],
			"min":[
				-1.44563627243042,
				-1.9459960460662842,
				-0.299018919467926
			],
			"type":"VEC3"
		},
		{
			"bufferView":25,
			"componentType":5126,
			"count":637,
			"type":"VEC3"
		},
		{
			"bufferView":26,
			"componentType":5126,
			"count":637,
			"type":"VEC2"
		},
		{
			"bufferView":27,
			"componentType":5123,
			"count":3159,
			"type":"SCALAR"
		},
		{
			"bufferView":28,
			"componentType":5126,
			"count":2198,
			"max":[
				1.3721909523010254,
				1.51493501663208,
				0.3946272134780884
			],
			"min":[
				-1.3528300523757935,
				-1.54744291305542,
				-0.37931111454963684
			],
			"type":"VEC3"
		},
		{
			"bufferView":29,
			"componentType":5126,
			"count":2198,
			"type":"VEC3"
		},
		{
			"bufferView":30,
			"componentType":5126,
			"count":2198,
			"type":"VEC2"
		},
		{
			"bufferView":31,
			"componentType":5123,
			"count":11142,
			"type":"SCALAR"
		}
	],
	"bufferViews":[
		{
			"buffer":0,
			"byteLength":9120,
			"byteOffset":0,
			"target":34962
		},
		{
			"buffer":0,
			"byteLength":9120,
			"byteOffset":9120,
			"target":34962
		},
		{
			"buffer":0,
			"byteLength":6080,
			"byteOffset":18240,
			"target":34962
		},
		{
			"buffer":0,
			"byteLength":7410,
			"byteOffset":24320,
			"target":34963
		},
		{
			"buffer":0,
			"byteLength":31224,
			"byteOffset":31732,
			"target":34962
		},
		{
			"buffer":0,
			"byteLength":31224,
			"byteOffset":62956,
			"target":34962
		},
		{
			"buffer":0,
			"byteLength":20816,
			"byteOffset":94180,
			"target":34962
		},
		{
			"buffer":0,
			"byteLength":25596,
			"byteOffset":114996,
			"target":34963
		},
		{
			"buffer":0,
			"byteLength":9048,
			"byteOffset":140592,
			"target":34962
		},
		{
			"buffer":0,
			"byteLength":9048,
			"byteOffset":149640,
			"target":34962
		},
		{
			"buffer":0,
			"byteLength":6032,
			"byteOffset":158688,
			"target":34962
		},
		{
			"buffer":0,
			"byteLength":7218,
			"byteOffset":164720,
			"target":34963
		},
		{
			"buffer":0,
			"byteLength":7860,
			"byteOffset":171940,
			"target":34962
		},
		{
			"buffer":0,
			"byteLength":7860,
			"byteOffset":179800,
			"target":34962
		},
		{
			"buffer":0,
			"byteLength":5240,
			"byteOffset":187660,
			"target":34962
		},
		{
			"buffer":0,
			"byteLength":6540,
			"byteOffset":192900,
			"target":34963
		},
		{
			"buffer":0,
			"byteLength":18732,
			"byteOffset":199440,
			"target":34962
		},
		{
			"buffer":0,
			"byteLength":18732,
			"byteOffset":218172,
			"target":34962
		},
		{
			"buffer":0,
			"byteLength":12488,
			"byteOffset":236904,
			"target":34962
		},
		{
			"buffer":0,
			"byteLength":15210,
			"byteOffset":249392,
			"target":34963
		},
		{
			"buffer":0,
			"byteLength":30252,
			"byteOffset":264604,
			"target":34962
		},
		{
			"buffer":0,
			"byteLength":30252,
			"byteOffset":294856,
			"target":34962
		},
		{
			"buffer":0,
			"byteLength":20168,
			"byteOffset":325108,
			"target":34962
		},
		{
			"buffer":0,
			"byteLength":25620,
			"byteOffset":345276,
			"target":34963
		},
		{
			"buffer":0,
			"byteLength":7644,
			"byteOffset":370896,
			"target":34962
		},
		{
			"buffer":0,
			"byteLength":7644,
			"byteOffset":378540,
			"target":34962
		},
		{
			"buffer":0,
			"byteLength":5096,
			"byteOffset":386184,
			"target":34962
		},
		{
			"buffer":0,
			"byteLength":6318,
			"byteOffset":391280,
			"target":34963
		},
		{
			"buffer":0,
			"byteLength":26376,
			"byteOffset":397600,
			"target":34962
		},
		{
			"buffer":0,
			"byteLength":26376,
			"byteOffset":423976,
			"target":34962
		},
		{
			"buffer":0,
			"byteLength":17584,
			"byteOffset":450352,
			"target":34962
		},
		{
			"buffer":0,
			"byteLength":22284,
			"byteOffset":467936,
			"target":34963
		}
	],
	"buffers":[
		{
			"byteLength":490220,
			"uri":"BalloonCongrats.bin"
		}
	]
}
