{
	"asset":{
		"copyright":"Eibriel",
		"generator":"Khronos glTF Blender I/O v4.3.47",
		"version":"2.0"
	},
	"scene":0,
	"scenes":[
		{
			"name":"BalloonThanks",
			"nodes":[
				0,
				1,
				2,
				3,
				4,
				5
			]
		}
	],
	"nodes":[
		{
			"mesh":0,
			"name":"Object_6.003",
			"translation":[
				-0.020525753498077393,
				-4.108003616333008,
				0.012727305293083191
			]
		},
		{
			"mesh":1,
			"name":"Object_3.003",
			"translation":[
				-3.295271873474121,
				0.5572917461395264,
				0.051634352654218674
			]
		},
		{
			"mesh":2,
			"name":"Object_2.005",
			"translation":[
				-0.19034433364868164,
				0.08678938448429108,
				-0.09213811904191971
			]
		},
		{
			"mesh":3,
			"name":"Object_5.007",
			"translation":[
				2.9731698036193848,
				-0.008515357971191406,
				0.12606672942638397
			]
		},
		{
			"mesh":4,
			"name":"Object_5.008",
			"translation":[
				-3.2900614738464355,
				-4.210432052612305,
				0.1260661631822586
			]
		},
		{
			"mesh":5,
			"name":"Object_4.003",
			"translation":[
				3.497575283050537,
				-4.325507164001465,
				0.0008642367320135236
			]
		}
	],
	"materials":[
		{
			"doubleSided":true,
			"name":"anisotropic1SG",
			"pbrMetallicRoughness":{
				"baseColorFactor":[
					0.4286220967769623,
					0.3122146427631378,
					0.17126919329166412,
					1
				],
				"roughnessFactor":0.19073933362960815
			}
		}
	],
	"meshes":[
		{
			"name":"Object_4.001",
			"primitives":[
				{
					"attributes":{
						"POSITION":0,
						"NORMAL":1,
						"TEXCOORD_0":2
					},
					"indices":3,
					"material":0
				}
			]
		},
		{
			"name":"Object_1.009",
			"primitives":[
				{
					"attributes":{
						"POSITION":4,
						"NORMAL":5,
						"TEXCOORD_0":6
					},
					"indices":7,
					"material":0
				}
			]
		},
		{
			"name":"Object_0.013",
			"primitives":[
				{
					"attributes":{
						"POSITION":8,
						"NORMAL":9,
						"TEXCOORD_0":10
					},
					"indices":11,
					"material":0
				}
			]
		},
		{
			"name":"Object_3.009",
			"primitives":[
				{
					"attributes":{
						"POSITION":12,
						"NORMAL":13,
						"TEXCOORD_0":14
					},
					"indices":15,
					"material":0
				}
			]
		},
		{
			"name":"Object_3.011",
			"primitives":[
				{
					"attributes":{
						"POSITION":16,
						"NORMAL":17,
						"TEXCOORD_0":18
					},
					"indices":15,
					"material":0
				}
			]
		},
		{
			"name":"Object_2.006",
			"primitives":[
				{
					"attributes":{
						"POSITION":19,
						"NORMAL":20,
						"TEXCOORD_0":21
					},
					"indices":22,
					"material":0
				}
			]
		}
	],
	"accessors":[
		{
			"bufferView":0,
			"componentType":5126,
			"count":2349,
			"max":[
				1.343383550643921,
				1.4906415939331055,
				0.5328895449638367
			],
			"min":[
				-1.3282012939453125,
				-1.5070395469665527,
				-0.5440906882286072
			],
			"type":"VEC3"
		},
		{
			"bufferView":1,
			"componentType":5126,
			"count":2349,
			"type":"VEC3"
		},
		{
			"bufferView":2,
			"componentType":5126,
			"count":2349,
			"type":"VEC2"
		},
		{
			"bufferView":3,
			"componentType":5123,
			"count":11979,
			"type":"SCALAR"
		},
		{
			"bufferView":4,
			"componentType":5126,
			"count":655,
			"max":[
				1.4323184490203857,
				1.1489663124084473,
				0.2829550802707672
			],
			"min":[
				-1.4094934463500977,
				-1.9285475015640259,
				-0.15719909965991974
			],
			"type":"VEC3"
		},
		{
			"bufferView":5,
			"componentType":5126,
			"count":655,
			"type":"VEC3"
		},
		{
			"bufferView":6,
			"componentType":5126,
			"count":655,
			"type":"VEC2"
		},
		{
			"bufferView":7,
			"componentType":5123,
			"count":3270,
			"type":"SCALAR"
		},
		{
			"bufferView":8,
			"componentType":5126,
			"count":2521,
			"max":[
				1.3401830196380615,
				1.5890531539916992,
				0.4595007598400116
			],
			"min":[
				-1.3348617553710938,
				-1.5872163772583008,
				-0.4638161063194275
			],
			"type":"VEC3"
		},
		{
			"bufferView":9,
			"componentType":5126,
			"count":2521,
			"type":"VEC3"
		},
		{
			"bufferView":10,
			"componentType":5126,
			"count":2521,
			"type":"VEC2"
		},
		{
			"bufferView":11,
			"componentType":5123,
			"count":12810,
			"type":"SCALAR"
		},
		{
			"bufferView":12,
			"componentType":5126,
			"count":1185,
			"max":[
				1.3109397888183594,
				1.560847282409668,
				0.2601080536842346
			],
			"min":[
				-1.259784460067749,
				-1.620016098022461,
				-0.15430104732513428
			],
			"type":"VEC3"
		},
		{
			"bufferView":13,
			"componentType":5126,
			"count":1185,
			"type":"VEC3"
		},
		{
			"bufferView":14,
			"componentType":5126,
			"count":1185,
			"type":"VEC2"
		},
		{
			"bufferView":15,
			"componentType":5123,
			"count":5958,
			"type":"SCALAR"
		},
		{
			"bufferView":16,
			"componentType":5126,
			"count":1185,
			"max":[
				1.3109397888183594,
				1.560847282409668,
				0.2601080536842346
			],
			"min":[
				-1.259784460067749,
				-1.620016098022461,
				-0.15430104732513428
			],
			"type":"VEC3"
		},
		{
			"bufferView":17,
			"componentType":5126,
			"count":1185,
			"type":"VEC3"
		},
		{
			"bufferView":18,
			"componentType":5126,
			"count":1185,
			"type":"VEC2"
		},
		{
			"bufferView":19,
			"componentType":5126,
			"count":1917,
			"max":[
				1.394405484199524,
				1.5421180725097656,
				0.30943992733955383
			],
			"min":[
				-1.093355417251587,
				-1.5774221420288086,
				-0.3117310106754303
			],
			"type":"VEC3"
		},
		{
			"bufferView":20,
			"componentType":5126,
			"count":1917,
			"type":"VEC3"
		},
		{
			"bufferView":21,
			"componentType":5126,
			"count":1917,
			"type":"VEC2"
		},
		{
			"bufferView":22,
			"componentType":5123,
			"count":9606,
			"type":"SCALAR"
		}
	],
	"bufferViews":[
		{
			"buffer":0,
			"byteLength":28188,
			"byteOffset":0,
			"target":34962
		},
		{
			"buffer":0,
			"byteLength":28188,
			"byteOffset":28188,
			"target":34962
		},
		{
			"buffer":0,
			"byteLength":18792,
			"byteOffset":56376,
			"target":34962
		},
		{
			"buffer":0,
			"byteLength":23958,
			"byteOffset":75168,
			"target":34963
		},
		{
			"buffer":0,
			"byteLength":7860,
			"byteOffset":99128,
			"target":34962
		},
		{
			"buffer":0,
			"byteLength":7860,
			"byteOffset":106988,
			"target":34962
		},
		{
			"buffer":0,
			"byteLength":5240,
			"byteOffset":114848,
			"target":34962
		},
		{
			"buffer":0,
			"byteLength":6540,
			"byteOffset":120088,
			"target":34963
		},
		{
			"buffer":0,
			"byteLength":30252,
			"byteOffset":126628,
			"target":34962
		},
		{
			"buffer":0,
			"byteLength":30252,
			"byteOffset":156880,
			"target":34962
		},
		{
			"buffer":0,
			"byteLength":20168,
			"byteOffset":187132,
			"target":34962
		},
		{
			"buffer":0,
			"byteLength":25620,
			"byteOffset":207300,
			"target":34963
		},
		{
			"buffer":0,
			"byteLength":14220,
			"byteOffset":232920,
			"target":34962
		},
		{
			"buffer":0,
			"byteLength":14220,
			"byteOffset":247140,
			"target":34962
		},
		{
			"buffer":0,
			"byteLength":9480,
			"byteOffset":261360,
			"target":34962
		},
		{
			"buffer":0,
			"byteLength":11916,
			"byteOffset":270840,
			"target":34963
		},
		{
			"buffer":0,
			"byteLength":14220,
			"byteOffset":282756,
			"target":34962
		},
		{
			"buffer":0,
			"byteLength":14220,
			"byteOffset":296976,
			"target":34962
		},
		{
			"buffer":0,
			"byteLength":9480,
			"byteOffset":311196,
			"target":34962
		},
		{
			"buffer":0,
			"byteLength":23004,
			"byteOffset":320676,
			"target":34962
		},
		{
			"buffer":0,
			"byteLength":23004,
			"byteOffset":343680,
			"target":34962
		},
		{
			"buffer":0,
			"byteLength":15336,
			"byteOffset":366684,
			"target":34962
		},
		{
			"buffer":0,
			"byteLength":19212,
			"byteOffset":382020,
			"target":34963
		}
	],
	"buffers":[
		{
			"byteLength":401232,
			"uri":"BallonTheEnd.bin"
		}
	]
}
