{
	"asset":{
		"copyright":"Eibriel",
		"generator":"Khronos glTF Blender I/O v4.3.47",
		"version":"2.0"
	},
	"scene":0,
	"scenes":[
		{
			"name":"BookJournalClosed",
			"nodes":[
				0,
				1
			]
		}
	],
	"nodes":[
		{
			"mesh":0,
			"name":"BookJournalClosed_Pages"
		},
		{
			"mesh":1,
			"name":"BookJournalClosed_Cover"
		}
	],
	"materials":[
		{
			"doubleSided":true,
			"name":"material.001",
			"pbrMetallicRoughness":{
				"baseColorFactor":[
					0.800000011920929,
					0.800000011920929,
					0.800000011920929,
					1
				],
				"metallicFactor":0,
				"roughnessFactor":0.8211145401000977
			}
		},
		{
			"doubleSided":true,
			"name":"BookJournal_Cover",
			"pbrMetallicRoughness":{
				"baseColorTexture":{
					"index":0
				},
				"metallicFactor":0,
				"roughnessFactor":0.7629578709602356
			}
		}
	],
	"meshes":[
		{
			"name":"BookJournalClosed_Pages",
			"primitives":[
				{
					"attributes":{
						"POSITION":0,
						"NORMAL":1,
						"TEXCOORD_0":2
					},
					"indices":3,
					"material":0
				}
			]
		},
		{
			"name":"BookJournalClosed_Cover",
			"primitives":[
				{
					"attributes":{
						"POSITION":4,
						"NORMAL":5,
						"TEXCOORD_0":6
					},
					"indices":7,
					"material":1
				}
			]
		}
	],
	"textures":[
		{
			"sampler":0,
			"source":0
		}
	],
	"images":[
		{
			"mimeType":"image/jpeg",
			"name":"BookJournal_Cover",
			"uri":"props_textures/BookJournal_Cover.jpg"
		}
	],
	"accessors":[
		{
			"bufferView":0,
			"componentType":5126,
			"count":12,
			"max":[
				0.07743832468986511,
				0.024056870490312576,
				0.11488281935453415
			],
			"min":[
				-0.07868283987045288,
				0.0019515110179781914,
				-0.11488281935453415
			],
			"type":"VEC3"
		},
		{
			"bufferView":1,
			"componentType":5126,
			"count":12,
			"type":"VEC3"
		},
		{
			"bufferView":2,
			"componentType":5126,
			"count":12,
			"type":"VEC2"
		},
		{
			"bufferView":3,
			"componentType":5123,
			"count":18,
			"type":"SCALAR"
		},
		{
			"bufferView":4,
			"componentType":5126,
			"count":9767,
			"max":[
				0.08319651335477829,
				0.02627558261156082,
				0.11803384125232697
			],
			"min":[
				-0.08337575197219849,
				-0.0002672020345926285,
				-0.11803390830755234
			],
			"type":"VEC3"
		},
		{
			"bufferView":5,
			"componentType":5126,
			"count":9767,
			"type":"VEC3"
		},
		{
			"bufferView":6,
			"componentType":5126,
			"count":9767,
			"type":"VEC2"
		},
		{
			"bufferView":7,
			"componentType":5123,
			"count":36096,
			"type":"SCALAR"
		}
	],
	"bufferViews":[
		{
			"buffer":0,
			"byteLength":144,
			"byteOffset":0,
			"target":34962
		},
		{
			"buffer":0,
			"byteLength":144,
			"byteOffset":144,
			"target":34962
		},
		{
			"buffer":0,
			"byteLength":96,
			"byteOffset":288,
			"target":34962
		},
		{
			"buffer":0,
			"byteLength":36,
			"byteOffset":384,
			"target":34963
		},
		{
			"buffer":0,
			"byteLength":117204,
			"byteOffset":420,
			"target":34962
		},
		{
			"buffer":0,
			"byteLength":117204,
			"byteOffset":117624,
			"target":34962
		},
		{
			"buffer":0,
			"byteLength":78136,
			"byteOffset":234828,
			"target":34962
		},
		{
			"buffer":0,
			"byteLength":72192,
			"byteOffset":312964,
			"target":34963
		}
	],
	"samplers":[
		{
			"magFilter":9729,
			"minFilter":9987
		}
	],
	"buffers":[
		{
			"byteLength":385156,
			"uri":"BookJournalClosed.bin"
		}
	]
}
