{
	"asset":{
		"copyright":"Eibriel",
		"generator":"Khronos glTF Blender I/O v4.3.47",
		"version":"2.0"
	},
	"scene":0,
	"scenes":[
		{
			"name":"BookBridgeOpen",
			"nodes":[
				0,
				1
			]
		}
	],
	"nodes":[
		{
			"mesh":0,
			"name":"book_a_open_0"
		},
		{
			"mesh":1,
			"name":"book_a_open_1"
		}
	],
	"materials":[
		{
			"doubleSided":true,
			"name":"book_a",
			"normalTexture":{
				"index":0,
				"scale":0.2631574869155884
			},
			"pbrMetallicRoughness":{
				"baseColorTexture":{
					"index":1
				},
				"metallicFactor":0,
				"roughnessFactor":0.9076558351516724
			}
		},
		{
			"doubleSided":true,
			"name":"book_a_pages",
			"pbrMetallicRoughness":{
				"baseColorTexture":{
					"index":2
				},
				"metallicFactor":0
			}
		}
	],
	"meshes":[
		{
			"name":"book_a_open_0",
			"primitives":[
				{
					"attributes":{
						"POSITION":0,
						"NORMAL":1,
						"TEXCOORD_0":2
					},
					"indices":3,
					"material":0
				}
			]
		},
		{
			"name":"book_a_open_1",
			"primitives":[
				{
					"attributes":{
						"POSITION":4,
						"NORMAL":5,
						"TEXCOORD_0":6
					},
					"indices":7,
					"material":1
				}
			]
		}
	],
	"textures":[
		{
			"sampler":0,
			"source":0
		},
		{
			"sampler":0,
			"source":1
		},
		{
			"sampler":0,
			"source":2
		}
	],
	"images":[
		{
			"mimeType":"image/png",
			"name":"BookBridgeOpen_Cover_Normal",
			"uri":"props_textures/BookBridgeOpen_Cover_Normal.png"
		},
		{
			"mimeType":"image/png",
			"name":"BookBridgeOpen_Cover",
			"uri":"props_textures/BookBridgeOpen_Cover.png"
		},
		{
			"mimeType":"image/png",
			"name":"BookBridgeOpen_Text",
			"uri":"props_textures/BookBridgeOpen_Text.png"
		}
	],
	"accessors":[
		{
			"bufferView":0,
			"componentType":5126,
			"count":509,
			"max":[
				0.17835423350334167,
				0.04040825739502907,
				0.128972128033638
			],
			"min":[
				-0.18487548828125,
				-0.00038791511906310916,
				-0.13107295334339142
			],
			"type":"VEC3"
		},
		{
			"bufferView":1,
			"componentType":5126,
			"count":509,
			"type":"VEC3"
		},
		{
			"bufferView":2,
			"componentType":5126,
			"count":509,
			"type":"VEC2"
		},
		{
			"bufferView":3,
			"componentType":5123,
			"count":1800,
			"type":"SCALAR"
		},
		{
			"bufferView":4,
			"componentType":5126,
			"count":60,
			"max":[
				0.169439435005188,
				0.04040825739502907,
				0.12422139197587967
			],
			"min":[
				-0.17754365503787994,
				0.02587929554283619,
				-0.12649701535701752
			],
			"type":"VEC3"
		},
		{
			"bufferView":5,
			"componentType":5126,
			"count":60,
			"type":"VEC3"
		},
		{
			"bufferView":6,
			"componentType":5126,
			"count":60,
			"type":"VEC2"
		},
		{
			"bufferView":7,
			"componentType":5123,
			"count":240,
			"type":"SCALAR"
		}
	],
	"bufferViews":[
		{
			"buffer":0,
			"byteLength":6108,
			"byteOffset":0,
			"target":34962
		},
		{
			"buffer":0,
			"byteLength":6108,
			"byteOffset":6108,
			"target":34962
		},
		{
			"buffer":0,
			"byteLength":4072,
			"byteOffset":12216,
			"target":34962
		},
		{
			"buffer":0,
			"byteLength":3600,
			"byteOffset":16288,
			"target":34963
		},
		{
			"buffer":0,
			"byteLength":720,
			"byteOffset":19888,
			"target":34962
		},
		{
			"buffer":0,
			"byteLength":720,
			"byteOffset":20608,
			"target":34962
		},
		{
			"buffer":0,
			"byteLength":480,
			"byteOffset":21328,
			"target":34962
		},
		{
			"buffer":0,
			"byteLength":480,
			"byteOffset":21808,
			"target":34963
		}
	],
	"samplers":[
		{
			"magFilter":9729,
			"minFilter":9987
		}
	],
	"buffers":[
		{
			"byteLength":22288,
			"uri":"BookBridgeOpen.bin"
		}
	]
}
