{
	"asset":{
		"copyright":"Eibriel",
		"generator":"Khronos glTF Blender I/O v4.3.47",
		"version":"2.0"
	},
	"scene":0,
	"scenes":[
		{
			"name":"BookJournalOpen",
			"nodes":[
				0,
				1
			]
		}
	],
	"nodes":[
		{
			"mesh":0,
			"name":"BookJournalOpen_Pages"
		},
		{
			"mesh":1,
			"name":"BookJournalOpen_Cover"
		}
	],
	"materials":[
		{
			"doubleSided":true,
			"name":"material_1",
			"pbrMetallicRoughness":{
				"baseColorTexture":{
					"index":0
				},
				"metallicFactor":0,
				"roughnessFactor":0.9339421987533569
			}
		},
		{
			"doubleSided":true,
			"name":"BookJournal_Cover",
			"pbrMetallicRoughness":{
				"baseColorTexture":{
					"index":1
				},
				"metallicFactor":0,
				"roughnessFactor":0.7629578709602356
			}
		}
	],
	"meshes":[
		{
			"name":"BookJournalOpen_Pages",
			"primitives":[
				{
					"attributes":{
						"POSITION":0,
						"NORMAL":1,
						"TEXCOORD_0":2
					},
					"indices":3,
					"material":0
				}
			]
		},
		{
			"name":"BookJournalOpen_Cover",
			"primitives":[
				{
					"attributes":{
						"POSITION":4,
						"NORMAL":5,
						"TEXCOORD_0":6
					},
					"indices":7,
					"material":1
				}
			]
		}
	],
	"textures":[
		{
			"sampler":0,
			"source":0
		},
		{
			"sampler":0,
			"source":1
		}
	],
	"images":[
		{
			"mimeType":"image/jpeg",
			"name":"BookJournalOpen_Pages",
			"uri":"props_textures/BookJournalOpen_Pages.jpg"
		},
		{
			"mimeType":"image/jpeg",
			"name":"BookJournal_Cover",
			"uri":"props_textures/BookJournal_Cover.jpg"
		}
	],
	"accessors":[
		{
			"bufferView":0,
			"componentType":5126,
			"count":1579,
			"max":[
				0.1347159594297409,
				0.07369755208492279,
				0.11884365975856781
			],
			"min":[
				-0.12299970537424088,
				0.0027921032160520554,
				-0.10554443299770355
			],
			"type":"VEC3"
		},
		{
			"bufferView":1,
			"componentType":5126,
			"count":1579,
			"type":"VEC3"
		},
		{
			"bufferView":2,
			"componentType":5126,
			"count":1579,
			"type":"VEC2"
		},
		{
			"bufferView":3,
			"componentType":5123,
			"count":4308,
			"type":"SCALAR"
		},
		{
			"bufferView":4,
			"componentType":5126,
			"count":442,
			"max":[
				0.1454024463891983,
				0.006897402927279472,
				0.12265446782112122
			],
			"min":[
				-0.1357019990682602,
				0.0004140222445130348,
				-0.10973945260047913
			],
			"type":"VEC3"
		},
		{
			"bufferView":5,
			"componentType":5126,
			"count":442,
			"type":"VEC3"
		},
		{
			"bufferView":6,
			"componentType":5126,
			"count":442,
			"type":"VEC2"
		},
		{
			"bufferView":7,
			"componentType":5123,
			"count":1188,
			"type":"SCALAR"
		}
	],
	"bufferViews":[
		{
			"buffer":0,
			"byteLength":18948,
			"byteOffset":0,
			"target":34962
		},
		{
			"buffer":0,
			"byteLength":18948,
			"byteOffset":18948,
			"target":34962
		},
		{
			"buffer":0,
			"byteLength":12632,
			"byteOffset":37896,
			"target":34962
		},
		{
			"buffer":0,
			"byteLength":8616,
			"byteOffset":50528,
			"target":34963
		},
		{
			"buffer":0,
			"byteLength":5304,
			"byteOffset":59144,
			"target":34962
		},
		{
			"buffer":0,
			"byteLength":5304,
			"byteOffset":64448,
			"target":34962
		},
		{
			"buffer":0,
			"byteLength":3536,
			"byteOffset":69752,
			"target":34962
		},
		{
			"buffer":0,
			"byteLength":2376,
			"byteOffset":73288,
			"target":34963
		}
	],
	"samplers":[
		{
			"magFilter":9729,
			"minFilter":9987
		}
	],
	"buffers":[
		{
			"byteLength":75664,
			"uri":"BookJournalOpen.bin"
		}
	]
}
