{
	"asset":{
		"copyright":"Eibriel",
		"generator":"Khronos glTF Blender I/O v4.3.47",
		"version":"2.0"
	},
	"extensionsUsed":[
		"KHR_materials_specular",
		"KHR_materials_ior"
	],
	"scene":0,
	"scenes":[
		{
			"name":"Brain",
			"nodes":[
				0
			]
		}
	],
	"nodes":[
		{
			"mesh":0,
			"name":"Brain",
			"scale":[
				0.006509830709546804,
				0.006509832572191954,
				0.006509832572191954
			]
		}
	],
	"materials":[
		{
			"doubleSided":true,
			"extensions":{
				"KHR_materials_specular":{
					"specularColorTexture":{
						"index":0
					}
				},
				"KHR_materials_ior":{
					"ior":1000
				}
			},
			"name":"Brain",
			"normalTexture":{
				"index":1,
				"scale":0.20000000298023224
			},
			"pbrMetallicRoughness":{
				"baseColorTexture":{
					"index":2
				},
				"metallicFactor":0,
				"metallicRoughnessTexture":{
					"index":3
				}
			}
		}
	],
	"meshes":[
		{
			"name":"Brain",
			"primitives":[
				{
					"attributes":{
						"POSITION":0,
						"NORMAL":1,
						"TEXCOORD_0":2,
						"TEXCOORD_1":3,
						"TEXCOORD_2":4,
						"TEXCOORD_3":5
					},
					"indices":6,
					"material":0
				}
			]
		}
	],
	"textures":[
		{
			"sampler":0,
			"source":0
		},
		{
			"sampler":0,
			"source":1
		},
		{
			"sampler":0,
			"source":2
		},
		{
			"sampler":0,
			"source":3
		}
	],
	"images":[
		{
			"mimeType":"image/png",
			"name":"Brain_Specular",
			"uri":"props_textures/Brain_Specular.png"
		},
		{
			"mimeType":"image/png",
			"name":"Brain_Normal",
			"uri":"props_textures/Brain_Normal.png"
		},
		{
			"mimeType":"image/png",
			"name":"Brain_Base",
			"uri":"props_textures/Brain_Base.png"
		},
		{
			"mimeType":"image/png",
			"name":"Brain_Roughness",
			"uri":"props_textures/Brain_Roughness.png"
		}
	],
	"accessors":[
		{
			"bufferView":0,
			"componentType":5126,
			"count":2605,
			"max":[
				38.228614807128906,
				63.273590087890625,
				55.25382614135742
			],
			"min":[
				-37.857295989990234,
				-22.190750122070312,
				-43.849571228027344
			],
			"type":"VEC3"
		},
		{
			"bufferView":1,
			"componentType":5126,
			"count":2605,
			"type":"VEC3"
		},
		{
			"bufferView":2,
			"componentType":5126,
			"count":2605,
			"type":"VEC2"
		},
		{
			"bufferView":3,
			"componentType":5126,
			"count":2605,
			"type":"VEC2"
		},
		{
			"bufferView":4,
			"componentType":5126,
			"count":2605,
			"type":"VEC2"
		},
		{
			"bufferView":5,
			"componentType":5126,
			"count":2605,
			"type":"VEC2"
		},
		{
			"bufferView":6,
			"componentType":5123,
			"count":14550,
			"type":"SCALAR"
		}
	],
	"bufferViews":[
		{
			"buffer":0,
			"byteLength":31260,
			"byteOffset":0,
			"target":34962
		},
		{
			"buffer":0,
			"byteLength":31260,
			"byteOffset":31260,
			"target":34962
		},
		{
			"buffer":0,
			"byteLength":20840,
			"byteOffset":62520,
			"target":34962
		},
		{
			"buffer":0,
			"byteLength":20840,
			"byteOffset":83360,
			"target":34962
		},
		{
			"buffer":0,
			"byteLength":20840,
			"byteOffset":104200,
			"target":34962
		},
		{
			"buffer":0,
			"byteLength":20840,
			"byteOffset":125040,
			"target":34962
		},
		{
			"buffer":0,
			"byteLength":29100,
			"byteOffset":145880,
			"target":34963
		}
	],
	"samplers":[
		{
			"magFilter":9729,
			"minFilter":9987
		}
	],
	"buffers":[
		{
			"byteLength":174980,
			"uri":"Brain.bin"
		}
	]
}
