{
	"asset":{
		"copyright":"Eibriel",
		"generator":"Khronos glTF Blender I/O v4.3.47",
		"version":"2.0"
	},
	"scene":0,
	"scenes":[
		{
			"name":"BrainTube",
			"nodes":[
				0
			]
		}
	],
	"nodes":[
		{
			"mesh":0,
			"name":"BrainTube"
		}
	],
	"materials":[
		{
			"doubleSided":true,
			"name":"Battery",
			"normalTexture":{
				"index":0,
				"scale":0.10000000149011612
			},
			"pbrMetallicRoughness":{
				"baseColorTexture":{
					"index":1
				},
				"metallicRoughnessTexture":{
					"index":2
				}
			}
		},
		{
			"doubleSided":true,
			"name":"BrainSphere",
			"pbrMetallicRoughness":{
				"baseColorFactor":[
					0.800000011920929,
					0.800000011920929,
					0.800000011920929,
					1
				],
				"metallicFactor":0,
				"roughnessFactor":0.5
			}
		}
	],
	"meshes":[
		{
			"name":"Battery001_Battery_0",
			"primitives":[
				{
					"attributes":{
						"POSITION":0,
						"NORMAL":1,
						"TEXCOORD_0":2
					},
					"indices":3,
					"material":0
				},
				{
					"attributes":{
						"POSITION":4,
						"NORMAL":5,
						"TEXCOORD_0":6
					},
					"indices":7,
					"material":1
				}
			]
		}
	],
	"textures":[
		{
			"sampler":0,
			"source":0
		},
		{
			"sampler":0,
			"source":1
		},
		{
			"sampler":0,
			"source":2
		}
	],
	"images":[
		{
			"mimeType":"image/png",
			"name":"Battery_Normal",
			"uri":"props_textures/Battery_Normal.png"
		},
		{
			"mimeType":"image/png",
			"name":"Battery_Base",
			"uri":"props_textures/Battery_Base.png"
		},
		{
			"mimeType":"image/png",
			"name":"Battery_MR",
			"uri":"props_textures/Battery_MR.png"
		}
	],
	"accessors":[
		{
			"bufferView":0,
			"componentType":5126,
			"count":2054,
			"max":[
				0.021170735359191895,
				0.020678164437413216,
				0.04425027593970299
			],
			"min":[
				-0.021081553772091866,
				-0.020464133471250534,
				-0.06220243126153946
			],
			"type":"VEC3"
		},
		{
			"bufferView":1,
			"componentType":5126,
			"count":2054,
			"type":"VEC3"
		},
		{
			"bufferView":2,
			"componentType":5126,
			"count":2054,
			"type":"VEC2"
		},
		{
			"bufferView":3,
			"componentType":5123,
			"count":7764,
			"type":"SCALAR"
		},
		{
			"bufferView":4,
			"componentType":5126,
			"count":151,
			"max":[
				0.019631005823612213,
				0.019488655030727386,
				0.010662689805030823
			],
			"min":[
				-0.019631007686257362,
				-0.019773364067077637,
				-0.02859932743012905
			],
			"type":"VEC3"
		},
		{
			"bufferView":5,
			"componentType":5126,
			"count":151,
			"type":"VEC3"
		},
		{
			"bufferView":6,
			"componentType":5126,
			"count":151,
			"type":"VEC2"
		},
		{
			"bufferView":7,
			"componentType":5123,
			"count":672,
			"type":"SCALAR"
		}
	],
	"bufferViews":[
		{
			"buffer":0,
			"byteLength":24648,
			"byteOffset":0,
			"target":34962
		},
		{
			"buffer":0,
			"byteLength":24648,
			"byteOffset":24648,
			"target":34962
		},
		{
			"buffer":0,
			"byteLength":16432,
			"byteOffset":49296,
			"target":34962
		},
		{
			"buffer":0,
			"byteLength":15528,
			"byteOffset":65728,
			"target":34963
		},
		{
			"buffer":0,
			"byteLength":1812,
			"byteOffset":81256,
			"target":34962
		},
		{
			"buffer":0,
			"byteLength":1812,
			"byteOffset":83068,
			"target":34962
		},
		{
			"buffer":0,
			"byteLength":1208,
			"byteOffset":84880,
			"target":34962
		},
		{
			"buffer":0,
			"byteLength":1344,
			"byteOffset":86088,
			"target":34963
		}
	],
	"samplers":[
		{
			"magFilter":9729,
			"minFilter":9987
		}
	],
	"buffers":[
		{
			"byteLength":87432,
			"uri":"BrainTube.bin"
		}
	]
}
