{
	"asset":{
		"copyright":"Eibriel",
		"generator":"Khronos glTF Blender I/O v4.3.47",
		"version":"2.0"
	},
	"scene":0,
	"scenes":[
		{
			"name":"CabezaFemenina",
			"nodes":[
				2
			]
		}
	],
	"nodes":[
		{
			"mesh":0,
			"name":"Object_2"
		},
		{
			"children":[
				0
			],
			"name":"BUSTO_FEMENINO_PROYECTO.obj.cleaner.materialmerger.gles"
		},
		{
			"children":[
				1
			],
			"name":"Sketchfab_model",
			"rotation":[
				-0.70710688829422,
				0,
				0,
				0.7071066498756409
			]
		}
	],
	"materials":[
		{
			"name":"BUSTO_FEMENINO_26K",
			"normalTexture":{
				"index":0
			},
			"pbrMetallicRoughness":{
				"baseColorTexture":{
					"index":1
				},
				"metallicFactor":0.08683247119188309,
				"roughnessFactor":0.800000011920929
			}
		}
	],
	"meshes":[
		{
			"name":"Object_0",
			"primitives":[
				{
					"attributes":{
						"POSITION":0,
						"NORMAL":1,
						"TEXCOORD_0":2
					},
					"indices":3,
					"material":0
				}
			]
		}
	],
	"textures":[
		{
			"sampler":0,
			"source":0
		},
		{
			"sampler":0,
			"source":1
		}
	],
	"images":[
		{
			"mimeType":"image/png",
			"name":"Image_1",
			"uri":"props_textures/Image_1.png"
		},
		{
			"mimeType":"image/png",
			"name":"CabezaFemenina",
			"uri":"props_textures/CabezaFemenina.png"
		}
	],
	"accessors":[
		{
			"bufferView":0,
			"componentType":5126,
			"count":2884,
			"max":[
				0.05797453597187996,
				0.05908822640776634,
				0.1893903762102127
			],
			"min":[
				-0.055939286947250366,
				-0.08169045299291611,
				0.007466464769095182
			],
			"type":"VEC3"
		},
		{
			"bufferView":1,
			"componentType":5126,
			"count":2884,
			"type":"VEC3"
		},
		{
			"bufferView":2,
			"componentType":5126,
			"count":2884,
			"type":"VEC2"
		},
		{
			"bufferView":3,
			"componentType":5123,
			"count":16041,
			"type":"SCALAR"
		}
	],
	"bufferViews":[
		{
			"buffer":0,
			"byteLength":34608,
			"byteOffset":0,
			"target":34962
		},
		{
			"buffer":0,
			"byteLength":34608,
			"byteOffset":34608,
			"target":34962
		},
		{
			"buffer":0,
			"byteLength":23072,
			"byteOffset":69216,
			"target":34962
		},
		{
			"buffer":0,
			"byteLength":32082,
			"byteOffset":92288,
			"target":34963
		}
	],
	"samplers":[
		{
			"magFilter":9729,
			"minFilter":9987
		}
	],
	"buffers":[
		{
			"byteLength":124372,
			"uri":"CabezaFemenina.bin"
		}
	]
}
