{
	"asset":{
		"copyright":"Eibriel",
		"generator":"Khronos glTF Blender I/O v4.3.47",
		"version":"2.0"
	},
	"extensionsUsed":[
		"KHR_materials_specular"
	],
	"scene":0,
	"scenes":[
		{
			"name":"CSPRoboticsLogo",
			"nodes":[
				0,
				1
			]
		}
	],
	"nodes":[
		{
			"mesh":0,
			"name":"Logo"
		},
		{
			"mesh":1,
			"name":"Logo_Shadow",
			"translation":[
				0.012053143233060837,
				0.23744769394397736,
				-0.009789325296878815
			]
		}
	],
	"materials":[
		{
			"doubleSided":true,
			"extensions":{
				"KHR_materials_specular":{
					"specularFactor":0.07692307233810425
				}
			},
			"name":"Logo",
			"pbrMetallicRoughness":{
				"baseColorFactor":[
					0.003984664101153612,
					0.003984664101153612,
					0.003984664101153612,
					1
				],
				"roughnessFactor":0.692307710647583
			}
		},
		{
			"alphaMode":"BLEND",
			"doubleSided":true,
			"extensions":{
				"KHR_materials_specular":{
					"specularFactor":0
				}
			},
			"name":"CSPLogo_AO",
			"pbrMetallicRoughness":{
				"baseColorFactor":[
					0,
					0,
					0,
					1
				],
				"baseColorTexture":{
					"index":0
				},
				"metallicFactor":0
			}
		}
	],
	"meshes":[
		{
			"name":"B\u00e9zierCurve.004",
			"primitives":[
				{
					"attributes":{
						"POSITION":0,
						"NORMAL":1,
						"TEXCOORD_0":2
					},
					"indices":3,
					"material":0
				}
			]
		},
		{
			"name":"Plane.004",
			"primitives":[
				{
					"attributes":{
						"POSITION":4,
						"NORMAL":5,
						"TEXCOORD_0":6
					},
					"indices":7,
					"material":1
				}
			]
		}
	],
	"textures":[
		{
			"sampler":0,
			"source":0
		}
	],
	"images":[
		{
			"mimeType":"image/png",
			"name":"CSPLogo_AO",
			"uri":"props_textures/CSPLogo_AO.png"
		}
	],
	"accessors":[
		{
			"bufferView":0,
			"componentType":5126,
			"count":2372,
			"max":[
				0.23271505534648895,
				0.6329265832901001,
				0.0060488139279186726
			],
			"min":[
				-0.19468741118907928,
				-0.027118176221847534,
				-0.007253233343362808
			],
			"type":"VEC3"
		},
		{
			"bufferView":1,
			"componentType":5126,
			"count":2372,
			"type":"VEC3"
		},
		{
			"bufferView":2,
			"componentType":5126,
			"count":2372,
			"type":"VEC2"
		},
		{
			"bufferView":3,
			"componentType":5123,
			"count":6885,
			"type":"SCALAR"
		},
		{
			"bufferView":4,
			"componentType":5126,
			"count":4,
			"max":[
				0.3347381353378296,
				0.4973621368408203,
				-3.50850832830929e-08
			],
			"min":[
				-0.34528976678848267,
				-0.43405187129974365,
				-7.56179119321132e-08
			],
			"type":"VEC3"
		},
		{
			"bufferView":5,
			"componentType":5126,
			"count":4,
			"type":"VEC3"
		},
		{
			"bufferView":6,
			"componentType":5126,
			"count":4,
			"type":"VEC2"
		},
		{
			"bufferView":7,
			"componentType":5123,
			"count":6,
			"type":"SCALAR"
		}
	],
	"bufferViews":[
		{
			"buffer":0,
			"byteLength":28464,
			"byteOffset":0,
			"target":34962
		},
		{
			"buffer":0,
			"byteLength":28464,
			"byteOffset":28464,
			"target":34962
		},
		{
			"buffer":0,
			"byteLength":18976,
			"byteOffset":56928,
			"target":34962
		},
		{
			"buffer":0,
			"byteLength":13770,
			"byteOffset":75904,
			"target":34963
		},
		{
			"buffer":0,
			"byteLength":48,
			"byteOffset":89676,
			"target":34962
		},
		{
			"buffer":0,
			"byteLength":48,
			"byteOffset":89724,
			"target":34962
		},
		{
			"buffer":0,
			"byteLength":32,
			"byteOffset":89772,
			"target":34962
		},
		{
			"buffer":0,
			"byteLength":12,
			"byteOffset":89804,
			"target":34963
		}
	],
	"samplers":[
		{
			"magFilter":9729,
			"minFilter":9987
		}
	],
	"buffers":[
		{
			"byteLength":89816,
			"uri":"CSPRoboticsLogo.bin"
		}
	]
}
