{
	"asset":{
		"copyright":"Eibriel",
		"generator":"Khronos glTF Blender I/O v4.3.47",
		"version":"2.0"
	},
	"extensionsUsed":[
		"KHR_materials_specular"
	],
	"scene":0,
	"scenes":[
		{
			"name":"FemaleAnatomy",
			"nodes":[
				3
			]
		}
	],
	"nodes":[
		{
			"mesh":0,
			"name":"body_scalony.003_0"
		},
		{
			"children":[
				0
			],
			"name":"body_scalony.003",
			"translation":[
				3.9999998989515007e-05,
				-0.0006699999794363976,
				0.023660000413656235
			]
		},
		{
			"children":[
				1
			],
			"name":"Root"
		},
		{
			"children":[
				2
			],
			"name":"FemaleAnatomy",
			"rotation":[
				-0.70710688829422,
				0,
				0,
				0.7071066498756409
			]
		}
	],
	"materials":[
		{
			"doubleSided":true,
			"extensions":{
				"KHR_materials_specular":{
					"specularFactor":0
				}
			},
			"name":"Material.001",
			"pbrMetallicRoughness":{
				"baseColorTexture":{
					"index":0
				},
				"metallicFactor":0
			}
		}
	],
	"meshes":[
		{
			"name":"body_scalony.003_0",
			"primitives":[
				{
					"attributes":{
						"POSITION":0,
						"NORMAL":1,
						"TEXCOORD_0":2
					},
					"indices":3,
					"material":0
				}
			]
		}
	],
	"textures":[
		{
			"sampler":0,
			"source":0
		}
	],
	"images":[
		{
			"mimeType":"image/png",
			"name":"FemaleAnatomy",
			"uri":"props_textures/FemaleAnatomy.png"
		}
	],
	"accessors":[
		{
			"bufferView":0,
			"componentType":5126,
			"count":2253,
			"max":[
				0.10282441228628159,
				0.05040644109249115,
				0.4749521315097809
			],
			"min":[
				-0.10282441228628159,
				-0.03680361062288284,
				-0.02486988715827465
			],
			"type":"VEC3"
		},
		{
			"bufferView":1,
			"componentType":5126,
			"count":2253,
			"type":"VEC3"
		},
		{
			"bufferView":2,
			"componentType":5126,
			"count":2253,
			"type":"VEC2"
		},
		{
			"bufferView":3,
			"componentType":5123,
			"count":9378,
			"type":"SCALAR"
		}
	],
	"bufferViews":[
		{
			"buffer":0,
			"byteLength":27036,
			"byteOffset":0,
			"target":34962
		},
		{
			"buffer":0,
			"byteLength":27036,
			"byteOffset":27036,
			"target":34962
		},
		{
			"buffer":0,
			"byteLength":18024,
			"byteOffset":54072,
			"target":34962
		},
		{
			"buffer":0,
			"byteLength":18756,
			"byteOffset":72096,
			"target":34963
		}
	],
	"samplers":[
		{
			"magFilter":9729,
			"minFilter":9987
		}
	],
	"buffers":[
		{
			"byteLength":90852,
			"uri":"FemaleAnatomy.bin"
		}
	]
}
