{
	"asset":{
		"copyright":"Eibriel",
		"generator":"Khronos glTF Blender I/O v4.3.47",
		"version":"2.0"
	},
	"extensionsUsed":[
		"KHR_materials_clearcoat",
		"KHR_materials_transmission",
		"KHR_materials_specular"
	],
	"scene":0,
	"scenes":[
		{
			"name":"GlassDoor",
			"nodes":[
				0
			]
		}
	],
	"nodes":[
		{
			"mesh":0,
			"name":"GlassDoor"
		}
	],
	"materials":[
		{
			"doubleSided":true,
			"extensions":{
				"KHR_materials_clearcoat":{
					"clearcoatFactor":1,
					"clearcoatRoughnessFactor":0.03999999910593033
				},
				"KHR_materials_transmission":{
					"transmissionFactor":0.7672433853149414
				},
				"KHR_materials_specular":{
					"specularFactor":0.2999999523162842
				}
			},
			"name":"GlassDoor_Glass",
			"pbrMetallicRoughness":{
				"baseColorFactor":[
					0,
					0,
					0,
					1
				],
				"metallicFactor":0,
				"roughnessFactor":0.15454545617103577
			}
		},
		{
			"doubleSided":true,
			"extensions":{
				"KHR_materials_specular":{
					"specularFactor":0.7090909481048584
				}
			},
			"name":"GlassDoor_Metal",
			"pbrMetallicRoughness":{
				"baseColorFactor":[
					0.17916665971279144,
					0.1663670837879181,
					0.13124261796474457,
					1
				],
				"roughnessFactor":0.07410363107919693
			}
		}
	],
	"meshes":[
		{
			"name":"Glass Door.004_Glass_0",
			"primitives":[
				{
					"attributes":{
						"POSITION":0,
						"NORMAL":1,
						"TEXCOORD_0":2
					},
					"indices":3,
					"material":0
				},
				{
					"attributes":{
						"POSITION":4,
						"NORMAL":5,
						"TEXCOORD_0":6
					},
					"indices":7,
					"material":1
				}
			]
		}
	],
	"accessors":[
		{
			"bufferView":0,
			"componentType":5126,
			"count":188,
			"max":[
				0.9934210777282715,
				2.619112491607666,
				0.004491537809371948
			],
			"min":[
				-0.9920278787612915,
				0.012573422864079475,
				-0.004810938145965338
			],
			"type":"VEC3"
		},
		{
			"bufferView":1,
			"componentType":5126,
			"count":188,
			"type":"VEC3"
		},
		{
			"bufferView":2,
			"componentType":5126,
			"count":188,
			"type":"VEC2"
		},
		{
			"bufferView":3,
			"componentType":5123,
			"count":258,
			"type":"SCALAR"
		},
		{
			"bufferView":4,
			"componentType":5126,
			"count":7727,
			"max":[
				1.0016875267028809,
				2.656393527984619,
				0.09185612201690674
			],
			"min":[
				-1.0002933740615845,
				0.0011861263774335384,
				-0.08999352157115936
			],
			"type":"VEC3"
		},
		{
			"bufferView":5,
			"componentType":5126,
			"count":7727,
			"type":"VEC3"
		},
		{
			"bufferView":6,
			"componentType":5126,
			"count":7727,
			"type":"VEC2"
		},
		{
			"bufferView":7,
			"componentType":5123,
			"count":26604,
			"type":"SCALAR"
		}
	],
	"bufferViews":[
		{
			"buffer":0,
			"byteLength":2256,
			"byteOffset":0,
			"target":34962
		},
		{
			"buffer":0,
			"byteLength":2256,
			"byteOffset":2256,
			"target":34962
		},
		{
			"buffer":0,
			"byteLength":1504,
			"byteOffset":4512,
			"target":34962
		},
		{
			"buffer":0,
			"byteLength":516,
			"byteOffset":6016,
			"target":34963
		},
		{
			"buffer":0,
			"byteLength":92724,
			"byteOffset":6532,
			"target":34962
		},
		{
			"buffer":0,
			"byteLength":92724,
			"byteOffset":99256,
			"target":34962
		},
		{
			"buffer":0,
			"byteLength":61816,
			"byteOffset":191980,
			"target":34962
		},
		{
			"buffer":0,
			"byteLength":53208,
			"byteOffset":253796,
			"target":34963
		}
	],
	"buffers":[
		{
			"byteLength":307004,
			"uri":"GlassDoor.bin"
		}
	]
}
