{
	"asset":{
		"copyright":"Eibriel",
		"generator":"Khronos glTF Blender I/O v4.3.47",
		"version":"2.0"
	},
	"extensionsUsed":[
		"KHR_materials_specular"
	],
	"scene":0,
	"scenes":[
		{
			"name":"HardHat",
			"nodes":[
				0
			]
		}
	],
	"nodes":[
		{
			"mesh":0,
			"name":"HardHat"
		}
	],
	"materials":[
		{
			"doubleSided":true,
			"extensions":{
				"KHR_materials_specular":{
					"specularTexture":{
						"index":0
					}
				}
			},
			"name":"blinn2SG",
			"normalTexture":{
				"index":1,
				"scale":0.10000000149011612
			},
			"pbrMetallicRoughness":{
				"baseColorTexture":{
					"index":2
				},
				"metallicRoughnessTexture":{
					"index":3
				}
			}
		}
	],
	"meshes":[
		{
			"name":"Object_1.012",
			"primitives":[
				{
					"attributes":{
						"POSITION":0,
						"NORMAL":1,
						"TEXCOORD_0":2
					},
					"indices":3,
					"material":0
				}
			]
		}
	],
	"textures":[
		{
			"sampler":0,
			"source":0
		},
		{
			"sampler":0,
			"source":1
		},
		{
			"sampler":0,
			"source":2
		},
		{
			"sampler":0,
			"source":3
		}
	],
	"images":[
		{
			"mimeType":"image/png",
			"name":"HardHat_Specular",
			"uri":"props_textures/HardHat_Specular.png"
		},
		{
			"mimeType":"image/png",
			"name":"HardHat_Normal",
			"uri":"props_textures/HardHat_Normal.png"
		},
		{
			"mimeType":"image/png",
			"name":"HardHat_Base",
			"uri":"props_textures/HardHat_Base.png"
		},
		{
			"mimeType":"image/png",
			"name":"HardHat_MR",
			"uri":"props_textures/HardHat_MR.png"
		}
	],
	"accessors":[
		{
			"bufferView":0,
			"componentType":5126,
			"count":1617,
			"max":[
				0.21527904272079468,
				0.2581406831741333,
				0.29445692896842957
			],
			"min":[
				-0.21527905762195587,
				-0.008227333426475525,
				-0.2842831611633301
			],
			"type":"VEC3"
		},
		{
			"bufferView":1,
			"componentType":5126,
			"count":1617,
			"type":"VEC3"
		},
		{
			"bufferView":2,
			"componentType":5126,
			"count":1617,
			"type":"VEC2"
		},
		{
			"bufferView":3,
			"componentType":5123,
			"count":7956,
			"type":"SCALAR"
		}
	],
	"bufferViews":[
		{
			"buffer":0,
			"byteLength":19404,
			"byteOffset":0,
			"target":34962
		},
		{
			"buffer":0,
			"byteLength":19404,
			"byteOffset":19404,
			"target":34962
		},
		{
			"buffer":0,
			"byteLength":12936,
			"byteOffset":38808,
			"target":34962
		},
		{
			"buffer":0,
			"byteLength":15912,
			"byteOffset":51744,
			"target":34963
		}
	],
	"samplers":[
		{
			"magFilter":9729,
			"minFilter":9987
		}
	],
	"buffers":[
		{
			"byteLength":67656,
			"uri":"HardHat.bin"
		}
	]
}
