{
	"asset":{
		"copyright":"Eibriel",
		"generator":"Khronos glTF Blender I/O v4.3.47",
		"version":"2.0"
	},
	"scene":0,
	"scenes":[
		{
			"name":"HatCowboy",
			"nodes":[
				0
			]
		}
	],
	"nodes":[
		{
			"mesh":0,
			"name":"HatCowboy"
		}
	],
	"materials":[
		{
			"doubleSided":true,
			"name":"Hat1",
			"normalTexture":{
				"index":0,
				"scale":0.10000000149011612
			},
			"pbrMetallicRoughness":{
				"baseColorTexture":{
					"index":1
				},
				"metallicRoughnessTexture":{
					"index":2
				}
			}
		}
	],
	"meshes":[
		{
			"name":"defaultMaterial.002",
			"primitives":[
				{
					"attributes":{
						"POSITION":0,
						"NORMAL":1,
						"TEXCOORD_0":2
					},
					"indices":3,
					"material":0
				}
			]
		}
	],
	"textures":[
		{
			"sampler":0,
			"source":0
		},
		{
			"sampler":0,
			"source":1
		},
		{
			"sampler":0,
			"source":2
		}
	],
	"images":[
		{
			"mimeType":"image/png",
			"name":"HatCowboy_Normal",
			"uri":"props_textures/HatCowboy_Normal.png"
		},
		{
			"mimeType":"image/jpeg",
			"name":"HatCowboy_Base",
			"uri":"props_textures/HatCowboy_Base.jpg"
		},
		{
			"mimeType":"image/png",
			"name":"HatCowboy_MR",
			"uri":"props_textures/HatCowboy_MR.png"
		}
	],
	"accessors":[
		{
			"bufferView":0,
			"componentType":5126,
			"count":1409,
			"max":[
				0.10692141950130463,
				0.0666322410106659,
				0.1335604041814804
			],
			"min":[
				-0.10692141950130463,
				-0.010325374081730843,
				-0.1335604041814804
			],
			"type":"VEC3"
		},
		{
			"bufferView":1,
			"componentType":5126,
			"count":1409,
			"type":"VEC3"
		},
		{
			"bufferView":2,
			"componentType":5126,
			"count":1409,
			"type":"VEC2"
		},
		{
			"bufferView":3,
			"componentType":5123,
			"count":7392,
			"type":"SCALAR"
		}
	],
	"bufferViews":[
		{
			"buffer":0,
			"byteLength":16908,
			"byteOffset":0,
			"target":34962
		},
		{
			"buffer":0,
			"byteLength":16908,
			"byteOffset":16908,
			"target":34962
		},
		{
			"buffer":0,
			"byteLength":11272,
			"byteOffset":33816,
			"target":34962
		},
		{
			"buffer":0,
			"byteLength":14784,
			"byteOffset":45088,
			"target":34963
		}
	],
	"samplers":[
		{
			"magFilter":9729,
			"minFilter":9987
		}
	],
	"buffers":[
		{
			"byteLength":59872,
			"uri":"HatCowboy.bin"
		}
	]
}
