{
	"asset":{
		"copyright":"Eibriel",
		"generator":"Khronos glTF Blender I/O v4.3.47",
		"version":"2.0"
	},
	"extensionsUsed":[
		"KHR_materials_specular"
	],
	"scene":0,
	"scenes":[
		{
			"name":"HatStripes",
			"nodes":[
				0
			]
		}
	],
	"nodes":[
		{
			"mesh":0,
			"name":"HatStripes"
		}
	],
	"materials":[
		{
			"doubleSided":true,
			"extensions":{
				"KHR_materials_specular":{
					"specularFactor":0.1090909093618393
				}
			},
			"name":"aiStandardSurface1",
			"normalTexture":{
				"index":0,
				"scale":0.10000000149011612
			},
			"pbrMetallicRoughness":{
				"baseColorTexture":{
					"index":1
				},
				"metallicFactor":0
			}
		}
	],
	"meshes":[
		{
			"name":"SunHat_aiStandardSurface1_0",
			"primitives":[
				{
					"attributes":{
						"POSITION":0,
						"NORMAL":1,
						"TEXCOORD_0":2
					},
					"indices":3,
					"material":0
				}
			]
		}
	],
	"textures":[
		{
			"sampler":0,
			"source":0
		},
		{
			"sampler":0,
			"source":1
		}
	],
	"images":[
		{
			"mimeType":"image/png",
			"name":"HatStripes_Normal",
			"uri":"props_textures/HatStripes_Normal.png"
		},
		{
			"mimeType":"image/jpeg",
			"name":"HatStripes_Base",
			"uri":"props_textures/HatStripes_Base.jpg"
		}
	],
	"accessors":[
		{
			"bufferView":0,
			"componentType":5126,
			"count":28994,
			"max":[
				0.2005992978811264,
				0.12215584516525269,
				0.21140776574611664
			],
			"min":[
				-0.20059926807880402,
				0.009059250354766846,
				-0.21092110872268677
			],
			"type":"VEC3"
		},
		{
			"bufferView":1,
			"componentType":5126,
			"count":28994,
			"type":"VEC3"
		},
		{
			"bufferView":2,
			"componentType":5126,
			"count":28994,
			"type":"VEC2"
		},
		{
			"bufferView":3,
			"componentType":5123,
			"count":170496,
			"type":"SCALAR"
		}
	],
	"bufferViews":[
		{
			"buffer":0,
			"byteLength":347928,
			"byteOffset":0,
			"target":34962
		},
		{
			"buffer":0,
			"byteLength":347928,
			"byteOffset":347928,
			"target":34962
		},
		{
			"buffer":0,
			"byteLength":231952,
			"byteOffset":695856,
			"target":34962
		},
		{
			"buffer":0,
			"byteLength":340992,
			"byteOffset":927808,
			"target":34963
		}
	],
	"samplers":[
		{
			"magFilter":9729,
			"minFilter":9987
		}
	],
	"buffers":[
		{
			"byteLength":1268800,
			"uri":"HatStripes.bin"
		}
	]
}
