{
	"asset":{
		"copyright":"Eibriel",
		"generator":"Khronos glTF Blender I/O v4.3.47",
		"version":"2.0"
	},
	"extensionsUsed":[
		"KHR_materials_specular",
		"KHR_materials_ior"
	],
	"scene":0,
	"scenes":[
		{
			"name":"Keychaing",
			"nodes":[
				0
			]
		}
	],
	"nodes":[
		{
			"mesh":0,
			"name":"robot_keychain"
		}
	],
	"materials":[
		{
			"doubleSided":true,
			"extensions":{
				"KHR_materials_specular":{
					"specularFactor":0.03636360168457031
				},
				"KHR_materials_ior":{
					"ior":1.4500000476837158
				}
			},
			"name":"Robot_Hinges.001",
			"pbrMetallicRoughness":{
				"baseColorFactor":[
					0.24140211939811707,
					0.06719905883073807,
					0.002356688492000103,
					1
				],
				"roughnessFactor":0.4363636374473572
			}
		},
		{
			"doubleSided":true,
			"extensions":{
				"KHR_materials_specular":{
					"specularFactor":0
				},
				"KHR_materials_ior":{
					"ior":1.4500000476837158
				}
			},
			"name":"Robot_face.001",
			"pbrMetallicRoughness":{
				"baseColorFactor":[
					0.005518000107258558,
					0.004569000098854303,
					0.0036700000055134296,
					1
				],
				"roughnessFactor":0.6772723197937012
			}
		},
		{
			"doubleSided":true,
			"extensions":{
				"KHR_materials_specular":{
					"specularFactor":0.2181817889213562
				}
			},
			"name":"Keychain",
			"pbrMetallicRoughness":{
				"baseColorFactor":[
					0.8006867170333862,
					0.37240347266197205,
					0.025052793323993683,
					1
				],
				"roughnessFactor":0.668181836605072
			}
		}
	],
	"meshes":[
		{
			"name":"Cylinder.001",
			"primitives":[
				{
					"attributes":{
						"POSITION":0,
						"NORMAL":1,
						"TEXCOORD_0":2,
						"TEXCOORD_1":3
					},
					"indices":4,
					"material":0
				},
				{
					"attributes":{
						"POSITION":5,
						"NORMAL":6,
						"TEXCOORD_0":7,
						"TEXCOORD_1":8
					},
					"indices":9,
					"material":1
				},
				{
					"attributes":{
						"POSITION":10,
						"NORMAL":11,
						"TEXCOORD_0":12,
						"TEXCOORD_1":13
					},
					"indices":14,
					"material":2
				}
			]
		}
	],
	"accessors":[
		{
			"bufferView":0,
			"componentType":5126,
			"count":488,
			"max":[
				0.025024596601724625,
				0.10611362010240555,
				0.02957063540816307
			],
			"min":[
				-0.014010087586939335,
				0.005229589994996786,
				-0.0031431468669325113
			],
			"type":"VEC3"
		},
		{
			"bufferView":1,
			"componentType":5126,
			"count":488,
			"type":"VEC3"
		},
		{
			"bufferView":2,
			"componentType":5126,
			"count":488,
			"type":"VEC2"
		},
		{
			"bufferView":3,
			"componentType":5126,
			"count":488,
			"type":"VEC2"
		},
		{
			"bufferView":4,
			"componentType":5123,
			"count":1710,
			"type":"SCALAR"
		},
		{
			"bufferView":5,
			"componentType":5126,
			"count":487,
			"max":[
				0.02304845303297043,
				0.07019924372434616,
				0.028766153380274773
			],
			"min":[
				-0.023653417825698853,
				-2.96765829261858e-05,
				-0.0305006206035614
			],
			"type":"VEC3"
		},
		{
			"bufferView":6,
			"componentType":5126,
			"count":487,
			"type":"VEC3"
		},
		{
			"bufferView":7,
			"componentType":5126,
			"count":487,
			"type":"VEC2"
		},
		{
			"bufferView":8,
			"componentType":5126,
			"count":487,
			"type":"VEC2"
		},
		{
			"bufferView":9,
			"componentType":5123,
			"count":2544,
			"type":"SCALAR"
		},
		{
			"bufferView":10,
			"componentType":5126,
			"count":3588,
			"max":[
				0.024439683184027672,
				0.1492367386817932,
				0.00520154507830739
			],
			"min":[
				-0.018214665353298187,
				0.0670328438282013,
				-0.005974613130092621
			],
			"type":"VEC3"
		},
		{
			"bufferView":11,
			"componentType":5126,
			"count":3588,
			"type":"VEC3"
		},
		{
			"bufferView":12,
			"componentType":5126,
			"count":3588,
			"type":"VEC2"
		},
		{
			"bufferView":13,
			"componentType":5126,
			"count":3588,
			"type":"VEC2"
		},
		{
			"bufferView":14,
			"componentType":5123,
			"count":18552,
			"type":"SCALAR"
		}
	],
	"bufferViews":[
		{
			"buffer":0,
			"byteLength":5856,
			"byteOffset":0,
			"target":34962
		},
		{
			"buffer":0,
			"byteLength":5856,
			"byteOffset":5856,
			"target":34962
		},
		{
			"buffer":0,
			"byteLength":3904,
			"byteOffset":11712,
			"target":34962
		},
		{
			"buffer":0,
			"byteLength":3904,
			"byteOffset":15616,
			"target":34962
		},
		{
			"buffer":0,
			"byteLength":3420,
			"byteOffset":19520,
			"target":34963
		},
		{
			"buffer":0,
			"byteLength":5844,
			"byteOffset":22940,
			"target":34962
		},
		{
			"buffer":0,
			"byteLength":5844,
			"byteOffset":28784,
			"target":34962
		},
		{
			"buffer":0,
			"byteLength":3896,
			"byteOffset":34628,
			"target":34962
		},
		{
			"buffer":0,
			"byteLength":3896,
			"byteOffset":38524,
			"target":34962
		},
		{
			"buffer":0,
			"byteLength":5088,
			"byteOffset":42420,
			"target":34963
		},
		{
			"buffer":0,
			"byteLength":43056,
			"byteOffset":47508,
			"target":34962
		},
		{
			"buffer":0,
			"byteLength":43056,
			"byteOffset":90564,
			"target":34962
		},
		{
			"buffer":0,
			"byteLength":28704,
			"byteOffset":133620,
			"target":34962
		},
		{
			"buffer":0,
			"byteLength":28704,
			"byteOffset":162324,
			"target":34962
		},
		{
			"buffer":0,
			"byteLength":37104,
			"byteOffset":191028,
			"target":34963
		}
	],
	"buffers":[
		{
			"byteLength":228132,
			"uri":"Keychain.bin"
		}
	]
}
