{
	"asset":{
		"copyright":"Eibriel",
		"generator":"Khronos glTF Blender I/O v4.3.47",
		"version":"2.0"
	},
	"extensionsUsed":[
		"KHR_materials_specular"
	],
	"scene":0,
	"scenes":[
		{
			"name":"LobbyChair",
			"nodes":[
				0
			]
		}
	],
	"nodes":[
		{
			"mesh":0,
			"name":"armchair.002"
		}
	],
	"materials":[
		{
			"doubleSided":true,
			"extensions":{
				"KHR_materials_specular":{
					"specularTexture":{
						"index":0
					}
				}
			},
			"name":"armchair",
			"normalTexture":{
				"index":1,
				"scale":0.30000001192092896
			},
			"pbrMetallicRoughness":{
				"baseColorTexture":{
					"index":2
				},
				"metallicRoughnessTexture":{
					"index":3
				}
			}
		}
	],
	"meshes":[
		{
			"name":"Mesh.001",
			"primitives":[
				{
					"attributes":{
						"POSITION":0,
						"NORMAL":1,
						"TEXCOORD_0":2,
						"TEXCOORD_1":3
					},
					"indices":4,
					"material":0
				}
			]
		}
	],
	"textures":[
		{
			"sampler":0,
			"source":0
		},
		{
			"sampler":0,
			"source":1
		},
		{
			"sampler":0,
			"source":2
		},
		{
			"sampler":0,
			"source":3
		}
	],
	"images":[
		{
			"mimeType":"image/png",
			"name":"armchair_Metallic",
			"uri":"props_textures/armchair_Metallic.png"
		},
		{
			"mimeType":"image/png",
			"name":"armchair_Normal",
			"uri":"props_textures/armchair_Normal.png"
		},
		{
			"mimeType":"image/png",
			"name":"armchair_Albedo",
			"uri":"props_textures/armchair_Albedo.png"
		},
		{
			"mimeType":"image/png",
			"name":"armchair_Roughness",
			"uri":"props_textures/armchair_Roughness.png"
		}
	],
	"accessors":[
		{
			"bufferView":0,
			"componentType":5126,
			"count":11090,
			"max":[
				0.41662007570266724,
				1.034724473953247,
				0.501035213470459
			],
			"min":[
				-0.41662007570266724,
				-0.0042070746421813965,
				-0.5010350942611694
			],
			"type":"VEC3"
		},
		{
			"bufferView":1,
			"componentType":5126,
			"count":11090,
			"type":"VEC3"
		},
		{
			"bufferView":2,
			"componentType":5126,
			"count":11090,
			"type":"VEC2"
		},
		{
			"bufferView":3,
			"componentType":5126,
			"count":11090,
			"type":"VEC2"
		},
		{
			"bufferView":4,
			"componentType":5123,
			"count":26748,
			"type":"SCALAR"
		}
	],
	"bufferViews":[
		{
			"buffer":0,
			"byteLength":133080,
			"byteOffset":0,
			"target":34962
		},
		{
			"buffer":0,
			"byteLength":133080,
			"byteOffset":133080,
			"target":34962
		},
		{
			"buffer":0,
			"byteLength":88720,
			"byteOffset":266160,
			"target":34962
		},
		{
			"buffer":0,
			"byteLength":88720,
			"byteOffset":354880,
			"target":34962
		},
		{
			"buffer":0,
			"byteLength":53496,
			"byteOffset":443600,
			"target":34963
		}
	],
	"samplers":[
		{
			"magFilter":9729,
			"minFilter":9987
		}
	],
	"buffers":[
		{
			"byteLength":497096,
			"uri":"LobbyChair.bin"
		}
	]
}
