{
	"asset":{
		"copyright":"Eibriel",
		"generator":"Khronos glTF Blender I/O v4.3.47",
		"version":"2.0"
	},
	"extensionsUsed":[
		"KHR_materials_specular"
	],
	"scene":0,
	"scenes":[
		{
			"name":"MaleFigurine",
			"nodes":[
				0
			]
		}
	],
	"nodes":[
		{
			"mesh":0,
			"name":"MaleFigurine"
		}
	],
	"materials":[
		{
			"doubleSided":true,
			"extensions":{
				"KHR_materials_specular":{
					"specularFactor":0
				}
			},
			"name":"MaleFigurine",
			"pbrMetallicRoughness":{
				"baseColorFactor":[
					0.14687098562717438,
					0.07933726906776428,
					0.02056088112294674,
					1
				],
				"metallicFactor":0
			}
		}
	],
	"meshes":[
		{
			"name":"Plane.018",
			"primitives":[
				{
					"attributes":{
						"POSITION":0,
						"NORMAL":1,
						"TEXCOORD_0":2,
						"COLOR_0":3,
						"COLOR_1":4,
						"COLOR_2":5,
						"COLOR_3":6,
						"COLOR_4":7,
						"COLOR_5":8,
						"COLOR_6":9,
						"COLOR_7":10,
						"COLOR_8":11,
						"COLOR_9":12
					},
					"indices":13,
					"material":0
				}
			]
		}
	],
	"accessors":[
		{
			"bufferView":0,
			"componentType":5126,
			"count":63151,
			"max":[
				0.2632353901863098,
				1.6126275062561035,
				0.182307630777359
			],
			"min":[
				-0.2632353901863098,
				0.003944214899092913,
				-0.16822484135627747
			],
			"type":"VEC3"
		},
		{
			"bufferView":1,
			"componentType":5126,
			"count":63151,
			"type":"VEC3"
		},
		{
			"bufferView":2,
			"componentType":5126,
			"count":63151,
			"type":"VEC2"
		},
		{
			"bufferView":3,
			"componentType":5121,
			"count":63151,
			"normalized":true,
			"type":"VEC4"
		},
		{
			"bufferView":4,
			"componentType":5123,
			"count":63151,
			"normalized":true,
			"type":"VEC4"
		},
		{
			"bufferView":5,
			"componentType":5123,
			"count":63151,
			"normalized":true,
			"type":"VEC4"
		},
		{
			"bufferView":6,
			"componentType":5123,
			"count":63151,
			"normalized":true,
			"type":"VEC4"
		},
		{
			"bufferView":7,
			"componentType":5123,
			"count":63151,
			"normalized":true,
			"type":"VEC4"
		},
		{
			"bufferView":8,
			"componentType":5123,
			"count":63151,
			"normalized":true,
			"type":"VEC4"
		},
		{
			"bufferView":9,
			"componentType":5123,
			"count":63151,
			"normalized":true,
			"type":"VEC4"
		},
		{
			"bufferView":10,
			"componentType":5123,
			"count":63151,
			"normalized":true,
			"type":"VEC4"
		},
		{
			"bufferView":11,
			"componentType":5123,
			"count":63151,
			"normalized":true,
			"type":"VEC4"
		},
		{
			"bufferView":12,
			"componentType":5123,
			"count":63151,
			"normalized":true,
			"type":"VEC4"
		},
		{
			"bufferView":13,
			"componentType":5123,
			"count":318804,
			"type":"SCALAR"
		}
	],
	"bufferViews":[
		{
			"buffer":0,
			"byteLength":757812,
			"byteOffset":0,
			"target":34962
		},
		{
			"buffer":0,
			"byteLength":757812,
			"byteOffset":757812,
			"target":34962
		},
		{
			"buffer":0,
			"byteLength":505208,
			"byteOffset":1515624,
			"target":34962
		},
		{
			"buffer":0,
			"byteLength":252604,
			"byteOffset":2020832,
			"target":34962
		},
		{
			"buffer":0,
			"byteLength":505208,
			"byteOffset":2273436,
			"target":34962
		},
		{
			"buffer":0,
			"byteLength":505208,
			"byteOffset":2778644,
			"target":34962
		},
		{
			"buffer":0,
			"byteLength":505208,
			"byteOffset":3283852,
			"target":34962
		},
		{
			"buffer":0,
			"byteLength":505208,
			"byteOffset":3789060,
			"target":34962
		},
		{
			"buffer":0,
			"byteLength":505208,
			"byteOffset":4294268,
			"target":34962
		},
		{
			"buffer":0,
			"byteLength":505208,
			"byteOffset":4799476,
			"target":34962
		},
		{
			"buffer":0,
			"byteLength":505208,
			"byteOffset":5304684,
			"target":34962
		},
		{
			"buffer":0,
			"byteLength":505208,
			"byteOffset":5809892,
			"target":34962
		},
		{
			"buffer":0,
			"byteLength":505208,
			"byteOffset":6315100,
			"target":34962
		},
		{
			"buffer":0,
			"byteLength":637608,
			"byteOffset":6820308,
			"target":34963
		}
	],
	"buffers":[
		{
			"byteLength":7457916,
			"uri":"MaleFigurine.bin"
		}
	]
}
