{
	"asset":{
		"copyright":"Eibriel",
		"generator":"Khronos glTF Blender I/O v4.3.47",
		"version":"2.0"
	},
	"scene":0,
	"scenes":[
		{
			"name":"OldWrench",
			"nodes":[
				0
			]
		}
	],
	"nodes":[
		{
			"mesh":0,
			"name":"RUS_Wrench_SK_Wrench_0"
		}
	],
	"materials":[
		{
			"doubleSided":true,
			"name":"Wrench",
			"normalTexture":{
				"index":0
			},
			"occlusionTexture":{
				"index":1
			},
			"pbrMetallicRoughness":{
				"baseColorTexture":{
					"index":2
				},
				"metallicRoughnessTexture":{
					"index":1
				}
			}
		}
	],
	"meshes":[
		{
			"name":"RUS_Wrench_SK_Wrench_0",
			"primitives":[
				{
					"attributes":{
						"POSITION":0,
						"NORMAL":1,
						"TEXCOORD_0":2,
						"TEXCOORD_1":3,
						"TEXCOORD_2":4,
						"TEXCOORD_3":5,
						"TEXCOORD_4":6
					},
					"indices":7,
					"material":0
				}
			]
		}
	],
	"textures":[
		{
			"sampler":0,
			"source":0
		},
		{
			"sampler":0,
			"source":1
		},
		{
			"sampler":0,
			"source":2
		}
	],
	"images":[
		{
			"mimeType":"image/png",
			"name":"OldWrench_Normal",
			"uri":"props_textures/OldWrench_Normal.png"
		},
		{
			"mimeType":"image/png",
			"name":"OldWrench_MR",
			"uri":"props_textures/OldWrench_MR.png"
		},
		{
			"mimeType":"image/png",
			"name":"OldWrench_Base",
			"uri":"props_textures/OldWrench_Base.png"
		}
	],
	"accessors":[
		{
			"bufferView":0,
			"componentType":5126,
			"count":3119,
			"max":[
				0.03572908416390419,
				0.24322223663330078,
				0.013061316683888435
			],
			"min":[
				-0.052113842219114304,
				-0.11745529621839523,
				-0.01271225418895483
			],
			"type":"VEC3"
		},
		{
			"bufferView":1,
			"componentType":5126,
			"count":3119,
			"type":"VEC3"
		},
		{
			"bufferView":2,
			"componentType":5126,
			"count":3119,
			"type":"VEC2"
		},
		{
			"bufferView":3,
			"componentType":5126,
			"count":3119,
			"type":"VEC2"
		},
		{
			"bufferView":4,
			"componentType":5126,
			"count":3119,
			"type":"VEC2"
		},
		{
			"bufferView":5,
			"componentType":5126,
			"count":3119,
			"type":"VEC2"
		},
		{
			"bufferView":6,
			"componentType":5126,
			"count":3119,
			"type":"VEC2"
		},
		{
			"bufferView":7,
			"componentType":5123,
			"count":9720,
			"type":"SCALAR"
		}
	],
	"bufferViews":[
		{
			"buffer":0,
			"byteLength":37428,
			"byteOffset":0,
			"target":34962
		},
		{
			"buffer":0,
			"byteLength":37428,
			"byteOffset":37428,
			"target":34962
		},
		{
			"buffer":0,
			"byteLength":24952,
			"byteOffset":74856,
			"target":34962
		},
		{
			"buffer":0,
			"byteLength":24952,
			"byteOffset":99808,
			"target":34962
		},
		{
			"buffer":0,
			"byteLength":24952,
			"byteOffset":124760,
			"target":34962
		},
		{
			"buffer":0,
			"byteLength":24952,
			"byteOffset":149712,
			"target":34962
		},
		{
			"buffer":0,
			"byteLength":24952,
			"byteOffset":174664,
			"target":34962
		},
		{
			"buffer":0,
			"byteLength":19440,
			"byteOffset":199616,
			"target":34963
		}
	],
	"samplers":[
		{
			"magFilter":9729,
			"minFilter":9987
		}
	],
	"buffers":[
		{
			"byteLength":219056,
			"uri":"OldWrench.bin"
		}
	]
}
