{
	"asset":{
		"copyright":"Eibriel",
		"generator":"Khronos glTF Blender I/O v4.3.47",
		"version":"2.0"
	},
	"extensionsUsed":[
		"KHR_materials_specular"
	],
	"scene":0,
	"scenes":[
		{
			"name":"Pillow",
			"nodes":[
				0
			]
		}
	],
	"nodes":[
		{
			"mesh":0,
			"name":"Pillow"
		}
	],
	"materials":[
		{
			"extensions":{
				"KHR_materials_specular":{
					"specularFactor":0.10909092426300049
				}
			},
			"name":"Pillow",
			"normalTexture":{
				"index":0
			},
			"pbrMetallicRoughness":{
				"baseColorTexture":{
					"index":1
				},
				"metallicFactor":0,
				"metallicRoughnessTexture":{
					"index":2
				}
			}
		}
	],
	"meshes":[
		{
			"name":"Pillow2_Pillow2_0",
			"primitives":[
				{
					"attributes":{
						"POSITION":0,
						"NORMAL":1,
						"TEXCOORD_0":2,
						"TEXCOORD_1":3,
						"TEXCOORD_2":4
					},
					"indices":5,
					"material":0
				}
			]
		}
	],
	"textures":[
		{
			"sampler":0,
			"source":0
		},
		{
			"sampler":0,
			"source":1
		},
		{
			"sampler":0,
			"source":2
		}
	],
	"images":[
		{
			"mimeType":"image/png",
			"name":"Pillow_Normal",
			"uri":"props_textures/Pillow_Normal.png"
		},
		{
			"mimeType":"image/png",
			"name":"Pillow_Base",
			"uri":"props_textures/Pillow_Base.png"
		},
		{
			"mimeType":"image/png",
			"name":"Pillow_MR",
			"uri":"props_textures/Pillow_MR.png"
		}
	],
	"accessors":[
		{
			"bufferView":0,
			"componentType":5126,
			"count":2790,
			"max":[
				0.30341723561286926,
				0.0627245306968689,
				0.3031409978866577
			],
			"min":[
				-0.30341723561286926,
				-0.06272450089454651,
				-0.3031409978866577
			],
			"type":"VEC3"
		},
		{
			"bufferView":1,
			"componentType":5126,
			"count":2790,
			"type":"VEC3"
		},
		{
			"bufferView":2,
			"componentType":5126,
			"count":2790,
			"type":"VEC2"
		},
		{
			"bufferView":3,
			"componentType":5126,
			"count":2790,
			"type":"VEC2"
		},
		{
			"bufferView":4,
			"componentType":5126,
			"count":2790,
			"type":"VEC2"
		},
		{
			"bufferView":5,
			"componentType":5123,
			"count":2790,
			"type":"SCALAR"
		}
	],
	"bufferViews":[
		{
			"buffer":0,
			"byteLength":33480,
			"byteOffset":0,
			"target":34962
		},
		{
			"buffer":0,
			"byteLength":33480,
			"byteOffset":33480,
			"target":34962
		},
		{
			"buffer":0,
			"byteLength":22320,
			"byteOffset":66960,
			"target":34962
		},
		{
			"buffer":0,
			"byteLength":22320,
			"byteOffset":89280,
			"target":34962
		},
		{
			"buffer":0,
			"byteLength":22320,
			"byteOffset":111600,
			"target":34962
		},
		{
			"buffer":0,
			"byteLength":5580,
			"byteOffset":133920,
			"target":34963
		}
	],
	"samplers":[
		{
			"magFilter":9729,
			"minFilter":9987
		}
	],
	"buffers":[
		{
			"byteLength":139500,
			"uri":"Pillow.bin"
		}
	]
}
