{
	"asset":{
		"copyright":"Eibriel",
		"generator":"Khronos glTF Blender I/O v4.3.47",
		"version":"2.0"
	},
	"scene":0,
	"scenes":[
		{
			"name":"Printer3D",
			"nodes":[
				0
			]
		}
	],
	"nodes":[
		{
			"mesh":0,
			"name":"Object_7"
		}
	],
	"materials":[
		{
			"doubleSided":true,
			"emissiveFactor":[
				1,
				1,
				1
			],
			"emissiveTexture":{
				"index":0
			},
			"name":"Material.002",
			"pbrMetallicRoughness":{
				"baseColorTexture":{
					"index":1
				},
				"metallicFactor":0.37145400047302246,
				"roughnessFactor":0.7914010286331177
			}
		}
	],
	"meshes":[
		{
			"name":"Object_0.001",
			"primitives":[
				{
					"attributes":{
						"POSITION":0,
						"NORMAL":1,
						"TEXCOORD_0":2,
						"TEXCOORD_1":3
					},
					"indices":4,
					"material":0
				}
			]
		}
	],
	"textures":[
		{
			"sampler":0,
			"source":0
		},
		{
			"sampler":0,
			"source":1
		}
	],
	"images":[
		{
			"mimeType":"image/jpeg",
			"name":"Printer3D_Emissive",
			"uri":"props_textures/Printer3D_Emissive.jpg"
		},
		{
			"mimeType":"image/jpeg",
			"name":"Printed3D",
			"uri":"props_textures/Printed3D.jpg"
		}
	],
	"accessors":[
		{
			"bufferView":0,
			"componentType":5126,
			"count":2830,
			"max":[
				0.31290072202682495,
				1.356864094734192,
				0.4315699636936188
			],
			"min":[
				-0.31290072202682495,
				0.0006786800222471356,
				-0.4360072910785675
			],
			"type":"VEC3"
		},
		{
			"bufferView":1,
			"componentType":5126,
			"count":2830,
			"type":"VEC3"
		},
		{
			"bufferView":2,
			"componentType":5126,
			"count":2830,
			"type":"VEC2"
		},
		{
			"bufferView":3,
			"componentType":5126,
			"count":2830,
			"type":"VEC2"
		},
		{
			"bufferView":4,
			"componentType":5123,
			"count":7104,
			"type":"SCALAR"
		}
	],
	"bufferViews":[
		{
			"buffer":0,
			"byteLength":33960,
			"byteOffset":0,
			"target":34962
		},
		{
			"buffer":0,
			"byteLength":33960,
			"byteOffset":33960,
			"target":34962
		},
		{
			"buffer":0,
			"byteLength":22640,
			"byteOffset":67920,
			"target":34962
		},
		{
			"buffer":0,
			"byteLength":22640,
			"byteOffset":90560,
			"target":34962
		},
		{
			"buffer":0,
			"byteLength":14208,
			"byteOffset":113200,
			"target":34963
		}
	],
	"samplers":[
		{
			"magFilter":9729,
			"minFilter":9987
		}
	],
	"buffers":[
		{
			"byteLength":127408,
			"uri":"Printer3D.bin"
		}
	]
}
