{
	"asset":{
		"copyright":"Eibriel",
		"generator":"Khronos glTF Blender I/O v4.3.47",
		"version":"2.0"
	},
	"extensionsUsed":[
		"KHR_materials_specular"
	],
	"scene":0,
	"scenes":[
		{
			"name":"ReportLight",
			"nodes":[
				0,
				1
			]
		}
	],
	"nodes":[
		{
			"mesh":0,
			"name":"ReportLight",
			"rotation":[
				-0.70710688829422,
				0,
				0,
				0.7071066498756409
			],
			"translation":[
				0,
				0,
				0.025772441178560257
			]
		},
		{
			"mesh":1,
			"name":"ReportLight_AO",
			"rotation":[
				0.7071068286895752,
				0,
				0,
				0.7071068286895752
			],
			"translation":[
				0,
				0.001405769377015531,
				0
			]
		}
	],
	"materials":[
		{
			"doubleSided":true,
			"name":"ReportLight_metal",
			"pbrMetallicRoughness":{
				"baseColorFactor":[
					0,
					0,
					0,
					1
				],
				"metallicFactor":0,
				"roughnessFactor":0.6000000238418579
			}
		},
		{
			"doubleSided":true,
			"emissiveFactor":[
				0.8098323345184326,
				0.8098323345184326,
				0.8098323345184326
			],
			"name":"ReportLight_light",
			"pbrMetallicRoughness":{
				"metallicFactor":0,
				"roughnessFactor":0.6000000238418579
			}
		},
		{
			"alphaMode":"BLEND",
			"doubleSided":true,
			"extensions":{
				"KHR_materials_specular":{
					"specularFactor":0
				}
			},
			"name":"Clock_AO",
			"pbrMetallicRoughness":{
				"baseColorTexture":{
					"index":0
				},
				"metallicFactor":0
			}
		}
	],
	"meshes":[
		{
			"name":"2169xx_Urbano_Lightstar_Glass_mat_white_0",
			"primitives":[
				{
					"attributes":{
						"POSITION":0,
						"NORMAL":1,
						"TEXCOORD_0":2
					},
					"indices":3,
					"material":0
				},
				{
					"attributes":{
						"POSITION":4,
						"NORMAL":5,
						"TEXCOORD_0":6
					},
					"indices":7,
					"material":1
				}
			]
		},
		{
			"name":"Plane.010",
			"primitives":[
				{
					"attributes":{
						"POSITION":8,
						"NORMAL":9,
						"TEXCOORD_0":10
					},
					"indices":11,
					"material":2
				}
			]
		}
	],
	"textures":[
		{
			"sampler":0,
			"source":0
		}
	],
	"images":[
		{
			"mimeType":"image/png",
			"name":"Clock_AO",
			"uri":"props_textures/Clock_AO.png"
		}
	],
	"accessors":[
		{
			"bufferView":0,
			"componentType":5126,
			"count":1428,
			"max":[
				0.09000005573034286,
				0.026383452117443085,
				0.09000008553266525
			],
			"min":[
				-0.09000005573034286,
				-2.60770320892334e-08,
				-0.09000008553266525
			],
			"type":"VEC3"
		},
		{
			"bufferView":1,
			"componentType":5126,
			"count":1428,
			"type":"VEC3"
		},
		{
			"bufferView":2,
			"componentType":5126,
			"count":1428,
			"type":"VEC2"
		},
		{
			"bufferView":3,
			"componentType":5123,
			"count":6528,
			"type":"SCALAR"
		},
		{
			"bufferView":4,
			"componentType":5126,
			"count":410,
			"max":[
				0.06537529826164246,
				0.002720855176448822,
				0.06537532806396484
			],
			"min":[
				-0.06537529826164246,
				0.0007208287715911865,
				-0.06537531316280365
			],
			"type":"VEC3"
		},
		{
			"bufferView":5,
			"componentType":5126,
			"count":410,
			"type":"VEC3"
		},
		{
			"bufferView":6,
			"componentType":5126,
			"count":410,
			"type":"VEC2"
		},
		{
			"bufferView":7,
			"componentType":5123,
			"count":1920,
			"type":"SCALAR"
		},
		{
			"bufferView":8,
			"componentType":5126,
			"count":4,
			"max":[
				0.17641310393810272,
				0,
				0.17641310393810272
			],
			"min":[
				-0.17641310393810272,
				0,
				-0.17641310393810272
			],
			"type":"VEC3"
		},
		{
			"bufferView":9,
			"componentType":5126,
			"count":4,
			"type":"VEC3"
		},
		{
			"bufferView":10,
			"componentType":5126,
			"count":4,
			"type":"VEC2"
		},
		{
			"bufferView":11,
			"componentType":5123,
			"count":6,
			"type":"SCALAR"
		}
	],
	"bufferViews":[
		{
			"buffer":0,
			"byteLength":17136,
			"byteOffset":0,
			"target":34962
		},
		{
			"buffer":0,
			"byteLength":17136,
			"byteOffset":17136,
			"target":34962
		},
		{
			"buffer":0,
			"byteLength":11424,
			"byteOffset":34272,
			"target":34962
		},
		{
			"buffer":0,
			"byteLength":13056,
			"byteOffset":45696,
			"target":34963
		},
		{
			"buffer":0,
			"byteLength":4920,
			"byteOffset":58752,
			"target":34962
		},
		{
			"buffer":0,
			"byteLength":4920,
			"byteOffset":63672,
			"target":34962
		},
		{
			"buffer":0,
			"byteLength":3280,
			"byteOffset":68592,
			"target":34962
		},
		{
			"buffer":0,
			"byteLength":3840,
			"byteOffset":71872,
			"target":34963
		},
		{
			"buffer":0,
			"byteLength":48,
			"byteOffset":75712,
			"target":34962
		},
		{
			"buffer":0,
			"byteLength":48,
			"byteOffset":75760,
			"target":34962
		},
		{
			"buffer":0,
			"byteLength":32,
			"byteOffset":75808,
			"target":34962
		},
		{
			"buffer":0,
			"byteLength":12,
			"byteOffset":75840,
			"target":34963
		}
	],
	"samplers":[
		{
			"magFilter":9729,
			"minFilter":9987
		}
	],
	"buffers":[
		{
			"byteLength":75852,
			"uri":"ReportLight.bin"
		}
	]
}
