{
	"asset":{
		"copyright":"Eibriel",
		"generator":"Khronos glTF Blender I/O v4.3.47",
		"version":"2.0"
	},
	"extensionsUsed":[
		"KHR_materials_specular",
		"KHR_materials_ior"
	],
	"scene":0,
	"scenes":[
		{
			"name":"RobotHead",
			"nodes":[
				0
			]
		}
	],
	"nodes":[
		{
			"mesh":0,
			"name":"robot_head"
		}
	],
	"materials":[
		{
			"doubleSided":true,
			"extensions":{
				"KHR_materials_specular":{
					"specularFactor":0.03636360168457031
				},
				"KHR_materials_ior":{
					"ior":1.4500000476837158
				}
			},
			"name":"Robot_Hinges",
			"occlusionTexture":{
				"index":0
			},
			"pbrMetallicRoughness":{
				"baseColorFactor":[
					0.24140211939811707,
					0.06719905883073807,
					0.002356688492000103,
					1
				],
				"roughnessFactor":0.4363636374473572
			}
		},
		{
			"doubleSided":true,
			"extensions":{
				"KHR_materials_specular":{
					"specularFactor":0
				},
				"KHR_materials_ior":{
					"ior":1.4500000476837158
				}
			},
			"name":"Robot_face",
			"occlusionTexture":{
				"index":1
			},
			"pbrMetallicRoughness":{
				"baseColorFactor":[
					0.005518000107258558,
					0.004569000098854303,
					0.0036700000055134296,
					1
				],
				"roughnessFactor":0.6772723197937012
			}
		}
	],
	"meshes":[
		{
			"name":"Cylinder.004",
			"primitives":[
				{
					"attributes":{
						"POSITION":0,
						"NORMAL":1,
						"TEXCOORD_0":2
					},
					"indices":3,
					"material":0
				},
				{
					"attributes":{
						"POSITION":4,
						"NORMAL":5,
						"TEXCOORD_0":6
					},
					"indices":7,
					"material":1
				}
			]
		}
	],
	"textures":[
		{
			"sampler":0,
			"source":0
		},
		{
			"sampler":0,
			"source":0
		}
	],
	"images":[
		{
			"mimeType":"image/png",
			"name":"RobotOcclussion_Bake",
			"uri":"props_textures/RobotOcclussion_Bake.png"
		}
	],
	"accessors":[
		{
			"bufferView":0,
			"componentType":5126,
			"count":479,
			"max":[
				0.1040361076593399,
				0.3306339979171753,
				0.09206348657608032
			],
			"min":[
				-0.06540706008672714,
				-0.10728713124990463,
				-0.04994167760014534
			],
			"type":"VEC3"
		},
		{
			"bufferView":1,
			"componentType":5126,
			"count":479,
			"type":"VEC3"
		},
		{
			"bufferView":2,
			"componentType":5126,
			"count":479,
			"type":"VEC2"
		},
		{
			"bufferView":3,
			"componentType":5123,
			"count":1710,
			"type":"SCALAR"
		},
		{
			"bufferView":4,
			"componentType":5126,
			"count":487,
			"max":[
				0.0954580008983612,
				0.17473560571670532,
				0.08857140690088272
			],
			"min":[
				-0.10726719349622726,
				-0.1301167607307434,
				-0.16869600117206573
			],
			"type":"VEC3"
		},
		{
			"bufferView":5,
			"componentType":5126,
			"count":487,
			"type":"VEC3"
		},
		{
			"bufferView":6,
			"componentType":5126,
			"count":487,
			"type":"VEC2"
		},
		{
			"bufferView":7,
			"componentType":5123,
			"count":2544,
			"type":"SCALAR"
		}
	],
	"bufferViews":[
		{
			"buffer":0,
			"byteLength":5748,
			"byteOffset":0,
			"target":34962
		},
		{
			"buffer":0,
			"byteLength":5748,
			"byteOffset":5748,
			"target":34962
		},
		{
			"buffer":0,
			"byteLength":3832,
			"byteOffset":11496,
			"target":34962
		},
		{
			"buffer":0,
			"byteLength":3420,
			"byteOffset":15328,
			"target":34963
		},
		{
			"buffer":0,
			"byteLength":5844,
			"byteOffset":18748,
			"target":34962
		},
		{
			"buffer":0,
			"byteLength":5844,
			"byteOffset":24592,
			"target":34962
		},
		{
			"buffer":0,
			"byteLength":3896,
			"byteOffset":30436,
			"target":34962
		},
		{
			"buffer":0,
			"byteLength":5088,
			"byteOffset":34332,
			"target":34963
		}
	],
	"samplers":[
		{
			"magFilter":9729,
			"minFilter":9987
		}
	],
	"buffers":[
		{
			"byteLength":39420,
			"uri":"RobotHead.bin"
		}
	]
}
