{
	"asset":{
		"copyright":"Eibriel",
		"generator":"Khronos glTF Blender I/O v4.3.47",
		"version":"2.0"
	},
	"extensionsUsed":[
		"KHR_materials_emissive_strength",
		"KHR_materials_specular"
	],
	"scene":0,
	"scenes":[
		{
			"name":"RobotVacuum",
			"nodes":[
				0,
				1,
				2,
				3
			]
		}
	],
	"nodes":[
		{
			"mesh":0,
			"name":"RoombaBody",
			"translation":[
				0,
				0.03119899332523346,
				-0.006286442279815674
			]
		},
		{
			"mesh":1,
			"name":"RoombaBrush.002",
			"translation":[
				-0.042839765548706055,
				0.012402579188346863,
				0.08683115243911743
			]
		},
		{
			"mesh":1,
			"name":"RoombaBrush.001",
			"translation":[
				0.04246038198471069,
				0.012402579188346863,
				0.08683115243911743
			]
		},
		{
			"mesh":2,
			"name":"VacuumAO",
			"translation":[
				0,
				0.0015429079066962004,
				0
			]
		}
	],
	"materials":[
		{
			"doubleSided":true,
			"extensions":{
				"KHR_materials_specular":{
					"specularFactor":0
				}
			},
			"name":"Body_material",
			"pbrMetallicRoughness":{
				"baseColorFactor":[
					0.002021756488829851,
					0.001979372464120388,
					0.0018364236457273364,
					1
				],
				"metallicFactor":0,
				"roughnessFactor":0.7627273201942444
			}
		},
		{
			"doubleSided":true,
			"emissiveFactor":[
				1,
				0.8463921546936035,
				0.8840250372886658
			],
			"extensions":{
				"KHR_materials_emissive_strength":{
					"emissiveStrength":2
				}
			},
			"name":"LEDs",
			"pbrMetallicRoughness":{
				"baseColorFactor":[
					0.6545954346656799,
					0.5870234370231628,
					0.5363710522651672,
					1
				],
				"metallicFactor":0
			}
		},
		{
			"doubleSided":true,
			"extensions":{
				"KHR_materials_specular":{
					"specularFactor":0.027272716164588928
				}
			},
			"name":"additional_details",
			"pbrMetallicRoughness":{
				"baseColorFactor":[
					0.31688496470451355,
					0.1610749363899231,
					0.006826251279562712,
					1
				],
				"roughnessFactor":0.3863636255264282
			}
		},
		{
			"doubleSided":true,
			"extensions":{
				"KHR_materials_specular":{
					"specularFactor":0.04545453190803528
				}
			},
			"name":"displays",
			"pbrMetallicRoughness":{
				"baseColorFactor":[
					0,
					0,
					0,
					1
				],
				"metallicFactor":0.5381820201873779,
				"roughnessFactor":0.09818179905414581
			}
		},
		{
			"doubleSided":true,
			"extensions":{
				"KHR_materials_specular":{
					"specularFactor":0
				}
			},
			"name":"material.002",
			"pbrMetallicRoughness":{
				"baseColorFactor":[
					0,
					0,
					0,
					1
				],
				"metallicFactor":0.38909101486206055,
				"roughnessFactor":0.5890910029411316
			}
		},
		{
			"doubleSided":true,
			"extensions":{
				"KHR_materials_specular":{
					"specularFactor":0
				}
			},
			"name":"wheels",
			"pbrMetallicRoughness":{
				"baseColorFactor":[
					0.011614399962127209,
					0.010419400408864021,
					0.00784286018460989,
					1
				],
				"metallicFactor":0,
				"roughnessFactor":0.7836359739303589
			}
		},
		{
			"doubleSided":true,
			"name":"brush",
			"pbrMetallicRoughness":{
				"baseColorFactor":[
					0.02593049965798855,
					0.023983700200915337,
					0.017562400549650192,
					1
				],
				"metallicFactor":0,
				"roughnessFactor":0.6836360096931458
			}
		},
		{
			"doubleSided":true,
			"name":"cylinder",
			"pbrMetallicRoughness":{
				"baseColorFactor":[
					0.09535220265388489,
					0.06004539877176285,
					0.059279799461364746,
					1
				],
				"metallicFactor":0,
				"roughnessFactor":0.8636360168457031
			}
		},
		{
			"alphaMode":"BLEND",
			"doubleSided":true,
			"extensions":{
				"KHR_materials_specular":{
					"specularFactor":0
				}
			},
			"name":"Vacuum_AO",
			"pbrMetallicRoughness":{
				"baseColorTexture":{
					"index":0
				},
				"metallicFactor":0
			}
		}
	],
	"meshes":[
		{
			"name":"Roomba",
			"primitives":[
				{
					"attributes":{
						"POSITION":0,
						"NORMAL":1,
						"TEXCOORD_0":2
					},
					"indices":3,
					"material":0
				},
				{
					"attributes":{
						"POSITION":4,
						"NORMAL":5,
						"TEXCOORD_0":6
					},
					"indices":7,
					"material":1
				},
				{
					"attributes":{
						"POSITION":8,
						"NORMAL":9,
						"TEXCOORD_0":10
					},
					"indices":11,
					"material":2
				},
				{
					"attributes":{
						"POSITION":12,
						"NORMAL":13,
						"TEXCOORD_0":14
					},
					"indices":15,
					"material":3
				},
				{
					"attributes":{
						"POSITION":16,
						"NORMAL":17,
						"TEXCOORD_0":18
					},
					"indices":19,
					"material":4
				},
				{
					"attributes":{
						"POSITION":20,
						"NORMAL":21,
						"TEXCOORD_0":22
					},
					"indices":23,
					"material":5
				}
			]
		},
		{
			"name":"RoombaBrush",
			"primitives":[
				{
					"attributes":{
						"POSITION":24,
						"NORMAL":25,
						"TEXCOORD_0":26
					},
					"indices":27,
					"material":6
				},
				{
					"attributes":{
						"POSITION":28,
						"NORMAL":29,
						"TEXCOORD_0":30
					},
					"indices":31,
					"material":7
				},
				{
					"attributes":{
						"POSITION":32,
						"NORMAL":33,
						"TEXCOORD_0":34
					},
					"indices":35,
					"material":2
				}
			]
		},
		{
			"name":"Plane.009",
			"primitives":[
				{
					"attributes":{
						"POSITION":36,
						"NORMAL":37,
						"TEXCOORD_0":38
					},
					"indices":39,
					"material":8
				}
			]
		}
	],
	"textures":[
		{
			"sampler":0,
			"source":0
		}
	],
	"images":[
		{
			"mimeType":"image/png",
			"name":"Vacuum_AOFloor",
			"uri":"props_textures/Vacuum_AOFloor.png"
		}
	],
	"accessors":[
		{
			"bufferView":0,
			"componentType":5126,
			"count":1222,
			"max":[
				0.10000002384185791,
				0.009237450547516346,
				0.11287698149681091
			],
			"min":[
				-0.10000002384185791,
				-0.024601584300398827,
				-0.09283248335123062
			],
			"type":"VEC3"
		},
		{
			"bufferView":1,
			"componentType":5126,
			"count":1222,
			"type":"VEC3"
		},
		{
			"bufferView":2,
			"componentType":5126,
			"count":1222,
			"type":"VEC2"
		},
		{
			"bufferView":3,
			"componentType":5123,
			"count":3408,
			"type":"SCALAR"
		},
		{
			"bufferView":4,
			"componentType":5126,
			"count":128,
			"max":[
				0.08825919777154922,
				0.006198050919920206,
				0.09454114735126495
			],
			"min":[
				-0.08825919777154922,
				0.0061406418681144714,
				-0.08197727799415588
			],
			"type":"VEC3"
		},
		{
			"bufferView":5,
			"componentType":5126,
			"count":128,
			"type":"VEC3"
		},
		{
			"bufferView":6,
			"componentType":5126,
			"count":128,
			"type":"VEC2"
		},
		{
			"bufferView":7,
			"componentType":5123,
			"count":384,
			"type":"SCALAR"
		},
		{
			"bufferView":8,
			"componentType":5126,
			"count":284,
			"max":[
				0.10107319056987762,
				0.010282767936587334,
				0.00638965517282486
			],
			"min":[
				-0.10107319056987762,
				-0.025598490610718727,
				-0.09179498255252838
			],
			"type":"VEC3"
		},
		{
			"bufferView":9,
			"componentType":5126,
			"count":284,
			"type":"VEC3"
		},
		{
			"bufferView":10,
			"componentType":5126,
			"count":284,
			"type":"VEC2"
		},
		{
			"bufferView":11,
			"componentType":5123,
			"count":732,
			"type":"SCALAR"
		},
		{
			"bufferView":12,
			"componentType":5126,
			"count":296,
			"max":[
				0.07043614983558655,
				0.011195163242518902,
				0.11159875988960266
			],
			"min":[
				-0.07043614983558655,
				-0.017164690420031548,
				-0.09155599772930145
			],
			"type":"VEC3"
		},
		{
			"bufferView":13,
			"componentType":5126,
			"count":296,
			"type":"VEC3"
		},
		{
			"bufferView":14,
			"componentType":5126,
			"count":296,
			"type":"VEC2"
		},
		{
			"bufferView":15,
			"componentType":5123,
			"count":876,
			"type":"SCALAR"
		},
		{
			"bufferView":16,
			"componentType":5126,
			"count":344,
			"max":[
				0.02696913853287697,
				0.010533809661865234,
				0.0332501046359539
			],
			"min":[
				-0.02696913853287697,
				0.009160577319562435,
				-0.02068817988038063
			],
			"type":"VEC3"
		},
		{
			"bufferView":17,
			"componentType":5126,
			"count":344,
			"type":"VEC3"
		},
		{
			"bufferView":18,
			"componentType":5126,
			"count":344,
			"type":"VEC2"
		},
		{
			"bufferView":19,
			"componentType":5123,
			"count":1242,
			"type":"SCALAR"
		},
		{
			"bufferView":20,
			"componentType":5126,
			"count":1296,
			"max":[
				0.071795254945755,
				-0.005250736605376005,
				0.009438489563763142
			],
			"min":[
				-0.0717952623963356,
				-0.031547870486974716,
				-0.016858644783496857
			],
			"type":"VEC3"
		},
		{
			"bufferView":21,
			"componentType":5126,
			"count":1296,
			"type":"VEC3"
		},
		{
			"bufferView":22,
			"componentType":5126,
			"count":1296,
			"type":"VEC2"
		},
		{
			"bufferView":23,
			"componentType":5123,
			"count":3432,
			"type":"SCALAR"
		},
		{
			"bufferView":24,
			"componentType":5126,
			"count":896,
			"max":[
				0.01734350621700287,
				0.007419211324304342,
				0.01734437607228756
			],
			"min":[
				-0.017341934144496918,
				-0.004542405717074871,
				-0.017341751605272293
			],
			"type":"VEC3"
		},
		{
			"bufferView":25,
			"componentType":5126,
			"count":896,
			"type":"VEC3"
		},
		{
			"bufferView":26,
			"componentType":5126,
			"count":896,
			"type":"VEC2"
		},
		{
			"bufferView":27,
			"componentType":5123,
			"count":1332,
			"type":"SCALAR"
		},
		{
			"bufferView":28,
			"componentType":5126,
			"count":24000,
			"max":[
				0.03789207711815834,
				0.0002308916737092659,
				0.03708784654736519
			],
			"min":[
				-0.0377466157078743,
				-0.003446189220994711,
				-0.037048425525426865
			],
			"type":"VEC3"
		},
		{
			"bufferView":29,
			"componentType":5126,
			"count":24000,
			"type":"VEC3"
		},
		{
			"bufferView":30,
			"componentType":5126,
			"count":24000,
			"type":"VEC2"
		},
		{
			"bufferView":31,
			"componentType":5123,
			"count":42000,
			"type":"SCALAR"
		},
		{
			"bufferView":32,
			"componentType":5126,
			"count":64,
			"max":[
				0.007124102208763361,
				0.007419212255626917,
				0.0071226912550628185
			],
			"min":[
				-0.007122528273612261,
				0.005729659926146269,
				-0.007123936433345079
			],
			"type":"VEC3"
		},
		{
			"bufferView":33,
			"componentType":5126,
			"count":64,
			"type":"VEC3"
		},
		{
			"bufferView":34,
			"componentType":5126,
			"count":64,
			"type":"VEC2"
		},
		{
			"bufferView":35,
			"componentType":5123,
			"count":96,
			"type":"SCALAR"
		},
		{
			"bufferView":36,
			"componentType":5126,
			"count":4,
			"max":[
				0.26159417629241943,
				0,
				0.26159417629241943
			],
			"min":[
				-0.26159417629241943,
				0,
				-0.26159417629241943
			],
			"type":"VEC3"
		},
		{
			"bufferView":37,
			"componentType":5126,
			"count":4,
			"type":"VEC3"
		},
		{
			"bufferView":38,
			"componentType":5126,
			"count":4,
			"type":"VEC2"
		},
		{
			"bufferView":39,
			"componentType":5123,
			"count":6,
			"type":"SCALAR"
		}
	],
	"bufferViews":[
		{
			"buffer":0,
			"byteLength":14664,
			"byteOffset":0,
			"target":34962
		},
		{
			"buffer":0,
			"byteLength":14664,
			"byteOffset":14664,
			"target":34962
		},
		{
			"buffer":0,
			"byteLength":9776,
			"byteOffset":29328,
			"target":34962
		},
		{
			"buffer":0,
			"byteLength":6816,
			"byteOffset":39104,
			"target":34963
		},
		{
			"buffer":0,
			"byteLength":1536,
			"byteOffset":45920,
			"target":34962
		},
		{
			"buffer":0,
			"byteLength":1536,
			"byteOffset":47456,
			"target":34962
		},
		{
			"buffer":0,
			"byteLength":1024,
			"byteOffset":48992,
			"target":34962
		},
		{
			"buffer":0,
			"byteLength":768,
			"byteOffset":50016,
			"target":34963
		},
		{
			"buffer":0,
			"byteLength":3408,
			"byteOffset":50784,
			"target":34962
		},
		{
			"buffer":0,
			"byteLength":3408,
			"byteOffset":54192,
			"target":34962
		},
		{
			"buffer":0,
			"byteLength":2272,
			"byteOffset":57600,
			"target":34962
		},
		{
			"buffer":0,
			"byteLength":1464,
			"byteOffset":59872,
			"target":34963
		},
		{
			"buffer":0,
			"byteLength":3552,
			"byteOffset":61336,
			"target":34962
		},
		{
			"buffer":0,
			"byteLength":3552,
			"byteOffset":64888,
			"target":34962
		},
		{
			"buffer":0,
			"byteLength":2368,
			"byteOffset":68440,
			"target":34962
		},
		{
			"buffer":0,
			"byteLength":1752,
			"byteOffset":70808,
			"target":34963
		},
		{
			"buffer":0,
			"byteLength":4128,
			"byteOffset":72560,
			"target":34962
		},
		{
			"buffer":0,
			"byteLength":4128,
			"byteOffset":76688,
			"target":34962
		},
		{
			"buffer":0,
			"byteLength":2752,
			"byteOffset":80816,
			"target":34962
		},
		{
			"buffer":0,
			"byteLength":2484,
			"byteOffset":83568,
			"target":34963
		},
		{
			"buffer":0,
			"byteLength":15552,
			"byteOffset":86052,
			"target":34962
		},
		{
			"buffer":0,
			"byteLength":15552,
			"byteOffset":101604,
			"target":34962
		},
		{
			"buffer":0,
			"byteLength":10368,
			"byteOffset":117156,
			"target":34962
		},
		{
			"buffer":0,
			"byteLength":6864,
			"byteOffset":127524,
			"target":34963
		},
		{
			"buffer":0,
			"byteLength":10752,
			"byteOffset":134388,
			"target":34962
		},
		{
			"buffer":0,
			"byteLength":10752,
			"byteOffset":145140,
			"target":34962
		},
		{
			"buffer":0,
			"byteLength":7168,
			"byteOffset":155892,
			"target":34962
		},
		{
			"buffer":0,
			"byteLength":2664,
			"byteOffset":163060,
			"target":34963
		},
		{
			"buffer":0,
			"byteLength":288000,
			"byteOffset":165724,
			"target":34962
		},
		{
			"buffer":0,
			"byteLength":288000,
			"byteOffset":453724,
			"target":34962
		},
		{
			"buffer":0,
			"byteLength":192000,
			"byteOffset":741724,
			"target":34962
		},
		{
			"buffer":0,
			"byteLength":84000,
			"byteOffset":933724,
			"target":34963
		},
		{
			"buffer":0,
			"byteLength":768,
			"byteOffset":1017724,
			"target":34962
		},
		{
			"buffer":0,
			"byteLength":768,
			"byteOffset":1018492,
			"target":34962
		},
		{
			"buffer":0,
			"byteLength":512,
			"byteOffset":1019260,
			"target":34962
		},
		{
			"buffer":0,
			"byteLength":192,
			"byteOffset":1019772,
			"target":34963
		},
		{
			"buffer":0,
			"byteLength":48,
			"byteOffset":1019964,
			"target":34962
		},
		{
			"buffer":0,
			"byteLength":48,
			"byteOffset":1020012,
			"target":34962
		},
		{
			"buffer":0,
			"byteLength":32,
			"byteOffset":1020060,
			"target":34962
		},
		{
			"buffer":0,
			"byteLength":12,
			"byteOffset":1020092,
			"target":34963
		}
	],
	"samplers":[
		{
			"magFilter":9729,
			"minFilter":9987
		}
	],
	"buffers":[
		{
			"byteLength":1020104,
			"uri":"RobotVacuum.bin"
		}
	]
}
