{
	"asset":{
		"copyright":"Eibriel",
		"generator":"Khronos glTF Blender I/O v4.3.47",
		"version":"2.0"
	},
	"extensionsUsed":[
		"KHR_materials_specular",
		"KHR_materials_ior"
	],
	"scene":0,
	"scenes":[
		{
			"name":"RobotLeg",
			"nodes":[
				0
			]
		}
	],
	"nodes":[
		{
			"mesh":0,
			"name":"RobotLeg",
			"rotation":[
				-0.01902724988758564,
				-0.01858437806367874,
				0.6984876990318298,
				0.7151276469230652
			]
		}
	],
	"materials":[
		{
			"doubleSided":true,
			"extensions":{
				"KHR_materials_specular":{
					"specularFactor":0.03636360168457031
				},
				"KHR_materials_ior":{
					"ior":1.4500000476837158
				}
			},
			"name":"Robot_Hinges",
			"occlusionTexture":{
				"index":0
			},
			"pbrMetallicRoughness":{
				"baseColorFactor":[
					0.24140211939811707,
					0.06719905883073807,
					0.002356688492000103,
					1
				],
				"roughnessFactor":0.4363636374473572
			}
		},
		{
			"doubleSided":true,
			"extensions":{
				"KHR_materials_specular":{
					"specularFactor":0.11818181723356247
				}
			},
			"name":"Robot_Clothes",
			"occlusionTexture":{
				"index":1
			},
			"pbrMetallicRoughness":{
				"baseColorFactor":[
					0.003063000040128827,
					0.003128000069409609,
					0.0037529999390244484,
					1
				],
				"metallicFactor":0,
				"roughnessFactor":0.42272722721099854
			}
		},
		{
			"doubleSided":true,
			"extensions":{
				"KHR_materials_specular":{
					"specularFactor":0.027272727340459824
				},
				"KHR_materials_ior":{
					"ior":1.4500000476837158
				}
			},
			"name":"Robot_shoes",
			"occlusionTexture":{
				"index":2
			},
			"pbrMetallicRoughness":{
				"baseColorFactor":[
					0,
					0,
					0,
					1
				],
				"metallicFactor":0,
				"roughnessFactor":0.6454545259475708
			}
		}
	],
	"meshes":[
		{
			"name":"Plane.040",
			"primitives":[
				{
					"attributes":{
						"POSITION":0,
						"NORMAL":1,
						"TEXCOORD_0":2
					},
					"indices":3,
					"material":0
				},
				{
					"attributes":{
						"POSITION":4,
						"NORMAL":5,
						"TEXCOORD_0":6
					},
					"indices":7,
					"material":1
				},
				{
					"attributes":{
						"POSITION":8,
						"NORMAL":9,
						"TEXCOORD_0":10
					},
					"indices":11,
					"material":2
				}
			]
		}
	],
	"textures":[
		{
			"sampler":0,
			"source":0
		},
		{
			"sampler":0,
			"source":0
		},
		{
			"sampler":0,
			"source":0
		}
	],
	"images":[
		{
			"mimeType":"image/png",
			"name":"RobotOcclussion_Bake",
			"uri":"props_textures/RobotOcclussion_Bake.png"
		}
	],
	"accessors":[
		{
			"bufferView":0,
			"componentType":5126,
			"count":824,
			"max":[
				0.07216422259807587,
				0.2790220081806183,
				0.0672130286693573
			],
			"min":[
				0.01119721308350563,
				-0.2117014229297638,
				-0.022666573524475098
			],
			"type":"VEC3"
		},
		{
			"bufferView":1,
			"componentType":5126,
			"count":824,
			"type":"VEC3"
		},
		{
			"bufferView":2,
			"componentType":5126,
			"count":824,
			"type":"VEC2"
		},
		{
			"bufferView":3,
			"componentType":5123,
			"count":3960,
			"type":"SCALAR"
		},
		{
			"bufferView":4,
			"componentType":5126,
			"count":750,
			"max":[
				0.10084736347198486,
				0.21610292792320251,
				0.05667887628078461
			],
			"min":[
				0.0007400643080472946,
				-0.18558433651924133,
				-0.05903045833110809
			],
			"type":"VEC3"
		},
		{
			"bufferView":5,
			"componentType":5126,
			"count":750,
			"type":"VEC3"
		},
		{
			"bufferView":6,
			"componentType":5126,
			"count":750,
			"type":"VEC2"
		},
		{
			"bufferView":7,
			"componentType":5123,
			"count":3552,
			"type":"SCALAR"
		},
		{
			"bufferView":8,
			"componentType":5126,
			"count":571,
			"max":[
				0.0688551515340805,
				-0.18708181381225586,
				0.12753285467624664
			],
			"min":[
				0.003635155037045479,
				-0.29477959871292114,
				-0.0380859375
			],
			"type":"VEC3"
		},
		{
			"bufferView":9,
			"componentType":5126,
			"count":571,
			"type":"VEC3"
		},
		{
			"bufferView":10,
			"componentType":5126,
			"count":571,
			"type":"VEC2"
		},
		{
			"bufferView":11,
			"componentType":5123,
			"count":2832,
			"type":"SCALAR"
		}
	],
	"bufferViews":[
		{
			"buffer":0,
			"byteLength":9888,
			"byteOffset":0,
			"target":34962
		},
		{
			"buffer":0,
			"byteLength":9888,
			"byteOffset":9888,
			"target":34962
		},
		{
			"buffer":0,
			"byteLength":6592,
			"byteOffset":19776,
			"target":34962
		},
		{
			"buffer":0,
			"byteLength":7920,
			"byteOffset":26368,
			"target":34963
		},
		{
			"buffer":0,
			"byteLength":9000,
			"byteOffset":34288,
			"target":34962
		},
		{
			"buffer":0,
			"byteLength":9000,
			"byteOffset":43288,
			"target":34962
		},
		{
			"buffer":0,
			"byteLength":6000,
			"byteOffset":52288,
			"target":34962
		},
		{
			"buffer":0,
			"byteLength":7104,
			"byteOffset":58288,
			"target":34963
		},
		{
			"buffer":0,
			"byteLength":6852,
			"byteOffset":65392,
			"target":34962
		},
		{
			"buffer":0,
			"byteLength":6852,
			"byteOffset":72244,
			"target":34962
		},
		{
			"buffer":0,
			"byteLength":4568,
			"byteOffset":79096,
			"target":34962
		},
		{
			"buffer":0,
			"byteLength":5664,
			"byteOffset":83664,
			"target":34963
		}
	],
	"samplers":[
		{
			"magFilter":9729,
			"minFilter":9987
		}
	],
	"buffers":[
		{
			"byteLength":89328,
			"uri":"RobotLeg.bin"
		}
	]
}
