{
	"asset":{
		"copyright":"Eibriel",
		"generator":"Khronos glTF Blender I/O v4.3.47",
		"version":"2.0"
	},
	"extensionsUsed":[
		"KHR_materials_specular",
		"KHR_materials_ior"
	],
	"scene":0,
	"scenes":[
		{
			"name":"ShirtDisplay",
			"nodes":[
				0
			]
		}
	],
	"nodes":[
		{
			"mesh":0,
			"name":"ShirtDisplay"
		}
	],
	"materials":[
		{
			"doubleSided":true,
			"extensions":{
				"KHR_materials_specular":{
					"specularFactor":0.1454545259475708,
					"specularColorFactor":[
						0.05000000074505806,
						0.05000000074505806,
						0.05000000074505806
					]
				},
				"KHR_materials_ior":{
					"ior":1000
				}
			},
			"name":"Manequeen",
			"pbrMetallicRoughness":{
				"baseColorFactor":[
					0.004248154815286398,
					0.004248154815286398,
					0.004248154815286398,
					1
				],
				"metallicFactor":0,
				"roughnessFactor":0.8283488750457764
			}
		},
		{
			"doubleSided":true,
			"extensions":{
				"KHR_materials_specular":{
					"specularFactor":0.1727272868156433,
					"specularColorFactor":[
						0.05000000074505806,
						0.05000000074505806,
						0.05000000074505806
					]
				},
				"KHR_materials_ior":{
					"ior":1000
				}
			},
			"name":"lambert2.004",
			"pbrMetallicRoughness":{
				"baseColorTexture":{
					"index":0
				},
				"metallicFactor":0,
				"roughnessFactor":0.7885257601737976
			}
		}
	],
	"meshes":[
		{
			"name":"4.059_Manequeen_0",
			"primitives":[
				{
					"attributes":{
						"POSITION":0,
						"NORMAL":1,
						"TEXCOORD_0":2,
						"TEXCOORD_1":3
					},
					"indices":4,
					"material":0
				},
				{
					"attributes":{
						"POSITION":5,
						"NORMAL":6,
						"TEXCOORD_0":7,
						"TEXCOORD_1":8
					},
					"indices":9,
					"material":1
				}
			]
		}
	],
	"textures":[
		{
			"sampler":0,
			"source":0
		}
	],
	"images":[
		{
			"mimeType":"image/png",
			"name":"ShirtDisplay_Base",
			"uri":"props_textures/ShirtDisplay_Base.png"
		}
	],
	"accessors":[
		{
			"bufferView":0,
			"componentType":5126,
			"count":1273,
			"max":[
				0.19526982307434082,
				2.003337860107422,
				0.19127613306045532
			],
			"min":[
				-0.19854846596717834,
				0.0016859769821166992,
				-0.202542245388031
			],
			"type":"VEC3"
		},
		{
			"bufferView":1,
			"componentType":5126,
			"count":1273,
			"type":"VEC3"
		},
		{
			"bufferView":2,
			"componentType":5126,
			"count":1273,
			"type":"VEC2"
		},
		{
			"bufferView":3,
			"componentType":5126,
			"count":1273,
			"type":"VEC2"
		},
		{
			"bufferView":4,
			"componentType":5123,
			"count":6624,
			"type":"SCALAR"
		},
		{
			"bufferView":5,
			"componentType":5126,
			"count":4489,
			"max":[
				0.23395036160945892,
				1.9699410200119019,
				0.4081398844718933
			],
			"min":[
				-0.17499585449695587,
				1.0012210607528687,
				-0.3902324140071869
			],
			"type":"VEC3"
		},
		{
			"bufferView":6,
			"componentType":5126,
			"count":4489,
			"type":"VEC3"
		},
		{
			"bufferView":7,
			"componentType":5126,
			"count":4489,
			"type":"VEC2"
		},
		{
			"bufferView":8,
			"componentType":5126,
			"count":4489,
			"type":"VEC2"
		},
		{
			"bufferView":9,
			"componentType":5123,
			"count":24960,
			"type":"SCALAR"
		}
	],
	"bufferViews":[
		{
			"buffer":0,
			"byteLength":15276,
			"byteOffset":0,
			"target":34962
		},
		{
			"buffer":0,
			"byteLength":15276,
			"byteOffset":15276,
			"target":34962
		},
		{
			"buffer":0,
			"byteLength":10184,
			"byteOffset":30552,
			"target":34962
		},
		{
			"buffer":0,
			"byteLength":10184,
			"byteOffset":40736,
			"target":34962
		},
		{
			"buffer":0,
			"byteLength":13248,
			"byteOffset":50920,
			"target":34963
		},
		{
			"buffer":0,
			"byteLength":53868,
			"byteOffset":64168,
			"target":34962
		},
		{
			"buffer":0,
			"byteLength":53868,
			"byteOffset":118036,
			"target":34962
		},
		{
			"buffer":0,
			"byteLength":35912,
			"byteOffset":171904,
			"target":34962
		},
		{
			"buffer":0,
			"byteLength":35912,
			"byteOffset":207816,
			"target":34962
		},
		{
			"buffer":0,
			"byteLength":49920,
			"byteOffset":243728,
			"target":34963
		}
	],
	"samplers":[
		{
			"magFilter":9729,
			"minFilter":9987
		}
	],
	"buffers":[
		{
			"byteLength":293648,
			"uri":"ShirtDisplay.bin"
		}
	]
}
