{
	"asset":{
		"copyright":"Eibriel",
		"generator":"Khronos glTF Blender I/O v4.3.47",
		"version":"2.0"
	},
	"scene":0,
	"scenes":[
		{
			"name":"Sketchbook01",
			"nodes":[
				0,
				1,
				2
			]
		}
	],
	"nodes":[
		{
			"mesh":0,
			"name":"Sketchbook01"
		},
		{
			"mesh":1,
			"name":"Sketchbook01_Pencil.001"
		},
		{
			"mesh":2,
			"name":"Sketchbook01_Pencil.002"
		}
	],
	"materials":[
		{
			"doubleSided":true,
			"name":"Sketchbook01",
			"normalTexture":{
				"index":0
			},
			"pbrMetallicRoughness":{
				"baseColorTexture":{
					"index":1
				},
				"metallicFactor":0,
				"metallicRoughnessTexture":{
					"index":2
				},
				"roughnessFactor":0.97453773021698
			}
		},
		{
			"doubleSided":true,
			"name":"Sketchbook01_Pencil_01",
			"normalTexture":{
				"index":3,
				"scale":0.2327566295862198
			},
			"pbrMetallicRoughness":{
				"baseColorTexture":{
					"index":4
				},
				"metallicFactor":0,
				"metallicRoughnessTexture":{
					"index":5
				}
			}
		},
		{
			"doubleSided":true,
			"name":"Sketchbook01_Pencil_02",
			"normalTexture":{
				"index":6,
				"scale":0.8346937894821167
			},
			"pbrMetallicRoughness":{
				"baseColorFactor":[
					0.8772549629211426,
					0.8772549629211426,
					0.8772549629211426,
					1
				],
				"baseColorTexture":{
					"index":7
				},
				"metallicFactor":0,
				"metallicRoughnessTexture":{
					"index":8
				}
			}
		}
	],
	"meshes":[
		{
			"name":"book_op_lp1_book_op_lp1_phong4_0",
			"primitives":[
				{
					"attributes":{
						"POSITION":0,
						"NORMAL":1,
						"TEXCOORD_0":2
					},
					"indices":3,
					"material":0
				}
			]
		},
		{
			"name":"pencil_lp_tr_phong3_0",
			"primitives":[
				{
					"attributes":{
						"POSITION":4,
						"NORMAL":5,
						"TEXCOORD_0":6,
						"TEXCOORD_1":7
					},
					"indices":8,
					"material":1
				}
			]
		},
		{
			"name":"pencil_lp_tr_phong6_0",
			"primitives":[
				{
					"attributes":{
						"POSITION":9,
						"NORMAL":10,
						"TEXCOORD_0":11
					},
					"indices":12,
					"material":2
				}
			]
		}
	],
	"textures":[
		{
			"sampler":0,
			"source":0
		},
		{
			"sampler":0,
			"source":1
		},
		{
			"sampler":0,
			"source":2
		},
		{
			"sampler":0,
			"source":3
		},
		{
			"sampler":0,
			"source":4
		},
		{
			"sampler":0,
			"source":5
		},
		{
			"sampler":0,
			"source":3
		},
		{
			"sampler":0,
			"source":4
		},
		{
			"sampler":0,
			"source":5
		}
	],
	"images":[
		{
			"mimeType":"image/png",
			"name":"Sketchbook01_Normal",
			"uri":"props_textures/Sketchbook01_Normal.png"
		},
		{
			"mimeType":"image/png",
			"name":"Sketchbook01_Base",
			"uri":"props_textures/Sketchbook01_Base.png"
		},
		{
			"mimeType":"image/png",
			"name":"Sketchbook01_MR",
			"uri":"props_textures/Sketchbook01_MR.png"
		},
		{
			"mimeType":"image/png",
			"name":"Sketchbook01_Pencil_Normal",
			"uri":"props_textures/Sketchbook01_Pencil_Normal.png"
		},
		{
			"mimeType":"image/png",
			"name":"Sketchbook01_Pencil_Base",
			"uri":"props_textures/Sketchbook01_Pencil_Base.png"
		},
		{
			"mimeType":"image/png",
			"name":"Sketchbook01_Pencil_MR",
			"uri":"props_textures/Sketchbook01_Pencil_MR.png"
		}
	],
	"accessors":[
		{
			"bufferView":0,
			"componentType":5126,
			"count":457,
			"max":[
				0.16537398099899292,
				0.025429850444197655,
				0.1323200762271881
			],
			"min":[
				-0.17594179511070251,
				-0.0003739316016435623,
				-0.13234266638755798
			],
			"type":"VEC3"
		},
		{
			"bufferView":1,
			"componentType":5126,
			"count":457,
			"type":"VEC3"
		},
		{
			"bufferView":2,
			"componentType":5126,
			"count":457,
			"type":"VEC2"
		},
		{
			"bufferView":3,
			"componentType":5123,
			"count":1197,
			"type":"SCALAR"
		},
		{
			"bufferView":4,
			"componentType":5126,
			"count":105,
			"max":[
				0.001168273389339447,
				0.013133971020579338,
				0.12334375083446503
			],
			"min":[
				-0.005842134356498718,
				0.0072347368113696575,
				-0.024609703570604324
			],
			"type":"VEC3"
		},
		{
			"bufferView":5,
			"componentType":5126,
			"count":105,
			"type":"VEC3"
		},
		{
			"bufferView":6,
			"componentType":5126,
			"count":105,
			"type":"VEC2"
		},
		{
			"bufferView":7,
			"componentType":5126,
			"count":105,
			"type":"VEC2"
		},
		{
			"bufferView":8,
			"componentType":5123,
			"count":216,
			"type":"SCALAR"
		},
		{
			"bufferView":9,
			"componentType":5126,
			"count":28,
			"max":[
				0.001168273389339447,
				0.013133971020579338,
				0.1214691698551178
			],
			"min":[
				-0.004172579385340214,
				0.007792639546096325,
				0.10960330069065094
			],
			"type":"VEC3"
		},
		{
			"bufferView":10,
			"componentType":5126,
			"count":28,
			"type":"VEC3"
		},
		{
			"bufferView":11,
			"componentType":5126,
			"count":28,
			"type":"VEC2"
		},
		{
			"bufferView":12,
			"componentType":5123,
			"count":90,
			"type":"SCALAR"
		}
	],
	"bufferViews":[
		{
			"buffer":0,
			"byteLength":5484,
			"byteOffset":0,
			"target":34962
		},
		{
			"buffer":0,
			"byteLength":5484,
			"byteOffset":5484,
			"target":34962
		},
		{
			"buffer":0,
			"byteLength":3656,
			"byteOffset":10968,
			"target":34962
		},
		{
			"buffer":0,
			"byteLength":2394,
			"byteOffset":14624,
			"target":34963
		},
		{
			"buffer":0,
			"byteLength":1260,
			"byteOffset":17020,
			"target":34962
		},
		{
			"buffer":0,
			"byteLength":1260,
			"byteOffset":18280,
			"target":34962
		},
		{
			"buffer":0,
			"byteLength":840,
			"byteOffset":19540,
			"target":34962
		},
		{
			"buffer":0,
			"byteLength":840,
			"byteOffset":20380,
			"target":34962
		},
		{
			"buffer":0,
			"byteLength":432,
			"byteOffset":21220,
			"target":34963
		},
		{
			"buffer":0,
			"byteLength":336,
			"byteOffset":21652,
			"target":34962
		},
		{
			"buffer":0,
			"byteLength":336,
			"byteOffset":21988,
			"target":34962
		},
		{
			"buffer":0,
			"byteLength":224,
			"byteOffset":22324,
			"target":34962
		},
		{
			"buffer":0,
			"byteLength":180,
			"byteOffset":22548,
			"target":34963
		}
	],
	"samplers":[
		{
			"magFilter":9729,
			"minFilter":9987
		}
	],
	"buffers":[
		{
			"byteLength":22728,
			"uri":"Sketchbook01.bin"
		}
	]
}
