{
	"asset":{
		"copyright":"Eibriel",
		"generator":"Khronos glTF Blender I/O v4.3.47",
		"version":"2.0"
	},
	"scene":0,
	"scenes":[
		{
			"name":"Tiara",
			"nodes":[
				0,
				1
			]
		}
	],
	"nodes":[
		{
			"mesh":0,
			"name":"Tiara_copper",
			"scale":[
				0.030354438349604607,
				0.030354445800185204,
				0.030354445800185204
			]
		},
		{
			"mesh":1,
			"name":"Tiara_obsidian",
			"scale":[
				0.030354438349604607,
				0.030354445800185204,
				0.030354445800185204
			]
		}
	],
	"materials":[
		{
			"doubleSided":true,
			"name":"MetalBasicCopper",
			"pbrMetallicRoughness":{
				"baseColorTexture":{
					"index":0
				},
				"metallicRoughnessTexture":{
					"index":1
				}
			}
		},
		{
			"doubleSided":true,
			"name":"DetailObsidian",
			"normalTexture":{
				"index":2
			},
			"pbrMetallicRoughness":{
				"baseColorTexture":{
					"index":3
				},
				"metallicFactor":0,
				"metallicRoughnessTexture":{
					"index":4
				}
			}
		}
	],
	"meshes":[
		{
			"name":"Object_0.009",
			"primitives":[
				{
					"attributes":{
						"POSITION":0,
						"NORMAL":1,
						"TEXCOORD_0":2
					},
					"indices":3,
					"material":0
				}
			]
		},
		{
			"name":"Object_1.001",
			"primitives":[
				{
					"attributes":{
						"POSITION":4,
						"NORMAL":5,
						"TEXCOORD_0":6
					},
					"indices":7,
					"material":1
				}
			]
		}
	],
	"textures":[
		{
			"sampler":0,
			"source":0
		},
		{
			"sampler":0,
			"source":1
		},
		{
			"sampler":0,
			"source":2
		},
		{
			"sampler":0,
			"source":3
		},
		{
			"sampler":0,
			"source":4
		}
	],
	"images":[
		{
			"mimeType":"image/png",
			"name":"Tiara_copper_Base",
			"uri":"props_textures/Tiara_copper_Base.png"
		},
		{
			"mimeType":"image/png",
			"name":"Tiara_copper_MR",
			"uri":"props_textures/Tiara_copper_MR.png"
		},
		{
			"mimeType":"image/jpeg",
			"name":"Tiara_obsidian_Normal",
			"uri":"props_textures/Tiara_obsidian_Normal.jpg"
		},
		{
			"mimeType":"image/jpeg",
			"name":"Tiara_obsidian_Base",
			"uri":"props_textures/Tiara_obsidian_Base.jpg"
		},
		{
			"mimeType":"image/png",
			"name":"Tiara_obsidian_MR",
			"uri":"props_textures/Tiara_obsidian_MR.png"
		}
	],
	"accessors":[
		{
			"bufferView":0,
			"componentType":5126,
			"count":9464,
			"max":[
				6.53488302230835,
				4.298598289489746,
				6.53542947769165
			],
			"min":[
				-6.535247802734375,
				-0.24745655059814453,
				-6.535065650939941
			],
			"type":"VEC3"
		},
		{
			"bufferView":1,
			"componentType":5126,
			"count":9464,
			"type":"VEC3"
		},
		{
			"bufferView":2,
			"componentType":5126,
			"count":9464,
			"type":"VEC2"
		},
		{
			"bufferView":3,
			"componentType":5123,
			"count":47760,
			"type":"SCALAR"
		},
		{
			"bufferView":4,
			"componentType":5126,
			"count":6264,
			"max":[
				5.80414342880249,
				2.9771010875701904,
				5.804039478302002
			],
			"min":[
				-5.803936004638672,
				0.20840972661972046,
				-5.80424165725708
			],
			"type":"VEC3"
		},
		{
			"bufferView":5,
			"componentType":5126,
			"count":6264,
			"type":"VEC3"
		},
		{
			"bufferView":6,
			"componentType":5126,
			"count":6264,
			"type":"VEC2"
		},
		{
			"bufferView":7,
			"componentType":5123,
			"count":6264,
			"type":"SCALAR"
		}
	],
	"bufferViews":[
		{
			"buffer":0,
			"byteLength":113568,
			"byteOffset":0,
			"target":34962
		},
		{
			"buffer":0,
			"byteLength":113568,
			"byteOffset":113568,
			"target":34962
		},
		{
			"buffer":0,
			"byteLength":75712,
			"byteOffset":227136,
			"target":34962
		},
		{
			"buffer":0,
			"byteLength":95520,
			"byteOffset":302848,
			"target":34963
		},
		{
			"buffer":0,
			"byteLength":75168,
			"byteOffset":398368,
			"target":34962
		},
		{
			"buffer":0,
			"byteLength":75168,
			"byteOffset":473536,
			"target":34962
		},
		{
			"buffer":0,
			"byteLength":50112,
			"byteOffset":548704,
			"target":34962
		},
		{
			"buffer":0,
			"byteLength":12528,
			"byteOffset":598816,
			"target":34963
		}
	],
	"samplers":[
		{
			"magFilter":9729,
			"minFilter":9987
		}
	],
	"buffers":[
		{
			"byteLength":611344,
			"uri":"Tiara.bin"
		}
	]
}
