{
	"asset":{
		"copyright":"Eibriel",
		"generator":"Khronos glTF Blender I/O v4.3.47",
		"version":"2.0"
	},
	"extensionsUsed":[
		"KHR_materials_specular"
	],
	"scene":0,
	"scenes":[
		{
			"name":"TrashBin_Knocked",
			"nodes":[
				0
			]
		}
	],
	"nodes":[
		{
			"mesh":0,
			"name":"TrashBin_Exe",
			"scale":[
				0.009999999776482582,
				0.009999999776482582,
				0.009999999776482582
			],
			"translation":[
				-0.31395483016967773,
				0,
				0.8168967962265015
			]
		}
	],
	"materials":[
		{
			"doubleSided":true,
			"extensions":{
				"KHR_materials_specular":{
					"specularColorFactor":[
						2.0,
						2.0,
						2.0
					]
				}
			},
			"name":"21 - Default",
			"normalTexture":{
				"index":0
			},
			"pbrMetallicRoughness":{
				"baseColorTexture":{
					"index":1
				},
				"metallicRoughnessTexture":{
					"index":2
				}
			}
		}
	],
	"meshes":[
		{
			"name":"Mesh.004",
			"primitives":[
				{
					"attributes":{
						"POSITION":0,
						"NORMAL":1,
						"TEXCOORD_0":2,
						"TEXCOORD_1":3
					},
					"indices":4,
					"material":0
				}
			]
		}
	],
	"textures":[
		{
			"sampler":0,
			"source":0
		},
		{
			"sampler":0,
			"source":1
		},
		{
			"sampler":0,
			"source":2
		}
	],
	"images":[
		{
			"mimeType":"image/png",
			"name":"Map #1",
			"uri":"props_textures/Map%201.png"
		},
		{
			"mimeType":"image/png",
			"name":"Map #156",
			"uri":"props_textures/Map%20156.png"
		},
		{
			"mimeType":"image/png",
			"name":"Image",
			"uri":"props_textures/Image.png"
		}
	],
	"accessors":[
		{
			"bufferView":0,
			"componentType":5126,
			"count":12398,
			"max":[
				104.72962188720703,
				34.48652648925781,
				8.0101318359375
			],
			"min":[
				-71.71463775634766,
				-0.027856826782226562,
				-132.08193969726562
			],
			"type":"VEC3"
		},
		{
			"bufferView":1,
			"componentType":5126,
			"count":12398,
			"type":"VEC3"
		},
		{
			"bufferView":2,
			"componentType":5126,
			"count":12398,
			"type":"VEC2"
		},
		{
			"bufferView":3,
			"componentType":5126,
			"count":12398,
			"type":"VEC2"
		},
		{
			"bufferView":4,
			"componentType":5123,
			"count":48882,
			"type":"SCALAR"
		}
	],
	"bufferViews":[
		{
			"buffer":0,
			"byteLength":148776,
			"byteOffset":0,
			"target":34962
		},
		{
			"buffer":0,
			"byteLength":148776,
			"byteOffset":148776,
			"target":34962
		},
		{
			"buffer":0,
			"byteLength":99184,
			"byteOffset":297552,
			"target":34962
		},
		{
			"buffer":0,
			"byteLength":99184,
			"byteOffset":396736,
			"target":34962
		},
		{
			"buffer":0,
			"byteLength":97764,
			"byteOffset":495920,
			"target":34963
		}
	],
	"samplers":[
		{
			"magFilter":9729,
			"minFilter":9987
		}
	],
	"buffers":[
		{
			"byteLength":593684,
			"uri":"TrashBin_Knocked.bin"
		}
	]
}
