{
	"asset":{
		"copyright":"Eibriel",
		"generator":"Khronos glTF Blender I/O v4.3.47",
		"version":"2.0"
	},
	"scene":0,
	"scenes":[
		{
			"name":"TShirt",
			"nodes":[
				0
			]
		}
	],
	"nodes":[
		{
			"mesh":0,
			"name":"TShirt",
			"rotation":[
				-0.70710688829422,
				0,
				0,
				0.7071066498756409
			],
			"scale":[
				0.12889514863491058,
				0.12889514863491058,
				0.12889514863491058
			],
			"translation":[
				-0.006855488289147615,
				-0.1339048445224762,
				0
			]
		}
	],
	"materials":[
		{
			"doubleSided":true,
			"name":"Shirt",
			"pbrMetallicRoughness":{
				"baseColorTexture":{
					"index":0
				},
				"metallicFactor":0,
				"roughnessFactor":0.6000000238418579
			}
		},
		{
			"doubleSided":true,
			"name":"Velvet",
			"pbrMetallicRoughness":{
				"baseColorFactor":[
					0.21222999691963196,
					0.20746000111103058,
					0.14350299537181854,
					1
				],
				"metallicFactor":0,
				"roughnessFactor":0.7494487166404724
			}
		},
		{
			"name":"Metal",
			"pbrMetallicRoughness":{
				"baseColorFactor":[
					0.43948251008987427,
					0.43948251008987427,
					0.43948251008987427,
					1
				],
				"roughnessFactor":0.4638032019138336
			}
		}
	],
	"meshes":[
		{
			"name":"Object_0.004",
			"primitives":[
				{
					"attributes":{
						"POSITION":0,
						"NORMAL":1,
						"TEXCOORD_0":2
					},
					"indices":3,
					"material":0
				},
				{
					"attributes":{
						"POSITION":4,
						"NORMAL":5,
						"TEXCOORD_0":6
					},
					"indices":7,
					"material":1
				},
				{
					"attributes":{
						"POSITION":8,
						"NORMAL":9,
						"TEXCOORD_0":10
					},
					"indices":11,
					"material":2
				}
			]
		}
	],
	"textures":[
		{
			"sampler":0,
			"source":0
		}
	],
	"images":[
		{
			"mimeType":"image/png",
			"name":"TShirt_Base",
			"uri":"props_textures/TShirt_Base.png"
		}
	],
	"accessors":[
		{
			"bufferView":0,
			"componentType":5126,
			"count":1414,
			"max":[
				2.883660078048706,
				0.5357499718666077,
				0.03258400037884712
			],
			"min":[
				-2.7975399494171143,
				-0.6131489872932434,
				-8.023763656616211
			],
			"type":"VEC3"
		},
		{
			"bufferView":1,
			"componentType":5126,
			"count":1414,
			"type":"VEC3"
		},
		{
			"bufferView":2,
			"componentType":5126,
			"count":1414,
			"type":"VEC2"
		},
		{
			"bufferView":3,
			"componentType":5123,
			"count":6801,
			"type":"SCALAR"
		},
		{
			"bufferView":4,
			"componentType":5126,
			"count":150,
			"max":[
				2.410269021987915,
				0.04100000113248825,
				0.39264100790023804
			],
			"min":[
				-2.410269021987915,
				-0.04100000113248825,
				-1.2076870203018188
			],
			"type":"VEC3"
		},
		{
			"bufferView":5,
			"componentType":5126,
			"count":150,
			"type":"VEC3"
		},
		{
			"bufferView":6,
			"componentType":5126,
			"count":150,
			"type":"VEC2"
		},
		{
			"bufferView":7,
			"componentType":5123,
			"count":744,
			"type":"SCALAR"
		},
		{
			"bufferView":8,
			"componentType":5126,
			"count":85,
			"max":[
				0.310589998960495,
				0.023283999413251877,
				1.3112620115280151
			],
			"min":[
				-0.24574799835681915,
				-0.023283999413251877,
				0.3613570034503937
			],
			"type":"VEC3"
		},
		{
			"bufferView":9,
			"componentType":5126,
			"count":85,
			"type":"VEC3"
		},
		{
			"bufferView":10,
			"componentType":5126,
			"count":85,
			"type":"VEC2"
		},
		{
			"bufferView":11,
			"componentType":5123,
			"count":390,
			"type":"SCALAR"
		}
	],
	"bufferViews":[
		{
			"buffer":0,
			"byteLength":16968,
			"byteOffset":0,
			"target":34962
		},
		{
			"buffer":0,
			"byteLength":16968,
			"byteOffset":16968,
			"target":34962
		},
		{
			"buffer":0,
			"byteLength":11312,
			"byteOffset":33936,
			"target":34962
		},
		{
			"buffer":0,
			"byteLength":13602,
			"byteOffset":45248,
			"target":34963
		},
		{
			"buffer":0,
			"byteLength":1800,
			"byteOffset":58852,
			"target":34962
		},
		{
			"buffer":0,
			"byteLength":1800,
			"byteOffset":60652,
			"target":34962
		},
		{
			"buffer":0,
			"byteLength":1200,
			"byteOffset":62452,
			"target":34962
		},
		{
			"buffer":0,
			"byteLength":1488,
			"byteOffset":63652,
			"target":34963
		},
		{
			"buffer":0,
			"byteLength":1020,
			"byteOffset":65140,
			"target":34962
		},
		{
			"buffer":0,
			"byteLength":1020,
			"byteOffset":66160,
			"target":34962
		},
		{
			"buffer":0,
			"byteLength":680,
			"byteOffset":67180,
			"target":34962
		},
		{
			"buffer":0,
			"byteLength":780,
			"byteOffset":67860,
			"target":34963
		}
	],
	"samplers":[
		{
			"magFilter":9729,
			"minFilter":9987
		}
	],
	"buffers":[
		{
			"byteLength":68640,
			"uri":"TShirt.bin"
		}
	]
}
