{
	"asset":{
		"copyright":"Eibriel",
		"generator":"Khronos glTF Blender I/O v4.3.47",
		"version":"2.0"
	},
	"extensionsUsed":[
		"KHR_materials_specular",
		"KHR_materials_unlit"
	],
	"scene":0,
	"scenes":[
		{
			"name":"VentilationGrillBig",
			"nodes":[
				0,
				1,
				2
			]
		}
	],
	"nodes":[
		{
			"mesh":0,
			"name":"VentilationGrillBig"
		},
		{
			"mesh":1,
			"name":"Plane",
			"rotation":[
				0.7071068286895752,
				0,
				0,
				0.7071068286895752
			],
			"translation":[
				0,
				0,
				-0.08328448235988617
			]
		},
		{
			"mesh":2,
			"name":"VentilationGrillBig_AO",
			"translation":[
				0,
				0,
				-0.08223982155323029
			]
		}
	],
	"materials":[
		{
			"alphaCutoff":0.8699580430984497,
			"alphaMode":"MASK",
			"doubleSided":true,
			"extensions":{
				"KHR_materials_specular":{
					"specularFactor":0.1454545259475708
				}
			},
			"name":"VentilationGrillBig",
			"normalTexture":{
				"index":0,
				"scale":0.10000000149011612
			},
			"pbrMetallicRoughness":{
				"baseColorTexture":{
					"index":1
				},
				"metallicRoughnessTexture":{
					"index":2
				}
			}
		},
		{
			"doubleSided":true,
			"extensions":{
				"KHR_materials_unlit":{}
			},
			"name":"Material.007",
			"pbrMetallicRoughness":{
				"baseColorFactor":[
					0,
					0,
					0,
					1
				],
				"metallicFactor":0,
				"roughnessFactor":0.9
			}
		},
		{
			"alphaMode":"BLEND",
			"doubleSided":true,
			"extensions":{
				"KHR_materials_specular":{
					"specularFactor":0
				}
			},
			"name":"VentilationGrillBig_AO",
			"pbrMetallicRoughness":{
				"baseColorTexture":{
					"index":3
				},
				"metallicFactor":0
			}
		}
	],
	"meshes":[
		{
			"name":"Cube_2__0",
			"primitives":[
				{
					"attributes":{
						"POSITION":0,
						"NORMAL":1,
						"TEXCOORD_0":2
					},
					"indices":3,
					"material":0
				}
			]
		},
		{
			"name":"Plane",
			"primitives":[
				{
					"attributes":{
						"POSITION":4,
						"NORMAL":5,
						"TEXCOORD_0":6
					},
					"indices":7,
					"material":1
				}
			]
		},
		{
			"name":"Plane.012",
			"primitives":[
				{
					"attributes":{
						"POSITION":8,
						"NORMAL":9,
						"TEXCOORD_0":10
					},
					"indices":11,
					"material":2
				}
			]
		}
	],
	"textures":[
		{
			"sampler":0,
			"source":0
		},
		{
			"sampler":0,
			"source":1
		},
		{
			"sampler":0,
			"source":2
		},
		{
			"sampler":0,
			"source":3
		}
	],
	"images":[
		{
			"mimeType":"image/png",
			"name":"VentilationGrillBig_Normal",
			"uri":"props_textures/VentilationGrillBig_Normal.png"
		},
		{
			"mimeType":"image/png",
			"name":"VentilationGrillBig_Base",
			"uri":"props_textures/VentilationGrillBig_Base.png"
		},
		{
			"mimeType":"image/png",
			"name":"VentilationGrillBig_RM",
			"uri":"props_textures/VentilationGrillBig_RM.png"
		},
		{
			"mimeType":"image/png",
			"name":"VentilationGrillBig_AO",
			"uri":"props_textures/VentilationGrillBig_AO.png"
		}
	],
	"accessors":[
		{
			"bufferView":0,
			"componentType":5126,
			"count":674,
			"max":[
				0.5,
				0.5000000596046448,
				0.03828052431344986
			],
			"min":[
				-0.5,
				-0.5000000596046448,
				-0.3119753897190094
			],
			"type":"VEC3"
		},
		{
			"bufferView":1,
			"componentType":5126,
			"count":674,
			"type":"VEC3"
		},
		{
			"bufferView":2,
			"componentType":5126,
			"count":674,
			"type":"VEC2"
		},
		{
			"bufferView":3,
			"componentType":5123,
			"count":2286,
			"type":"SCALAR"
		},
		{
			"bufferView":4,
			"componentType":5126,
			"count":4,
			"max":[
				0.41583192348480225,
				0,
				0.41583192348480225
			],
			"min":[
				-0.41583192348480225,
				0,
				-0.41583192348480225
			],
			"type":"VEC3"
		},
		{
			"bufferView":5,
			"componentType":5126,
			"count":4,
			"type":"VEC3"
		},
		{
			"bufferView":6,
			"componentType":5126,
			"count":4,
			"type":"VEC2"
		},
		{
			"bufferView":7,
			"componentType":5123,
			"count":6,
			"type":"SCALAR"
		},
		{
			"bufferView":8,
			"componentType":5126,
			"count":16,
			"max":[
				0.9999999403953552,
				1,
				0
			],
			"min":[
				-0.9999999403953552,
				-1,
				0
			],
			"type":"VEC3"
		},
		{
			"bufferView":9,
			"componentType":5126,
			"count":16,
			"type":"VEC3"
		},
		{
			"bufferView":10,
			"componentType":5126,
			"count":16,
			"type":"VEC2"
		},
		{
			"bufferView":11,
			"componentType":5123,
			"count":48,
			"type":"SCALAR"
		}
	],
	"bufferViews":[
		{
			"buffer":0,
			"byteLength":8088,
			"byteOffset":0,
			"target":34962
		},
		{
			"buffer":0,
			"byteLength":8088,
			"byteOffset":8088,
			"target":34962
		},
		{
			"buffer":0,
			"byteLength":5392,
			"byteOffset":16176,
			"target":34962
		},
		{
			"buffer":0,
			"byteLength":4572,
			"byteOffset":21568,
			"target":34963
		},
		{
			"buffer":0,
			"byteLength":48,
			"byteOffset":26140,
			"target":34962
		},
		{
			"buffer":0,
			"byteLength":48,
			"byteOffset":26188,
			"target":34962
		},
		{
			"buffer":0,
			"byteLength":32,
			"byteOffset":26236,
			"target":34962
		},
		{
			"buffer":0,
			"byteLength":12,
			"byteOffset":26268,
			"target":34963
		},
		{
			"buffer":0,
			"byteLength":192,
			"byteOffset":26280,
			"target":34962
		},
		{
			"buffer":0,
			"byteLength":192,
			"byteOffset":26472,
			"target":34962
		},
		{
			"buffer":0,
			"byteLength":128,
			"byteOffset":26664,
			"target":34962
		},
		{
			"buffer":0,
			"byteLength":96,
			"byteOffset":26792,
			"target":34963
		}
	],
	"samplers":[
		{
			"magFilter":9729,
			"minFilter":9987
		}
	],
	"buffers":[
		{
			"byteLength":26888,
			"uri":"VentilationGrillBig.bin"
		}
	]
}
