{
	"asset":{
		"copyright":"Eibriel",
		"generator":"Khronos glTF Blender I/O v4.3.47",
		"version":"2.0"
	},
	"extensionsUsed":[
		"KHR_materials_specular"
	],
	"scene":0,
	"scenes":[
		{
			"name":"WallFan",
			"nodes":[
				0,
				1,
				2
			]
		}
	],
	"nodes":[
		{
			"mesh":0,
			"name":"WallFan"
		},
		{
			"mesh":1,
			"name":"WallFan_AO",
			"translation":[
				0,
				0,
				0.0032204510644078255
			]
		},
		{
			"mesh":2,
			"name":"WallFan_blade",
			"translation":[
				0,
				0.2392345815896988,
				0.5345163941383362
			]
		}
	],
	"materials":[
		{
			"doubleSided":true,
			"name":"WallFan",
			"normalTexture":{
				"index":0
			},
			"pbrMetallicRoughness":{
				"baseColorTexture":{
					"index":1
				},
				"metallicRoughnessTexture":{
					"index":2
				}
			}
		},
		{
			"alphaMode":"BLEND",
			"doubleSided":true,
			"extensions":{
				"KHR_materials_specular":{
					"specularFactor":0
				}
			},
			"name":"WallFan_WallAO",
			"pbrMetallicRoughness":{
				"baseColorTexture":{
					"index":3
				},
				"metallicFactor":0
			}
		}
	],
	"meshes":[
		{
			"name":"Object_1.003",
			"primitives":[
				{
					"attributes":{
						"POSITION":0,
						"NORMAL":1,
						"TEXCOORD_0":2,
						"TEXCOORD_1":3,
						"TEXCOORD_2":4,
						"TEXCOORD_3":5
					},
					"indices":6,
					"material":0
				}
			]
		},
		{
			"name":"Plane.005",
			"primitives":[
				{
					"attributes":{
						"POSITION":7,
						"NORMAL":8,
						"TEXCOORD_0":9
					},
					"indices":10,
					"material":1
				}
			]
		},
		{
			"name":"Object_1.008",
			"primitives":[
				{
					"attributes":{
						"POSITION":11,
						"NORMAL":12,
						"TEXCOORD_0":13,
						"TEXCOORD_1":14,
						"TEXCOORD_2":15,
						"TEXCOORD_3":16
					},
					"indices":17,
					"material":0
				}
			]
		}
	],
	"textures":[
		{
			"sampler":0,
			"source":0
		},
		{
			"sampler":0,
			"source":1
		},
		{
			"sampler":0,
			"source":2
		},
		{
			"sampler":0,
			"source":3
		}
	],
	"images":[
		{
			"mimeType":"image/png",
			"name":"WallFan_Normal",
			"uri":"props_textures/WallFan_Normal.png"
		},
		{
			"mimeType":"image/png",
			"name":"WallFan_Base",
			"uri":"props_textures/WallFan_Base.png"
		},
		{
			"mimeType":"image/png",
			"name":"WallFan_MR",
			"uri":"props_textures/WallFan_MR.png"
		},
		{
			"mimeType":"image/png",
			"name":"WallFan_WallAO",
			"uri":"props_textures/WallFan_WallAO.png"
		}
	],
	"accessors":[
		{
			"bufferView":0,
			"componentType":5126,
			"count":12864,
			"max":[
				0.36607328057289124,
				0.6058910489082336,
				0.6493328809738159
			],
			"min":[
				-0.36607328057289124,
				-0.2050475925207138,
				3.2044954423327e-05
			],
			"type":"VEC3"
		},
		{
			"bufferView":1,
			"componentType":5126,
			"count":12864,
			"type":"VEC3"
		},
		{
			"bufferView":2,
			"componentType":5126,
			"count":12864,
			"type":"VEC2"
		},
		{
			"bufferView":3,
			"componentType":5126,
			"count":12864,
			"type":"VEC2"
		},
		{
			"bufferView":4,
			"componentType":5126,
			"count":12864,
			"type":"VEC2"
		},
		{
			"bufferView":5,
			"componentType":5126,
			"count":12864,
			"type":"VEC2"
		},
		{
			"bufferView":6,
			"componentType":5123,
			"count":49902,
			"type":"SCALAR"
		},
		{
			"bufferView":7,
			"componentType":5126,
			"count":4,
			"max":[
				0.8959842920303345,
				0.895984411239624,
				0
			],
			"min":[
				-0.8959842920303345,
				-0.895984411239624,
				0
			],
			"type":"VEC3"
		},
		{
			"bufferView":8,
			"componentType":5126,
			"count":4,
			"type":"VEC3"
		},
		{
			"bufferView":9,
			"componentType":5126,
			"count":4,
			"type":"VEC2"
		},
		{
			"bufferView":10,
			"componentType":5123,
			"count":6,
			"type":"SCALAR"
		},
		{
			"bufferView":11,
			"componentType":5126,
			"count":2040,
			"max":[
				0.27802225947380066,
				0.2674281597137451,
				0.014577388763427734
			],
			"min":[
				-0.27802222967147827,
				-0.27802231907844543,
				-0.05435323715209961
			],
			"type":"VEC3"
		},
		{
			"bufferView":12,
			"componentType":5126,
			"count":2040,
			"type":"VEC3"
		},
		{
			"bufferView":13,
			"componentType":5126,
			"count":2040,
			"type":"VEC2"
		},
		{
			"bufferView":14,
			"componentType":5126,
			"count":2040,
			"type":"VEC2"
		},
		{
			"bufferView":15,
			"componentType":5126,
			"count":2040,
			"type":"VEC2"
		},
		{
			"bufferView":16,
			"componentType":5126,
			"count":2040,
			"type":"VEC2"
		},
		{
			"bufferView":17,
			"componentType":5123,
			"count":7524,
			"type":"SCALAR"
		}
	],
	"bufferViews":[
		{
			"buffer":0,
			"byteLength":154368,
			"byteOffset":0,
			"target":34962
		},
		{
			"buffer":0,
			"byteLength":154368,
			"byteOffset":154368,
			"target":34962
		},
		{
			"buffer":0,
			"byteLength":102912,
			"byteOffset":308736,
			"target":34962
		},
		{
			"buffer":0,
			"byteLength":102912,
			"byteOffset":411648,
			"target":34962
		},
		{
			"buffer":0,
			"byteLength":102912,
			"byteOffset":514560,
			"target":34962
		},
		{
			"buffer":0,
			"byteLength":102912,
			"byteOffset":617472,
			"target":34962
		},
		{
			"buffer":0,
			"byteLength":99804,
			"byteOffset":720384,
			"target":34963
		},
		{
			"buffer":0,
			"byteLength":48,
			"byteOffset":820188,
			"target":34962
		},
		{
			"buffer":0,
			"byteLength":48,
			"byteOffset":820236,
			"target":34962
		},
		{
			"buffer":0,
			"byteLength":32,
			"byteOffset":820284,
			"target":34962
		},
		{
			"buffer":0,
			"byteLength":12,
			"byteOffset":820316,
			"target":34963
		},
		{
			"buffer":0,
			"byteLength":24480,
			"byteOffset":820328,
			"target":34962
		},
		{
			"buffer":0,
			"byteLength":24480,
			"byteOffset":844808,
			"target":34962
		},
		{
			"buffer":0,
			"byteLength":16320,
			"byteOffset":869288,
			"target":34962
		},
		{
			"buffer":0,
			"byteLength":16320,
			"byteOffset":885608,
			"target":34962
		},
		{
			"buffer":0,
			"byteLength":16320,
			"byteOffset":901928,
			"target":34962
		},
		{
			"buffer":0,
			"byteLength":16320,
			"byteOffset":918248,
			"target":34962
		},
		{
			"buffer":0,
			"byteLength":15048,
			"byteOffset":934568,
			"target":34963
		}
	],
	"samplers":[
		{
			"magFilter":9729,
			"minFilter":9987
		}
	],
	"buffers":[
		{
			"byteLength":949616,
			"uri":"WallFan.bin"
		}
	]
}
