{
	"asset":{
		"copyright":"Eibriel",
		"generator":"Khronos glTF Blender I/O v4.3.47",
		"version":"2.0"
	},
	"extensionsUsed":[
		"KHR_materials_specular",
		"KHR_materials_ior"
	],
	"scene":0,
	"scenes":[
		{
			"name":"Whiteboard",
			"nodes":[
				0
			]
		}
	],
	"nodes":[
		{
			"mesh":0,
			"name":"Pizarron",
			"rotation":[
				-0.5,
				0.4999999403953552,
				-0.5,
				0.5000000596046448
			]
		}
	],
	"materials":[
		{
			"doubleSided":true,
			"name":"Material.010",
			"pbrMetallicRoughness":{
				"baseColorFactor":[
					0.4672006368637085,
					0.4672006368637085,
					0.4672006368637085,
					1
				],
				"metallicFactor":0.4330708682537079,
				"roughnessFactor":0.374015748500824
			}
		},
		{
			"doubleSided":true,
			"extensions":{
				"KHR_materials_specular":{
					"specularColorFactor":[
						1.5826771259307861,
						1.5826771259307861,
						1.5826771259307861
					]
				},
				"KHR_materials_ior":{
					"ior":1.4500000476837158
				}
			},
			"name":"Material.016",
			"pbrMetallicRoughness":{
				"baseColorFactor":[
					0.11068861931562424,
					0.11068861931562424,
					0.11068861931562424,
					1
				],
				"metallicFactor":0.4645669162273407,
				"roughnessFactor":0.20472441613674164
			}
		},
		{
			"doubleSided":true,
			"name":"Material.012",
			"pbrMetallicRoughness":{
				"baseColorFactor":[
					0,
					0,
					0,
					1
				],
				"metallicFactor":0,
				"roughnessFactor":0.5
			}
		},
		{
			"doubleSided":true,
			"name":"Material.003",
			"pbrMetallicRoughness":{
				"baseColorTexture":{
					"index":0
				},
				"metallicFactor":0.4330708682537079,
				"roughnessFactor":0.374015748500824
			}
		},
		{
			"alphaMode":"BLEND",
			"doubleSided":true,
			"name":"Dahua_Technology_logo",
			"pbrMetallicRoughness":{
				"baseColorTexture":{
					"index":1
				},
				"metallicFactor":0,
				"roughnessFactor":0.5
			}
		}
	],
	"meshes":[
		{
			"name":"Whiteboard02",
			"primitives":[
				{
					"attributes":{
						"POSITION":0,
						"NORMAL":1,
						"TEXCOORD_0":2,
						"COLOR_0":3,
						"COLOR_1":4
					},
					"indices":5,
					"material":0
				},
				{
					"attributes":{
						"POSITION":6,
						"NORMAL":7,
						"TEXCOORD_0":8,
						"COLOR_0":9,
						"COLOR_1":10
					},
					"indices":11,
					"material":0
				},
				{
					"attributes":{
						"POSITION":12,
						"NORMAL":13,
						"TEXCOORD_0":14,
						"COLOR_0":15,
						"COLOR_1":16
					},
					"indices":17,
					"material":1
				},
				{
					"attributes":{
						"POSITION":18,
						"NORMAL":19,
						"TEXCOORD_0":20,
						"COLOR_0":21,
						"COLOR_1":22
					},
					"indices":23,
					"material":2
				},
				{
					"attributes":{
						"POSITION":24,
						"NORMAL":25,
						"TEXCOORD_0":26,
						"COLOR_0":27,
						"COLOR_1":28
					},
					"indices":29,
					"material":3
				},
				{
					"attributes":{
						"POSITION":30,
						"NORMAL":31,
						"TEXCOORD_0":32,
						"COLOR_0":33,
						"COLOR_1":34
					},
					"indices":35,
					"material":4
				}
			]
		}
	],
	"textures":[
		{
			"sampler":0,
			"source":0
		},
		{
			"sampler":1,
			"source":1
		}
	],
	"images":[
		{
			"mimeType":"image/jpeg",
			"name":"hold",
			"uri":"props_textures/hold.jpg"
		},
		{
			"mimeType":"image/png",
			"name":"Dahua_Technology_logo.svg",
			"uri":"props_textures/Dahua_Technology_logo_svg.png"
		}
	],
	"accessors":[
		{
			"bufferView":0,
			"componentType":5126,
			"count":422,
			"max":[
				0.24116118252277374,
				0.7424989938735962,
				0.022669993340969086
			],
			"min":[
				-0.671501100063324,
				-0.7424989938735962,
				-0.023906437680125237
			],
			"type":"VEC3"
		},
		{
			"bufferView":1,
			"componentType":5126,
			"count":422,
			"type":"VEC3"
		},
		{
			"bufferView":2,
			"componentType":5126,
			"count":422,
			"type":"VEC2"
		},
		{
			"bufferView":3,
			"componentType":5121,
			"count":422,
			"normalized":true,
			"type":"VEC4"
		},
		{
			"bufferView":4,
			"componentType":5123,
			"count":422,
			"normalized":true,
			"type":"VEC4"
		},
		{
			"bufferView":5,
			"componentType":5123,
			"count":1710,
			"type":"SCALAR"
		},
		{
			"bufferView":6,
			"componentType":5126,
			"count":532,
			"max":[
				0.2659032344818115,
				0.7424989938735962,
				0.022669993340969086
			],
			"min":[
				-0.6251633167266846,
				-0.7424989938735962,
				-0.023906437680125237
			],
			"type":"VEC3"
		},
		{
			"bufferView":7,
			"componentType":5126,
			"count":532,
			"type":"VEC3"
		},
		{
			"bufferView":8,
			"componentType":5126,
			"count":532,
			"type":"VEC2"
		},
		{
			"bufferView":9,
			"componentType":5121,
			"count":532,
			"normalized":true,
			"type":"VEC4"
		},
		{
			"bufferView":10,
			"componentType":5123,
			"count":532,
			"normalized":true,
			"type":"VEC4"
		},
		{
			"bufferView":11,
			"componentType":5123,
			"count":1776,
			"type":"SCALAR"
		},
		{
			"bufferView":12,
			"componentType":5126,
			"count":689,
			"max":[
				0.0423700176179409,
				0.7422928810119629,
				0.01956222765147686
			],
			"min":[
				-0.6614128947257996,
				-0.7422938346862793,
				-0.06602352857589722
			],
			"type":"VEC3"
		},
		{
			"bufferView":13,
			"componentType":5126,
			"count":689,
			"type":"VEC3"
		},
		{
			"bufferView":14,
			"componentType":5126,
			"count":689,
			"type":"VEC2"
		},
		{
			"bufferView":15,
			"componentType":5121,
			"count":689,
			"normalized":true,
			"type":"VEC4"
		},
		{
			"bufferView":16,
			"componentType":5123,
			"count":689,
			"normalized":true,
			"type":"VEC4"
		},
		{
			"bufferView":17,
			"componentType":5123,
			"count":3864,
			"type":"SCALAR"
		},
		{
			"bufferView":18,
			"componentType":5126,
			"count":1958,
			"max":[
				0.24473761022090912,
				0.6425015330314636,
				0.022669993340969086
			],
			"min":[
				0.2224491983652115,
				-0.6398476362228394,
				0.006544660776853561
			],
			"type":"VEC3"
		},
		{
			"bufferView":19,
			"componentType":5126,
			"count":1958,
			"type":"VEC3"
		},
		{
			"bufferView":20,
			"componentType":5126,
			"count":1958,
			"type":"VEC2"
		},
		{
			"bufferView":21,
			"componentType":5121,
			"count":1958,
			"normalized":true,
			"type":"VEC4"
		},
		{
			"bufferView":22,
			"componentType":5123,
			"count":1958,
			"normalized":true,
			"type":"VEC4"
		},
		{
			"bufferView":23,
			"componentType":5123,
			"count":4152,
			"type":"SCALAR"
		},
		{
			"bufferView":24,
			"componentType":5126,
			"count":226,
			"max":[
				0.24719740450382233,
				0.6811243295669556,
				0.018113121390342712
			],
			"min":[
				0.21977099776268005,
				-0.6789640188217163,
				0.004791873972862959
			],
			"type":"VEC3"
		},
		{
			"bufferView":25,
			"componentType":5126,
			"count":226,
			"type":"VEC3"
		},
		{
			"bufferView":26,
			"componentType":5126,
			"count":226,
			"type":"VEC2"
		},
		{
			"bufferView":27,
			"componentType":5121,
			"count":226,
			"normalized":true,
			"type":"VEC4"
		},
		{
			"bufferView":28,
			"componentType":5123,
			"count":226,
			"normalized":true,
			"type":"VEC4"
		},
		{
			"bufferView":29,
			"componentType":5123,
			"count":1176,
			"type":"SCALAR"
		},
		{
			"bufferView":30,
			"componentType":5126,
			"count":4,
			"max":[
				0.23482929170131683,
				0.02391968108713627,
				0.009615513496100903
			],
			"min":[
				0.21997176110744476,
				-0.02392342872917652,
				0.009615511633455753
			],
			"type":"VEC3"
		},
		{
			"bufferView":31,
			"componentType":5126,
			"count":4,
			"type":"VEC3"
		},
		{
			"bufferView":32,
			"componentType":5126,
			"count":4,
			"type":"VEC2"
		},
		{
			"bufferView":33,
			"componentType":5121,
			"count":4,
			"normalized":true,
			"type":"VEC4"
		},
		{
			"bufferView":34,
			"componentType":5123,
			"count":4,
			"normalized":true,
			"type":"VEC4"
		},
		{
			"bufferView":35,
			"componentType":5123,
			"count":6,
			"type":"SCALAR"
		}
	],
	"bufferViews":[
		{
			"buffer":0,
			"byteLength":5064,
			"byteOffset":0,
			"target":34962
		},
		{
			"buffer":0,
			"byteLength":5064,
			"byteOffset":5064,
			"target":34962
		},
		{
			"buffer":0,
			"byteLength":3376,
			"byteOffset":10128,
			"target":34962
		},
		{
			"buffer":0,
			"byteLength":1688,
			"byteOffset":13504,
			"target":34962
		},
		{
			"buffer":0,
			"byteLength":3376,
			"byteOffset":15192,
			"target":34962
		},
		{
			"buffer":0,
			"byteLength":3420,
			"byteOffset":18568,
			"target":34963
		},
		{
			"buffer":0,
			"byteLength":6384,
			"byteOffset":21988,
			"target":34962
		},
		{
			"buffer":0,
			"byteLength":6384,
			"byteOffset":28372,
			"target":34962
		},
		{
			"buffer":0,
			"byteLength":4256,
			"byteOffset":34756,
			"target":34962
		},
		{
			"buffer":0,
			"byteLength":2128,
			"byteOffset":39012,
			"target":34962
		},
		{
			"buffer":0,
			"byteLength":4256,
			"byteOffset":41140,
			"target":34962
		},
		{
			"buffer":0,
			"byteLength":3552,
			"byteOffset":45396,
			"target":34963
		},
		{
			"buffer":0,
			"byteLength":8268,
			"byteOffset":48948,
			"target":34962
		},
		{
			"buffer":0,
			"byteLength":8268,
			"byteOffset":57216,
			"target":34962
		},
		{
			"buffer":0,
			"byteLength":5512,
			"byteOffset":65484,
			"target":34962
		},
		{
			"buffer":0,
			"byteLength":2756,
			"byteOffset":70996,
			"target":34962
		},
		{
			"buffer":0,
			"byteLength":5512,
			"byteOffset":73752,
			"target":34962
		},
		{
			"buffer":0,
			"byteLength":7728,
			"byteOffset":79264,
			"target":34963
		},
		{
			"buffer":0,
			"byteLength":23496,
			"byteOffset":86992,
			"target":34962
		},
		{
			"buffer":0,
			"byteLength":23496,
			"byteOffset":110488,
			"target":34962
		},
		{
			"buffer":0,
			"byteLength":15664,
			"byteOffset":133984,
			"target":34962
		},
		{
			"buffer":0,
			"byteLength":7832,
			"byteOffset":149648,
			"target":34962
		},
		{
			"buffer":0,
			"byteLength":15664,
			"byteOffset":157480,
			"target":34962
		},
		{
			"buffer":0,
			"byteLength":8304,
			"byteOffset":173144,
			"target":34963
		},
		{
			"buffer":0,
			"byteLength":2712,
			"byteOffset":181448,
			"target":34962
		},
		{
			"buffer":0,
			"byteLength":2712,
			"byteOffset":184160,
			"target":34962
		},
		{
			"buffer":0,
			"byteLength":1808,
			"byteOffset":186872,
			"target":34962
		},
		{
			"buffer":0,
			"byteLength":904,
			"byteOffset":188680,
			"target":34962
		},
		{
			"buffer":0,
			"byteLength":1808,
			"byteOffset":189584,
			"target":34962
		},
		{
			"buffer":0,
			"byteLength":2352,
			"byteOffset":191392,
			"target":34963
		},
		{
			"buffer":0,
			"byteLength":48,
			"byteOffset":193744,
			"target":34962
		},
		{
			"buffer":0,
			"byteLength":48,
			"byteOffset":193792,
			"target":34962
		},
		{
			"buffer":0,
			"byteLength":32,
			"byteOffset":193840,
			"target":34962
		},
		{
			"buffer":0,
			"byteLength":16,
			"byteOffset":193872,
			"target":34962
		},
		{
			"buffer":0,
			"byteLength":32,
			"byteOffset":193888,
			"target":34962
		},
		{
			"buffer":0,
			"byteLength":12,
			"byteOffset":193920,
			"target":34963
		}
	],
	"samplers":[
		{
			"magFilter":9729,
			"minFilter":9987
		},
		{
			"magFilter":9729,
			"minFilter":9987,
			"wrapS":33071,
			"wrapT":33071
		}
	],
	"buffers":[
		{
			"byteLength":193932,
			"uri":"Whiteboard.bin"
		}
	]
}
