{
	"asset":{
		"copyright":"Eibriel",
		"generator":"Khronos glTF Blender I/O v4.3.47",
		"version":"2.0"
	},
	"scene":0,
	"scenes":[
		{
			"name":"WoodCrate02",
			"nodes":[
				0,
				1
			]
		}
	],
	"nodes":[
		{
			"mesh":0,
			"name":"Wood_High_Side"
		},
		{
			"mesh":1,
			"name":"Collider",
			"scale":[
				1.637142300605774,
				0.6618554592132568,
				0.6761309504508972
			],
			"translation":[
				0,
				0.6690228581428528,
				0
			]
		}
	],
	"materials":[
		{
			"doubleSided":true,
			"name":"Wood_High_Side",
			"normalTexture":{
				"index":0
			},
			"pbrMetallicRoughness":{
				"baseColorTexture":{
					"index":1
				},
				"metallicRoughnessTexture":{
					"index":2
				}
			}
		}
	],
	"meshes":[
		{
			"name":"Wood_Crate_C_Wood_Crate_C_0",
			"primitives":[
				{
					"attributes":{
						"POSITION":0,
						"NORMAL":1,
						"TEXCOORD_0":2,
						"TEXCOORD_1":3
					},
					"indices":4,
					"material":0
				}
			]
		},
		{
			"name":"Cube.002",
			"primitives":[
				{
					"attributes":{
						"POSITION":5,
						"NORMAL":6,
						"TEXCOORD_0":7
					},
					"indices":8
				}
			]
		}
	],
	"textures":[
		{
			"sampler":0,
			"source":0
		},
		{
			"sampler":0,
			"source":1
		},
		{
			"sampler":0,
			"source":2
		}
	],
	"images":[
		{
			"mimeType":"image/png",
			"name":"Wood_High_Side_Normal",
			"uri":"props_textures/Wood_High_Side_Normal.png"
		},
		{
			"mimeType":"image/png",
			"name":"Wood_High_Side_Base",
			"uri":"props_textures/Wood_High_Side_Base.png"
		},
		{
			"mimeType":"image/png",
			"name":"Wood_High_Side_MR",
			"uri":"props_textures/Wood_High_Side_MR.png"
		}
	],
	"accessors":[
		{
			"bufferView":0,
			"componentType":5126,
			"count":1242,
			"max":[
				1.6505934000015259,
				1.3430830240249634,
				0.7105752825737
			],
			"min":[
				-1.6505932807922363,
				-0.0070095062255859375,
				-0.6756201982498169
			],
			"type":"VEC3"
		},
		{
			"bufferView":1,
			"componentType":5126,
			"count":1242,
			"type":"VEC3"
		},
		{
			"bufferView":2,
			"componentType":5126,
			"count":1242,
			"type":"VEC2"
		},
		{
			"bufferView":3,
			"componentType":5126,
			"count":1242,
			"type":"VEC2"
		},
		{
			"bufferView":4,
			"componentType":5123,
			"count":1242,
			"type":"SCALAR"
		},
		{
			"bufferView":5,
			"componentType":5126,
			"count":24,
			"max":[
				1,
				1,
				1
			],
			"min":[
				-1,
				-1,
				-1
			],
			"type":"VEC3"
		},
		{
			"bufferView":6,
			"componentType":5126,
			"count":24,
			"type":"VEC3"
		},
		{
			"bufferView":7,
			"componentType":5126,
			"count":24,
			"type":"VEC2"
		},
		{
			"bufferView":8,
			"componentType":5123,
			"count":36,
			"type":"SCALAR"
		}
	],
	"bufferViews":[
		{
			"buffer":0,
			"byteLength":14904,
			"byteOffset":0,
			"target":34962
		},
		{
			"buffer":0,
			"byteLength":14904,
			"byteOffset":14904,
			"target":34962
		},
		{
			"buffer":0,
			"byteLength":9936,
			"byteOffset":29808,
			"target":34962
		},
		{
			"buffer":0,
			"byteLength":9936,
			"byteOffset":39744,
			"target":34962
		},
		{
			"buffer":0,
			"byteLength":2484,
			"byteOffset":49680,
			"target":34963
		},
		{
			"buffer":0,
			"byteLength":288,
			"byteOffset":52164,
			"target":34962
		},
		{
			"buffer":0,
			"byteLength":288,
			"byteOffset":52452,
			"target":34962
		},
		{
			"buffer":0,
			"byteLength":192,
			"byteOffset":52740,
			"target":34962
		},
		{
			"buffer":0,
			"byteLength":72,
			"byteOffset":52932,
			"target":34963
		}
	],
	"samplers":[
		{
			"magFilter":9729,
			"minFilter":9987
		}
	],
	"buffers":[
		{
			"byteLength":53004,
			"uri":"WoodCrate02.bin"
		}
	]
}
