{
	"asset":{
		"copyright":"Eibriel",
		"generator":"Khronos glTF Blender I/O v4.3.47",
		"version":"2.0"
	},
	"extensionsUsed":[
		"KHR_materials_specular"
	],
	"scene":0,
	"scenes":[
		{
			"name":"WoodCrateOpen",
			"nodes":[
				0,
				1,
				2,
				3
			]
		}
	],
	"nodes":[
		{
			"mesh":0,
			"name":"Collision.001",
			"scale":[
				0.6731119751930237,
				1.3341310024261475,
				0.6711905598640442
			],
			"translation":[
				0,
				1.3248281478881836,
				-0.011685832403600216
			]
		},
		{
			"mesh":1,
			"name":"Wood_High_Open"
		},
		{
			"mesh":2,
			"name":"Wood_High_Open_Stuff",
			"rotation":[
				0,
				0,
				-0.7071068286895752,
				0.7071068286895752
			],
			"translation":[
				-0.37344980239868164,
				1.2363643646240234,
				0
			]
		},
		{
			"mesh":3,
			"name":"Wood_High_Open_StuffPlane",
			"translation":[
				-0.23525147140026093,
				0,
				0
			]
		}
	],
	"materials":[
		{
			"doubleSided":true,
			"name":"Wood_High",
			"normalTexture":{
				"index":0
			},
			"pbrMetallicRoughness":{
				"baseColorTexture":{
					"index":1
				},
				"metallicRoughnessTexture":{
					"index":2
				}
			}
		},
		{
			"doubleSided":true,
			"extensions":{
				"KHR_materials_specular":{
					"specularFactor":0.033707864582538605
				}
			},
			"name":"WoodCrateStuff",
			"pbrMetallicRoughness":{
				"baseColorFactor":[
					0.06299508363008499,
					0.046768032014369965,
					0.024654626846313477,
					1
				],
				"metallicFactor":0
			}
		}
	],
	"meshes":[
		{
			"name":"Cube.004",
			"primitives":[
				{
					"attributes":{
						"POSITION":0,
						"NORMAL":1,
						"TEXCOORD_0":2
					},
					"indices":3
				}
			]
		},
		{
			"name":"Wood_Crate_B_Wood_Crate_B_0.004",
			"primitives":[
				{
					"attributes":{
						"POSITION":4,
						"NORMAL":5,
						"TEXCOORD_0":6
					},
					"indices":7,
					"material":0
				}
			]
		},
		{
			"name":"B\u00e9zierCurve",
			"primitives":[
				{
					"attributes":{
						"POSITION":8,
						"NORMAL":9,
						"TEXCOORD_0":10
					},
					"indices":11,
					"material":1
				}
			]
		},
		{
			"name":"Plane.011",
			"primitives":[
				{
					"attributes":{
						"POSITION":12,
						"NORMAL":13,
						"TEXCOORD_0":14
					},
					"indices":15,
					"material":1
				}
			]
		}
	],
	"textures":[
		{
			"sampler":0,
			"source":0
		},
		{
			"sampler":0,
			"source":1
		},
		{
			"sampler":0,
			"source":2
		}
	],
	"images":[
		{
			"mimeType":"image/png",
			"name":"WoodCrate_High_Normal",
			"uri":"props_textures/WoodCrate_High_Normal.png"
		},
		{
			"mimeType":"image/png",
			"name":"WoodCrate_High_Base",
			"uri":"props_textures/WoodCrate_High_Base.png"
		},
		{
			"mimeType":"image/png",
			"name":"WoodCrate_High_MR",
			"uri":"props_textures/WoodCrate_High_MR.png"
		}
	],
	"accessors":[
		{
			"bufferView":0,
			"componentType":5126,
			"count":24,
			"max":[
				1,
				1,
				1
			],
			"min":[
				-1,
				-1,
				-1
			],
			"type":"VEC3"
		},
		{
			"bufferView":1,
			"componentType":5126,
			"count":24,
			"type":"VEC3"
		},
		{
			"bufferView":2,
			"componentType":5126,
			"count":24,
			"type":"VEC2"
		},
		{
			"bufferView":3,
			"componentType":5123,
			"count":36,
			"type":"SCALAR"
		},
		{
			"bufferView":4,
			"componentType":5126,
			"count":515,
			"max":[
				0.6666043400764465,
				2.6803412437438965,
				0.6605709195137024
			],
			"min":[
				-0.6715894341468811,
				-0.010024428367614746,
				-0.7220026850700378
			],
			"type":"VEC3"
		},
		{
			"bufferView":5,
			"componentType":5126,
			"count":515,
			"type":"VEC3"
		},
		{
			"bufferView":6,
			"componentType":5126,
			"count":515,
			"type":"VEC2"
		},
		{
			"bufferView":7,
			"componentType":5123,
			"count":1188,
			"type":"SCALAR"
		},
		{
			"bufferView":8,
			"componentType":5126,
			"count":1206,
			"max":[
				1.217456340789795,
				0.17000000178813934,
				0.6172125339508057
			],
			"min":[
				-1.4180748462677002,
				-0.1899999976158142,
				-0.6610623002052307
			],
			"type":"VEC3"
		},
		{
			"bufferView":9,
			"componentType":5126,
			"count":1206,
			"type":"VEC3"
		},
		{
			"bufferView":10,
			"componentType":5126,
			"count":1206,
			"type":"VEC2"
		},
		{
			"bufferView":11,
			"componentType":5123,
			"count":5811,
			"type":"SCALAR"
		},
		{
			"bufferView":12,
			"componentType":5126,
			"count":4,
			"max":[
				0,
				2.4432055950164795,
				0.46452564001083374
			],
			"min":[
				0,
				0.05327117443084717,
				-0.4783087372779846
			],
			"type":"VEC3"
		},
		{
			"bufferView":13,
			"componentType":5126,
			"count":4,
			"type":"VEC3"
		},
		{
			"bufferView":14,
			"componentType":5126,
			"count":4,
			"type":"VEC2"
		},
		{
			"bufferView":15,
			"componentType":5123,
			"count":6,
			"type":"SCALAR"
		}
	],
	"bufferViews":[
		{
			"buffer":0,
			"byteLength":288,
			"byteOffset":0,
			"target":34962
		},
		{
			"buffer":0,
			"byteLength":288,
			"byteOffset":288,
			"target":34962
		},
		{
			"buffer":0,
			"byteLength":192,
			"byteOffset":576,
			"target":34962
		},
		{
			"buffer":0,
			"byteLength":72,
			"byteOffset":768,
			"target":34963
		},
		{
			"buffer":0,
			"byteLength":6180,
			"byteOffset":840,
			"target":34962
		},
		{
			"buffer":0,
			"byteLength":6180,
			"byteOffset":7020,
			"target":34962
		},
		{
			"buffer":0,
			"byteLength":4120,
			"byteOffset":13200,
			"target":34962
		},
		{
			"buffer":0,
			"byteLength":2376,
			"byteOffset":17320,
			"target":34963
		},
		{
			"buffer":0,
			"byteLength":14472,
			"byteOffset":19696,
			"target":34962
		},
		{
			"buffer":0,
			"byteLength":14472,
			"byteOffset":34168,
			"target":34962
		},
		{
			"buffer":0,
			"byteLength":9648,
			"byteOffset":48640,
			"target":34962
		},
		{
			"buffer":0,
			"byteLength":11622,
			"byteOffset":58288,
			"target":34963
		},
		{
			"buffer":0,
			"byteLength":48,
			"byteOffset":69912,
			"target":34962
		},
		{
			"buffer":0,
			"byteLength":48,
			"byteOffset":69960,
			"target":34962
		},
		{
			"buffer":0,
			"byteLength":32,
			"byteOffset":70008,
			"target":34962
		},
		{
			"buffer":0,
			"byteLength":12,
			"byteOffset":70040,
			"target":34963
		}
	],
	"samplers":[
		{
			"magFilter":9729,
			"minFilter":9987
		}
	],
	"buffers":[
		{
			"byteLength":70052,
			"uri":"WoodCrateOpen.bin"
		}
	]
}
