{
	"asset":{
		"copyright":"Eibriel",
		"generator":"Khronos glTF Blender I/O v4.3.47",
		"version":"2.0"
	},
	"scene":0,
	"scenes":[
		{
			"name":"WoodCrate",
			"nodes":[
				0,
				1
			]
		}
	],
	"nodes":[
		{
			"mesh":0,
			"name":"Wood_High"
		},
		{
			"mesh":1,
			"name":"Collision.001",
			"scale":[
				0.6731119751930237,
				1.3341310024261475,
				0.6711905598640442
			],
			"translation":[
				0,
				1.3248281478881836,
				-0.011685832403600216
			]
		}
	],
	"materials":[
		{
			"doubleSided":true,
			"name":"Wood_High",
			"normalTexture":{
				"index":0
			},
			"pbrMetallicRoughness":{
				"baseColorTexture":{
					"index":1
				},
				"metallicRoughnessTexture":{
					"index":2
				}
			}
		}
	],
	"meshes":[
		{
			"name":"Wood_Crate_B_Wood_Crate_B_0.001",
			"primitives":[
				{
					"attributes":{
						"POSITION":0,
						"NORMAL":1,
						"TEXCOORD_0":2
					},
					"indices":3,
					"material":0
				}
			]
		},
		{
			"name":"Cube.004",
			"primitives":[
				{
					"attributes":{
						"POSITION":4,
						"NORMAL":5,
						"TEXCOORD_0":6
					},
					"indices":7
				}
			]
		}
	],
	"textures":[
		{
			"sampler":0,
			"source":0
		},
		{
			"sampler":0,
			"source":1
		},
		{
			"sampler":0,
			"source":2
		}
	],
	"images":[
		{
			"mimeType":"image/png",
			"name":"WoodCrate_High_Normal",
			"uri":"props_textures/WoodCrate_High_Normal.png"
		},
		{
			"mimeType":"image/png",
			"name":"WoodCrate_High_Base",
			"uri":"props_textures/WoodCrate_High_Base.png"
		},
		{
			"mimeType":"image/png",
			"name":"WoodCrate_High_MR",
			"uri":"props_textures/WoodCrate_High_MR.png"
		}
	],
	"accessors":[
		{
			"bufferView":0,
			"componentType":5126,
			"count":675,
			"max":[
				0.6666043400764465,
				2.6803412437438965,
				0.6605709195137024
			],
			"min":[
				-0.6715894341468811,
				-0.010024428367614746,
				-0.7220026850700378
			],
			"type":"VEC3"
		},
		{
			"bufferView":1,
			"componentType":5126,
			"count":675,
			"type":"VEC3"
		},
		{
			"bufferView":2,
			"componentType":5126,
			"count":675,
			"type":"VEC2"
		},
		{
			"bufferView":3,
			"componentType":5123,
			"count":1242,
			"type":"SCALAR"
		},
		{
			"bufferView":4,
			"componentType":5126,
			"count":24,
			"max":[
				1,
				1,
				1
			],
			"min":[
				-1,
				-1,
				-1
			],
			"type":"VEC3"
		},
		{
			"bufferView":5,
			"componentType":5126,
			"count":24,
			"type":"VEC3"
		},
		{
			"bufferView":6,
			"componentType":5126,
			"count":24,
			"type":"VEC2"
		},
		{
			"bufferView":7,
			"componentType":5123,
			"count":36,
			"type":"SCALAR"
		}
	],
	"bufferViews":[
		{
			"buffer":0,
			"byteLength":8100,
			"byteOffset":0,
			"target":34962
		},
		{
			"buffer":0,
			"byteLength":8100,
			"byteOffset":8100,
			"target":34962
		},
		{
			"buffer":0,
			"byteLength":5400,
			"byteOffset":16200,
			"target":34962
		},
		{
			"buffer":0,
			"byteLength":2484,
			"byteOffset":21600,
			"target":34963
		},
		{
			"buffer":0,
			"byteLength":288,
			"byteOffset":24084,
			"target":34962
		},
		{
			"buffer":0,
			"byteLength":288,
			"byteOffset":24372,
			"target":34962
		},
		{
			"buffer":0,
			"byteLength":192,
			"byteOffset":24660,
			"target":34962
		},
		{
			"buffer":0,
			"byteLength":72,
			"byteOffset":24852,
			"target":34963
		}
	],
	"samplers":[
		{
			"magFilter":9729,
			"minFilter":9987
		}
	],
	"buffers":[
		{
			"byteLength":24924,
			"uri":"WoodCrate.bin"
		}
	]
}
