{
	"asset":{
		"copyright":"Eibriel",
		"generator":"Khronos glTF Blender I/O v4.3.47",
		"version":"2.0"
	},
	"extensionsUsed":[
		"KHR_materials_specular"
	],
	"scene":0,
	"scenes":[
		{
			"name":"WoodCrateCover",
			"nodes":[
				0,
				1
			]
		}
	],
	"nodes":[
		{
			"mesh":0,
			"name":"WoodCrateCover",
			"translation":[
				0,
				0,
				0.014584451913833618
			]
		},
		{
			"mesh":1,
			"name":"WoodCrateCover_Stuff"
		}
	],
	"materials":[
		{
			"doubleSided":true,
			"name":"Wood_High",
			"normalTexture":{
				"index":0
			},
			"pbrMetallicRoughness":{
				"baseColorTexture":{
					"index":1
				},
				"metallicRoughnessTexture":{
					"index":2
				}
			}
		},
		{
			"doubleSided":true,
			"extensions":{
				"KHR_materials_specular":{
					"specularFactor":0.033707864582538605
				}
			},
			"name":"WoodCrateStuff",
			"pbrMetallicRoughness":{
				"baseColorFactor":[
					0.06299508363008499,
					0.046768032014369965,
					0.024654626846313477,
					1
				],
				"metallicFactor":0
			}
		}
	],
	"meshes":[
		{
			"name":"Wood_Crate_B_Wood_Crate_B_0.005",
			"primitives":[
				{
					"attributes":{
						"POSITION":0,
						"NORMAL":1,
						"TEXCOORD_0":2
					},
					"indices":3,
					"material":0
				}
			]
		},
		{
			"name":"Cube.006",
			"primitives":[
				{
					"attributes":{
						"POSITION":4,
						"NORMAL":5,
						"TEXCOORD_0":6
					},
					"indices":7,
					"material":1
				}
			]
		}
	],
	"textures":[
		{
			"sampler":0,
			"source":0
		},
		{
			"sampler":0,
			"source":1
		},
		{
			"sampler":0,
			"source":2
		}
	],
	"images":[
		{
			"mimeType":"image/png",
			"name":"WoodCrate_High_Normal",
			"uri":"props_textures/WoodCrate_High_Normal.png"
		},
		{
			"mimeType":"image/png",
			"name":"WoodCrate_High_Base",
			"uri":"props_textures/WoodCrate_High_Base.png"
		},
		{
			"mimeType":"image/png",
			"name":"WoodCrate_High_MR",
			"uri":"props_textures/WoodCrate_High_MR.png"
		}
	],
	"accessors":[
		{
			"bufferView":0,
			"componentType":5126,
			"count":36,
			"max":[
				0.014179527759552002,
				2.6763904094696045,
				0.6531636714935303
			],
			"min":[
				-0.0009990930557250977,
				-0.003139317035675049,
				-0.6832631230354309
			],
			"type":"VEC3"
		},
		{
			"bufferView":1,
			"componentType":5126,
			"count":36,
			"type":"VEC3"
		},
		{
			"bufferView":2,
			"componentType":5126,
			"count":36,
			"type":"VEC2"
		},
		{
			"bufferView":3,
			"componentType":5123,
			"count":54,
			"type":"SCALAR"
		},
		{
			"bufferView":4,
			"componentType":5126,
			"count":20,
			"max":[
				0.06869900226593018,
				2.643798351287842,
				0.6320528388023376
			],
			"min":[
				0.029193639755249023,
				0.023959040641784668,
				-0.6320526003837585
			],
			"type":"VEC3"
		},
		{
			"bufferView":5,
			"componentType":5126,
			"count":20,
			"type":"VEC3"
		},
		{
			"bufferView":6,
			"componentType":5126,
			"count":20,
			"type":"VEC2"
		},
		{
			"bufferView":7,
			"componentType":5123,
			"count":30,
			"type":"SCALAR"
		}
	],
	"bufferViews":[
		{
			"buffer":0,
			"byteLength":432,
			"byteOffset":0,
			"target":34962
		},
		{
			"buffer":0,
			"byteLength":432,
			"byteOffset":432,
			"target":34962
		},
		{
			"buffer":0,
			"byteLength":288,
			"byteOffset":864,
			"target":34962
		},
		{
			"buffer":0,
			"byteLength":108,
			"byteOffset":1152,
			"target":34963
		},
		{
			"buffer":0,
			"byteLength":240,
			"byteOffset":1260,
			"target":34962
		},
		{
			"buffer":0,
			"byteLength":240,
			"byteOffset":1500,
			"target":34962
		},
		{
			"buffer":0,
			"byteLength":160,
			"byteOffset":1740,
			"target":34962
		},
		{
			"buffer":0,
			"byteLength":60,
			"byteOffset":1900,
			"target":34963
		}
	],
	"samplers":[
		{
			"magFilter":9729,
			"minFilter":9987
		}
	],
	"buffers":[
		{
			"byteLength":1960,
			"uri":"WoodCrateCover.bin"
		}
	]
}
